<ttFont>
    <TTGlyph name=".notdef" xMin="82" yMin="-220" xMax="666" yMax="1030">
      <contour>
        <pt x="82" y="1030" on="1"/>
        <pt x="666" y="1030" on="1"/>
        <pt x="666" y="-220" on="1"/>
        <pt x="82" y="-220" on="1"/>
      </contour>
      <contour>
        <pt x="556" y="-117" on="1"/>
        <pt x="556" y="928" on="1"/>
        <pt x="192" y="928" on="1"/>
        <pt x="192" y="-117" on="1"/>
      </contour>
    </TTGlyph>
    <TTGlyph name="A" xMin="2" yMin="0" xMax="672" yMax="740">
      <contour>
        <pt x="2" y="8" on="1"/>
        <pt x="237" y="740" on="1"/>
        <pt x="438" y="740" on="1"/>
        <pt x="672" y="8" on="1"/>
        <pt x="672" y="0" on="1"/>
        <pt x="543" y="0" on="1"/>
        <pt x="479" y="196" on="1"/>
        <pt x="195" y="196" on="1"/>
        <pt x="132" y="0" on="1"/>
        <pt x="2" y="0" on="1"/>
      </contour>
      <contour>
        <pt x="449" y="303" on="1"/>
        <pt x="382" y="513" on="1"/>
        <pt x="343" y="642" on="1"/>
        <pt x="331" y="642" on="1"/>
        <pt x="292" y="512" on="1"/>
        <pt x="226" y="303" on="1"/>
      </contour>
    </TTGlyph>
    <TTGlyph name="A.sc" xMin="6" yMin="0" xMax="611" yMax="577">
      <contour>
        <pt x="6" y="7" on="1"/>
        <pt x="213" y="577" on="1"/>
        <pt x="404" y="577" on="1"/>
        <pt x="611" y="7" on="1"/>
        <pt x="611" y="0" on="1"/>
        <pt x="487" y="0" on="1"/>
        <pt x="434" y="138" on="1"/>
        <pt x="182" y="138" on="1"/>
        <pt x="130" y="0" on="1"/>
        <pt x="6" y="0" on="1"/>
      </contour>
      <contour>
        <pt x="409" y="227" on="1"/>
        <pt x="348" y="392" on="1"/>
        <pt x="314" y="486" on="1"/>
        <pt x="303" y="486" on="1"/>
        <pt x="269" y="391" on="1"/>
        <pt x="207" y="227" on="1"/>
      </contour>
    </TTGlyph>
    <TTGlyph name="AE" xMin="0" yMin="0" xMax="857" yMax="740">
      <contour>
        <pt x="0" y="8" on="1"/>
        <pt x="275" y="740" on="1"/>
        <pt x="845" y="740" on="1"/>
        <pt x="845" y="631" on="1"/>
        <pt x="542" y="631" on="1"/>
        <pt x="553" y="427" on="1"/>
        <pt x="826" y="427" on="1"/>
        <pt x="826" y="318" on="1"/>
        <pt x="560" y="318" on="1"/>
        <pt x="572" y="109" on="1"/>
        <pt x="857" y="109" on="1"/>
        <pt x="857" y="0" on="1"/>
        <pt x="439" y="0" on="1"/>
        <pt x="431" y="193" on="1"/>
        <pt x="205" y="193" on="1"/>
        <pt x="133" y="0" on="1"/>
        <pt x="0" y="0" on="1"/>
      </contour>
      <contour>
        <pt x="248" y="306" on="1"/>
        <pt x="426" y="306" on="1"/>
        <pt x="413" y="640" on="1"/>
        <pt x="373" y="640" on="1"/>
      </contour>
    </TTGlyph>
    <TTGlyph name="AE.sc" xMin="5" yMin="0" xMax="780" yMax="577">
      <contour>
        <pt x="5" y="7" on="1"/>
        <pt x="251" y="577" on="1"/>
        <pt x="769" y="577" on="1"/>
        <pt x="769" y="478" on="1"/>
        <pt x="500" y="478" on="1"/>
        <pt x="508" y="336" on="1"/>
        <pt x="752" y="336" on="1"/>
        <pt x="752" y="245" on="1"/>
        <pt x="517" y="245" on="1"/>
        <pt x="527" y="99" on="1"/>
        <pt x="780" y="99" on="1"/>
        <pt x="780" y="0" on="1"/>
        <pt x="400" y="0" on="1"/>
        <pt x="394" y="138" on="1"/>
        <pt x="192" y="138" on="1"/>
        <pt x="132" y="0" on="1"/>
        <pt x="5" y="0" on="1"/>
      </contour>
      <contour>
        <pt x="231" y="228" on="1"/>
        <pt x="389" y="228" on="1"/>
        <pt x="378" y="485" on="1"/>
        <pt x="343" y="485" on="1"/>
      </contour>
    </TTGlyph>
    <TTGlyph name="AEacute" xMin="0" yMin="0" xMax="857" yMax="963">
      <contour>
        <pt x="459" y="804" on="1"/>
        <pt x="529" y="963" on="1"/>
        <pt x="665" y="963" on="1"/>
        <pt x="556" y="797" on="1"/>
      </contour>
      <contour>
        <pt x="0" y="8" on="1"/>
        <pt x="275" y="740" on="1"/>
        <pt x="845" y="740" on="1"/>
        <pt x="845" y="631" on="1"/>
        <pt x="542" y="631" on="1"/>
        <pt x="553" y="427" on="1"/>
        <pt x="826" y="427" on="1"/>
        <pt x="826" y="318" on="1"/>
        <pt x="560" y="318" on="1"/>
        <pt x="572" y="109" on="1"/>
        <pt x="857" y="109" on="1"/>
        <pt x="857" y="0" on="1"/>
        <pt x="439" y="0" on="1"/>
        <pt x="431" y="193" on="1"/>
        <pt x="205" y="193" on="1"/>
        <pt x="133" y="0" on="1"/>
        <pt x="0" y="0" on="1"/>
      </contour>
      <contour>
        <pt x="248" y="306" on="1"/>
        <pt x="426" y="306" on="1"/>
        <pt x="413" y="640" on="1"/>
        <pt x="373" y="640" on="1"/>
      </contour>
    </TTGlyph>
    <TTGlyph name="AEacute.sc" xMin="5" yMin="0" xMax="780" yMax="762">
      <contour>
        <pt x="5" y="7" on="1"/>
        <pt x="251" y="577" on="1"/>
        <pt x="769" y="577" on="1"/>
        <pt x="769" y="478" on="1"/>
        <pt x="500" y="478" on="1"/>
        <pt x="508" y="336" on="1"/>
        <pt x="752" y="336" on="1"/>
        <pt x="752" y="245" on="1"/>
        <pt x="517" y="245" on="1"/>
        <pt x="527" y="99" on="1"/>
        <pt x="780" y="99" on="1"/>
        <pt x="780" y="0" on="1"/>
        <pt x="400" y="0" on="1"/>
        <pt x="394" y="138" on="1"/>
        <pt x="192" y="138" on="1"/>
        <pt x="132" y="0" on="1"/>
        <pt x="5" y="0" on="1"/>
      </contour>
      <contour>
        <pt x="389" y="228" on="1"/>
        <pt x="378" y="485" on="1"/>
        <pt x="343" y="485" on="1"/>
        <pt x="231" y="228" on="1"/>
      </contour>
      <contour>
        <pt x="413" y="629" on="1"/>
        <pt x="474" y="762" on="1"/>
        <pt x="603" y="762" on="1"/>
        <pt x="505" y="623" on="1"/>
      </contour>
    </TTGlyph>
    <TTGlyph name="Aacute" xMin="2" yMin="0" xMax="672" yMax="963">
      <contour>
        <pt x="2" y="8" on="1"/>
        <pt x="237" y="740" on="1"/>
        <pt x="438" y="740" on="1"/>
        <pt x="672" y="8" on="1"/>
        <pt x="672" y="0" on="1"/>
        <pt x="543" y="0" on="1"/>
        <pt x="479" y="196" on="1"/>
        <pt x="195" y="196" on="1"/>
        <pt x="132" y="0" on="1"/>
        <pt x="2" y="0" on="1"/>
      </contour>
      <contour>
        <pt x="449" y="303" on="1"/>
        <pt x="382" y="513" on="1"/>
        <pt x="343" y="642" on="1"/>
        <pt x="331" y="642" on="1"/>
        <pt x="292" y="512" on="1"/>
        <pt x="226" y="303" on="1"/>
      </contour>
      <contour>
        <pt x="284" y="804" on="1"/>
        <pt x="354" y="963" on="1"/>
        <pt x="490" y="963" on="1"/>
        <pt x="381" y="797" on="1"/>
      </contour>
    </TTGlyph>
    <TTGlyph name="Aacute.sc" xMin="6" yMin="0" xMax="611" yMax="762">
      <contour>
        <pt x="6" y="7" on="1"/>
        <pt x="213" y="577" on="1"/>
        <pt x="404" y="577" on="1"/>
        <pt x="611" y="7" on="1"/>
        <pt x="611" y="0" on="1"/>
        <pt x="487" y="0" on="1"/>
        <pt x="434" y="138" on="1"/>
        <pt x="182" y="138" on="1"/>
        <pt x="130" y="0" on="1"/>
        <pt x="6" y="0" on="1"/>
      </contour>
      <contour>
        <pt x="409" y="229" on="1"/>
        <pt x="348" y="392" on="1"/>
        <pt x="314" y="486" on="1"/>
        <pt x="303" y="486" on="1"/>
        <pt x="269" y="391" on="1"/>
        <pt x="208" y="229" on="1"/>
      </contour>
      <contour>
        <pt x="258" y="629" on="1"/>
        <pt x="319" y="762" on="1"/>
        <pt x="448" y="762" on="1"/>
        <pt x="351" y="623" on="1"/>
      </contour>
    </TTGlyph>
    <TTGlyph name="Abreve" xMin="2" yMin="0" xMax="672" yMax="972">
      <contour>
        <pt x="2" y="8" on="1"/>
        <pt x="237" y="740" on="1"/>
        <pt x="438" y="740" on="1"/>
        <pt x="672" y="8" on="1"/>
        <pt x="672" y="0" on="1"/>
        <pt x="543" y="0" on="1"/>
        <pt x="479" y="196" on="1"/>
        <pt x="195" y="196" on="1"/>
        <pt x="132" y="0" on="1"/>
        <pt x="2" y="0" on="1"/>
      </contour>
      <contour>
        <pt x="449" y="303" on="1"/>
        <pt x="382" y="513" on="1"/>
        <pt x="343" y="642" on="1"/>
        <pt x="331" y="642" on="1"/>
        <pt x="292" y="512" on="1"/>
        <pt x="226" y="303" on="1"/>
      </contour>
      <contour>
        <pt x="338" y="807" on="1"/>
        <pt x="240" y="807" on="0"/>
        <pt x="148" y="898" on="0"/>
        <pt x="148" y="972" on="1"/>
        <pt x="240" y="972" on="1"/>
        <pt x="240" y="924" on="0"/>
        <pt x="285" y="876" on="0"/>
        <pt x="338" y="876" on="1"/>
        <pt x="391" y="876" on="0"/>
        <pt x="436" y="924" on="0"/>
        <pt x="436" y="972" on="1"/>
        <pt x="529" y="972" on="1"/>
        <pt x="529" y="897" on="0"/>
        <pt x="436" y="807" on="0"/>
      </contour>
    </TTGlyph>
    <TTGlyph name="Abreve.sc" xMin="6" yMin="0" xMax="611" yMax="764">
      <contour>
        <pt x="309" y="628" on="1"/>
        <pt x="218" y="628" on="0"/>
        <pt x="135" y="704" on="0"/>
        <pt x="135" y="764" on="1"/>
        <pt x="222" y="764" on="1"/>
        <pt x="222" y="726" on="0"/>
        <pt x="261" y="690" on="0"/>
        <pt x="309" y="690" on="1"/>
        <pt x="356" y="690" on="0"/>
        <pt x="396" y="726" on="0"/>
        <pt x="396" y="764" on="1"/>
        <pt x="482" y="764" on="1"/>
        <pt x="482" y="703" on="0"/>
        <pt x="400" y="628" on="0"/>
      </contour>
      <contour>
        <pt x="6" y="7" on="1"/>
        <pt x="213" y="577" on="1"/>
        <pt x="404" y="577" on="1"/>
        <pt x="611" y="7" on="1"/>
        <pt x="611" y="0" on="1"/>
        <pt x="487" y="0" on="1"/>
        <pt x="434" y="138" on="1"/>
        <pt x="182" y="138" on="1"/>
        <pt x="130" y="0" on="1"/>
        <pt x="6" y="0" on="1"/>
      </contour>
      <contour>
        <pt x="409" y="229" on="1"/>
        <pt x="348" y="392" on="1"/>
        <pt x="314" y="486" on="1"/>
        <pt x="303" y="486" on="1"/>
        <pt x="269" y="391" on="1"/>
        <pt x="208" y="229" on="1"/>
      </contour>
    </TTGlyph>
    <TTGlyph name="Acircumflex" xMin="2" yMin="0" xMax="672" yMax="972">
      <contour>
        <pt x="2" y="8" on="1"/>
        <pt x="237" y="740" on="1"/>
        <pt x="438" y="740" on="1"/>
        <pt x="672" y="8" on="1"/>
        <pt x="672" y="0" on="1"/>
        <pt x="543" y="0" on="1"/>
        <pt x="479" y="196" on="1"/>
        <pt x="195" y="196" on="1"/>
        <pt x="132" y="0" on="1"/>
        <pt x="2" y="0" on="1"/>
      </contour>
      <contour>
        <pt x="449" y="303" on="1"/>
        <pt x="382" y="513" on="1"/>
        <pt x="343" y="642" on="1"/>
        <pt x="331" y="642" on="1"/>
        <pt x="292" y="512" on="1"/>
        <pt x="226" y="303" on="1"/>
      </contour>
      <contour>
        <pt x="165" y="898" on="1"/>
        <pt x="338" y="972" on="1"/>
        <pt x="512" y="898" on="1"/>
        <pt x="512" y="804" on="1"/>
        <pt x="339" y="878" on="1"/>
        <pt x="165" y="804" on="1"/>
      </contour>
    </TTGlyph>
    <TTGlyph name="Acircumflex.sc" xMin="6" yMin="0" xMax="611" yMax="768">
      <contour>
        <pt x="6" y="7" on="1"/>
        <pt x="213" y="577" on="1"/>
        <pt x="404" y="577" on="1"/>
        <pt x="611" y="7" on="1"/>
        <pt x="611" y="0" on="1"/>
        <pt x="487" y="0" on="1"/>
        <pt x="434" y="138" on="1"/>
        <pt x="182" y="138" on="1"/>
        <pt x="130" y="0" on="1"/>
        <pt x="6" y="0" on="1"/>
      </contour>
      <contour>
        <pt x="409" y="229" on="1"/>
        <pt x="348" y="392" on="1"/>
        <pt x="314" y="486" on="1"/>
        <pt x="303" y="486" on="1"/>
        <pt x="269" y="391" on="1"/>
        <pt x="208" y="229" on="1"/>
      </contour>
      <contour>
        <pt x="152" y="709" on="1"/>
        <pt x="309" y="768" on="1"/>
        <pt x="468" y="709" on="1"/>
        <pt x="468" y="624" on="1"/>
        <pt x="310" y="683" on="1"/>
        <pt x="152" y="624" on="1"/>
      </contour>
    </TTGlyph>
    <TTGlyph name="Adblgrave" xMin="2" yMin="0" xMax="672" yMax="961">
      <contour>
        <pt x="2" y="8" on="1"/>
        <pt x="237" y="740" on="1"/>
        <pt x="438" y="740" on="1"/>
        <pt x="672" y="8" on="1"/>
        <pt x="672" y="0" on="1"/>
        <pt x="543" y="0" on="1"/>
        <pt x="479" y="196" on="1"/>
        <pt x="195" y="196" on="1"/>
        <pt x="132" y="0" on="1"/>
        <pt x="2" y="0" on="1"/>
      </contour>
      <contour>
        <pt x="449" y="303" on="1"/>
        <pt x="382" y="513" on="1"/>
        <pt x="343" y="642" on="1"/>
        <pt x="331" y="642" on="1"/>
        <pt x="292" y="512" on="1"/>
        <pt x="226" y="303" on="1"/>
      </contour>
      <contour>
        <pt x="203" y="794" on="1"/>
        <pt x="94" y="961" on="1"/>
        <pt x="219" y="961" on="1"/>
        <pt x="289" y="806" on="1"/>
      </contour>
      <contour>
        <pt x="385" y="794" on="1"/>
        <pt x="276" y="961" on="1"/>
        <pt x="400" y="961" on="1"/>
        <pt x="470" y="806" on="1"/>
      </contour>
    </TTGlyph>
    <TTGlyph name="Adblgrave.sc" xMin="6" yMin="0" xMax="611" yMax="761">
      <contour>
        <pt x="6" y="7" on="1"/>
        <pt x="213" y="577" on="1"/>
        <pt x="404" y="577" on="1"/>
        <pt x="611" y="7" on="1"/>
        <pt x="611" y="0" on="1"/>
        <pt x="487" y="0" on="1"/>
        <pt x="434" y="138" on="1"/>
        <pt x="182" y="138" on="1"/>
        <pt x="130" y="0" on="1"/>
        <pt x="6" y="0" on="1"/>
      </contour>
      <contour>
        <pt x="409" y="229" on="1"/>
        <pt x="348" y="392" on="1"/>
        <pt x="314" y="486" on="1"/>
        <pt x="303" y="486" on="1"/>
        <pt x="269" y="391" on="1"/>
        <pt x="208" y="229" on="1"/>
      </contour>
      <contour>
        <pt x="85" y="761" on="1"/>
        <pt x="204" y="761" on="1"/>
        <pt x="265" y="630" on="1"/>
        <pt x="183" y="621" on="1"/>
      </contour>
      <contour>
        <pt x="251" y="761" on="1"/>
        <pt x="370" y="761" on="1"/>
        <pt x="430" y="630" on="1"/>
        <pt x="349" y="621" on="1"/>
      </contour>
    </TTGlyph>
    <TTGlyph name="Adieresis" xMin="2" yMin="0" xMax="672" yMax="957">
      <contour>
        <pt x="2" y="8" on="1"/>
        <pt x="237" y="740" on="1"/>
        <pt x="438" y="740" on="1"/>
        <pt x="672" y="8" on="1"/>
        <pt x="672" y="0" on="1"/>
        <pt x="543" y="0" on="1"/>
        <pt x="479" y="196" on="1"/>
        <pt x="195" y="196" on="1"/>
        <pt x="132" y="0" on="1"/>
        <pt x="2" y="0" on="1"/>
      </contour>
      <contour>
        <pt x="449" y="303" on="1"/>
        <pt x="382" y="513" on="1"/>
        <pt x="343" y="642" on="1"/>
        <pt x="331" y="642" on="1"/>
        <pt x="292" y="512" on="1"/>
        <pt x="226" y="303" on="1"/>
      </contour>
      <contour>
        <pt x="208" y="808" on="1"/>
        <pt x="169" y="808" on="0"/>
        <pt x="132" y="844" on="0"/>
        <pt x="132" y="883" on="1"/>
        <pt x="132" y="922" on="0"/>
        <pt x="169" y="957" on="0"/>
        <pt x="208" y="957" on="1"/>
        <pt x="284" y="957" on="0"/>
        <pt x="284" y="883" on="1"/>
        <pt x="284" y="844" on="0"/>
        <pt x="247" y="808" on="0"/>
      </contour>
      <contour>
        <pt x="467" y="808" on="1"/>
        <pt x="427" y="808" on="0"/>
        <pt x="391" y="844" on="0"/>
        <pt x="391" y="883" on="1"/>
        <pt x="391" y="922" on="0"/>
        <pt x="427" y="957" on="0"/>
        <pt x="467" y="957" on="1"/>
        <pt x="543" y="957" on="0"/>
        <pt x="543" y="883" on="1"/>
        <pt x="543" y="844" on="0"/>
        <pt x="506" y="808" on="0"/>
      </contour>
    </TTGlyph>
    <TTGlyph name="Adieresis.sc" xMin="6" yMin="0" xMax="611" yMax="764">
      <contour>
        <pt x="191" y="628" on="1"/>
        <pt x="154" y="628" on="0"/>
        <pt x="121" y="660" on="0"/>
        <pt x="121" y="696" on="1"/>
        <pt x="121" y="731" on="0"/>
        <pt x="154" y="764" on="0"/>
        <pt x="191" y="764" on="1"/>
        <pt x="229" y="764" on="0"/>
        <pt x="263" y="731" on="0"/>
        <pt x="263" y="696" on="1"/>
        <pt x="263" y="661" on="0"/>
        <pt x="229" y="628" on="0"/>
      </contour>
      <contour>
        <pt x="426" y="628" on="1"/>
        <pt x="388" y="628" on="0"/>
        <pt x="355" y="660" on="0"/>
        <pt x="355" y="696" on="1"/>
        <pt x="355" y="731" on="0"/>
        <pt x="388" y="764" on="0"/>
        <pt x="426" y="764" on="1"/>
        <pt x="497" y="764" on="0"/>
        <pt x="497" y="696" on="1"/>
        <pt x="497" y="628" on="0"/>
      </contour>
      <contour>
        <pt x="6" y="7" on="1"/>
        <pt x="213" y="577" on="1"/>
        <pt x="404" y="577" on="1"/>
        <pt x="611" y="7" on="1"/>
        <pt x="611" y="0" on="1"/>
        <pt x="487" y="0" on="1"/>
        <pt x="434" y="138" on="1"/>
        <pt x="182" y="138" on="1"/>
        <pt x="130" y="0" on="1"/>
        <pt x="6" y="0" on="1"/>
      </contour>
      <contour>
        <pt x="409" y="229" on="1"/>
        <pt x="348" y="392" on="1"/>
        <pt x="314" y="486" on="1"/>
        <pt x="303" y="486" on="1"/>
        <pt x="269" y="391" on="1"/>
        <pt x="208" y="229" on="1"/>
      </contour>
    </TTGlyph>
    <TTGlyph name="Agrave" xMin="2" yMin="0" xMax="672" yMax="963">
      <contour>
        <pt x="2" y="8" on="1"/>
        <pt x="237" y="740" on="1"/>
        <pt x="438" y="740" on="1"/>
        <pt x="672" y="8" on="1"/>
        <pt x="672" y="0" on="1"/>
        <pt x="543" y="0" on="1"/>
        <pt x="479" y="196" on="1"/>
        <pt x="195" y="196" on="1"/>
        <pt x="132" y="0" on="1"/>
        <pt x="2" y="0" on="1"/>
      </contour>
      <contour>
        <pt x="449" y="303" on="1"/>
        <pt x="382" y="513" on="1"/>
        <pt x="343" y="642" on="1"/>
        <pt x="331" y="642" on="1"/>
        <pt x="292" y="512" on="1"/>
        <pt x="226" y="303" on="1"/>
      </contour>
      <contour>
        <pt x="282" y="797" on="1"/>
        <pt x="174" y="963" on="1"/>
        <pt x="310" y="963" on="1"/>
        <pt x="380" y="809" on="1"/>
      </contour>
    </TTGlyph>
    <TTGlyph name="Agrave.sc" xMin="6" yMin="0" xMax="611" yMax="762">
      <contour>
        <pt x="6" y="7" on="1"/>
        <pt x="213" y="577" on="1"/>
        <pt x="404" y="577" on="1"/>
        <pt x="611" y="7" on="1"/>
        <pt x="611" y="0" on="1"/>
        <pt x="487" y="0" on="1"/>
        <pt x="434" y="138" on="1"/>
        <pt x="182" y="138" on="1"/>
        <pt x="130" y="0" on="1"/>
        <pt x="6" y="0" on="1"/>
      </contour>
      <contour>
        <pt x="409" y="229" on="1"/>
        <pt x="348" y="392" on="1"/>
        <pt x="314" y="486" on="1"/>
        <pt x="303" y="486" on="1"/>
        <pt x="269" y="391" on="1"/>
        <pt x="208" y="229" on="1"/>
      </contour>
      <contour>
        <pt x="256" y="623" on="1"/>
        <pt x="158" y="762" on="1"/>
        <pt x="287" y="762" on="1"/>
        <pt x="348" y="632" on="1"/>
      </contour>
    </TTGlyph>
    <TTGlyph name="Ainvertedbreve" xMin="2" yMin="0" xMax="672" yMax="979">
      <contour>
        <pt x="2" y="8" on="1"/>
        <pt x="237" y="740" on="1"/>
        <pt x="438" y="740" on="1"/>
        <pt x="672" y="8" on="1"/>
        <pt x="672" y="0" on="1"/>
        <pt x="543" y="0" on="1"/>
        <pt x="479" y="196" on="1"/>
        <pt x="195" y="196" on="1"/>
        <pt x="132" y="0" on="1"/>
        <pt x="2" y="0" on="1"/>
      </contour>
      <contour>
        <pt x="449" y="303" on="1"/>
        <pt x="382" y="513" on="1"/>
        <pt x="343" y="642" on="1"/>
        <pt x="331" y="642" on="1"/>
        <pt x="292" y="512" on="1"/>
        <pt x="226" y="303" on="1"/>
      </contour>
      <contour>
        <pt x="436" y="815" on="1"/>
        <pt x="436" y="863" on="0"/>
        <pt x="390" y="911" on="0"/>
        <pt x="338" y="911" on="1"/>
        <pt x="285" y="911" on="0"/>
        <pt x="239" y="863" on="0"/>
        <pt x="239" y="815" on="1"/>
        <pt x="148" y="815" on="1"/>
        <pt x="148" y="852" on="0"/>
        <pt x="171" y="912" on="0"/>
        <pt x="217" y="955" on="0"/>
        <pt x="289" y="979" on="0"/>
        <pt x="338" y="979" on="1"/>
        <pt x="436" y="979" on="0"/>
        <pt x="529" y="890" on="0"/>
        <pt x="529" y="815" on="1"/>
      </contour>
    </TTGlyph>
    <TTGlyph name="Ainvertedbreve.sc" xMin="6" yMin="0" xMax="611" yMax="771">
      <contour>
        <pt x="136" y="635" on="1"/>
        <pt x="136" y="695" on="0"/>
        <pt x="218" y="771" on="0"/>
        <pt x="309" y="771" on="1"/>
        <pt x="400" y="771" on="0"/>
        <pt x="483" y="696" on="0"/>
        <pt x="483" y="635" on="1"/>
        <pt x="396" y="635" on="1"/>
        <pt x="396" y="673" on="0"/>
        <pt x="357" y="709" on="0"/>
        <pt x="309" y="709" on="1"/>
        <pt x="262" y="709" on="0"/>
        <pt x="223" y="673" on="0"/>
        <pt x="223" y="635" on="1"/>
      </contour>
      <contour>
        <pt x="6" y="7" on="1"/>
        <pt x="213" y="577" on="1"/>
        <pt x="404" y="577" on="1"/>
        <pt x="611" y="7" on="1"/>
        <pt x="611" y="0" on="1"/>
        <pt x="487" y="0" on="1"/>
        <pt x="434" y="138" on="1"/>
        <pt x="182" y="138" on="1"/>
        <pt x="130" y="0" on="1"/>
        <pt x="6" y="0" on="1"/>
      </contour>
      <contour>
        <pt x="409" y="229" on="1"/>
        <pt x="348" y="392" on="1"/>
        <pt x="314" y="486" on="1"/>
        <pt x="303" y="486" on="1"/>
        <pt x="269" y="391" on="1"/>
        <pt x="208" y="229" on="1"/>
      </contour>
    </TTGlyph>
    <TTGlyph name="Amacron" xMin="2" yMin="0" xMax="672" yMax="931">
      <contour>
        <pt x="2" y="8" on="1"/>
        <pt x="237" y="740" on="1"/>
        <pt x="438" y="740" on="1"/>
        <pt x="672" y="8" on="1"/>
        <pt x="672" y="0" on="1"/>
        <pt x="543" y="0" on="1"/>
        <pt x="479" y="196" on="1"/>
        <pt x="195" y="196" on="1"/>
        <pt x="132" y="0" on="1"/>
        <pt x="2" y="0" on="1"/>
      </contour>
      <contour>
        <pt x="449" y="303" on="1"/>
        <pt x="382" y="513" on="1"/>
        <pt x="343" y="642" on="1"/>
        <pt x="331" y="642" on="1"/>
        <pt x="292" y="512" on="1"/>
        <pt x="226" y="303" on="1"/>
      </contour>
      <contour>
        <pt x="167" y="931" on="1"/>
        <pt x="504" y="931" on="1"/>
        <pt x="504" y="840" on="1"/>
        <pt x="167" y="840" on="1"/>
      </contour>
    </TTGlyph>
    <TTGlyph name="Amacron.sc" xMin="6" yMin="0" xMax="611" yMax="739">
      <contour>
        <pt x="6" y="7" on="1"/>
        <pt x="213" y="577" on="1"/>
        <pt x="404" y="577" on="1"/>
        <pt x="611" y="7" on="1"/>
        <pt x="611" y="0" on="1"/>
        <pt x="487" y="0" on="1"/>
        <pt x="434" y="138" on="1"/>
        <pt x="182" y="138" on="1"/>
        <pt x="130" y="0" on="1"/>
        <pt x="6" y="0" on="1"/>
      </contour>
      <contour>
        <pt x="409" y="229" on="1"/>
        <pt x="348" y="392" on="1"/>
        <pt x="314" y="486" on="1"/>
        <pt x="303" y="486" on="1"/>
        <pt x="269" y="391" on="1"/>
        <pt x="208" y="229" on="1"/>
      </contour>
      <contour>
        <pt x="153" y="739" on="1"/>
        <pt x="462" y="739" on="1"/>
        <pt x="462" y="655" on="1"/>
        <pt x="153" y="655" on="1"/>
      </contour>
    </TTGlyph>
    <TTGlyph name="Aogonek" xMin="2" yMin="-220" xMax="673" yMax="740">
      <contour>
        <pt x="594" y="-220" on="1"/>
        <pt x="472" y="-220" on="0"/>
        <pt x="472" y="-129" on="1"/>
        <pt x="472" y="-93" on="0"/>
        <pt x="516" y="-30" on="0"/>
        <pt x="564" y="0" on="1"/>
        <pt x="543" y="0" on="1"/>
        <pt x="479" y="196" on="1"/>
        <pt x="195" y="196" on="1"/>
        <pt x="132" y="0" on="1"/>
        <pt x="2" y="0" on="1"/>
        <pt x="2" y="8" on="1"/>
        <pt x="237" y="740" on="1"/>
        <pt x="438" y="740" on="1"/>
        <pt x="672" y="8" on="1"/>
        <pt x="672" y="-12" on="1"/>
        <pt x="612" y="-38" on="0"/>
        <pt x="560" y="-90" on="0"/>
        <pt x="560" y="-114" on="1"/>
        <pt x="560" y="-144" on="0"/>
        <pt x="599" y="-144" on="1"/>
        <pt x="614" y="-144" on="0"/>
        <pt x="655" y="-137" on="0"/>
        <pt x="673" y="-131" on="1"/>
        <pt x="673" y="-208" on="1"/>
        <pt x="635" y="-220" on="0"/>
      </contour>
      <contour>
        <pt x="449" y="303" on="1"/>
        <pt x="382" y="513" on="1"/>
        <pt x="343" y="642" on="1"/>
        <pt x="331" y="642" on="1"/>
        <pt x="292" y="512" on="1"/>
        <pt x="226" y="303" on="1"/>
      </contour>
    </TTGlyph>
    <TTGlyph name="Aogonek.sc" xMin="5" yMin="-169" xMax="611" yMax="577">
      <contour>
        <pt x="538" y="-169" on="1"/>
        <pt x="484" y="-169" on="0"/>
        <pt x="427" y="-131" on="0"/>
        <pt x="427" y="-96" on="1"/>
        <pt x="427" y="-41" on="0"/>
        <pt x="500" y="0" on="1"/>
        <pt x="486" y="0" on="1"/>
        <pt x="434" y="138" on="1"/>
        <pt x="182" y="138" on="1"/>
        <pt x="129" y="0" on="1"/>
        <pt x="5" y="0" on="1"/>
        <pt x="5" y="7" on="1"/>
        <pt x="213" y="577" on="1"/>
        <pt x="404" y="577" on="1"/>
        <pt x="610" y="7" on="1"/>
        <pt x="610" y="-7" on="1"/>
        <pt x="581" y="-18" on="0"/>
        <pt x="542" y="-37" on="0"/>
        <pt x="519" y="-55" on="0"/>
        <pt x="510" y="-71" on="0"/>
        <pt x="510" y="-79" on="1"/>
        <pt x="510" y="-99" on="0"/>
        <pt x="543" y="-99" on="1"/>
        <pt x="557" y="-99" on="0"/>
        <pt x="597" y="-94" on="0"/>
        <pt x="611" y="-89" on="1"/>
        <pt x="611" y="-160" on="1"/>
        <pt x="575" y="-169" on="0"/>
      </contour>
      <contour>
        <pt x="407" y="229" on="1"/>
        <pt x="348" y="395" on="1"/>
        <pt x="313" y="486" on="1"/>
        <pt x="302" y="486" on="1"/>
        <pt x="268" y="394" on="1"/>
        <pt x="206" y="229" on="1"/>
      </contour>
    </TTGlyph>
    <TTGlyph name="Aring" xMin="2" yMin="0" xMax="672" yMax="988">
      <contour>
        <pt x="2" y="8" on="1"/>
        <pt x="237" y="740" on="1"/>
        <pt x="438" y="740" on="1"/>
        <pt x="672" y="8" on="1"/>
        <pt x="672" y="0" on="1"/>
        <pt x="543" y="0" on="1"/>
        <pt x="479" y="196" on="1"/>
        <pt x="195" y="196" on="1"/>
        <pt x="132" y="0" on="1"/>
        <pt x="2" y="0" on="1"/>
      </contour>
      <contour>
        <pt x="449" y="303" on="1"/>
        <pt x="382" y="513" on="1"/>
        <pt x="343" y="642" on="1"/>
        <pt x="331" y="642" on="1"/>
        <pt x="292" y="512" on="1"/>
        <pt x="226" y="303" on="1"/>
      </contour>
      <contour>
        <pt x="338" y="766" on="1"/>
        <pt x="284" y="766" on="0"/>
        <pt x="216" y="828" on="0"/>
        <pt x="216" y="876" on="1"/>
        <pt x="216" y="925" on="0"/>
        <pt x="284" y="988" on="0"/>
        <pt x="338" y="988" on="1"/>
        <pt x="392" y="988" on="0"/>
        <pt x="459" y="925" on="0"/>
        <pt x="459" y="876" on="1"/>
        <pt x="459" y="828" on="0"/>
        <pt x="392" y="766" on="0"/>
      </contour>
      <contour>
        <pt x="338" y="818" on="1"/>
        <pt x="371" y="818" on="0"/>
        <pt x="401" y="848" on="0"/>
        <pt x="401" y="876" on="1"/>
        <pt x="401" y="905" on="0"/>
        <pt x="371" y="936" on="0"/>
        <pt x="338" y="936" on="1"/>
        <pt x="304" y="936" on="0"/>
        <pt x="274" y="905" on="0"/>
        <pt x="274" y="876" on="1"/>
        <pt x="274" y="848" on="0"/>
        <pt x="304" y="818" on="0"/>
      </contour>
    </TTGlyph>
    <TTGlyph name="Aring.sc" xMin="6" yMin="0" xMax="611" yMax="791">
      <contour>
        <pt x="6" y="7" on="1"/>
        <pt x="213" y="577" on="1"/>
        <pt x="404" y="577" on="1"/>
        <pt x="611" y="7" on="1"/>
        <pt x="611" y="0" on="1"/>
        <pt x="487" y="0" on="1"/>
        <pt x="434" y="138" on="1"/>
        <pt x="182" y="138" on="1"/>
        <pt x="130" y="0" on="1"/>
        <pt x="6" y="0" on="1"/>
      </contour>
      <contour>
        <pt x="408" y="229" on="1"/>
        <pt x="348" y="392" on="1"/>
        <pt x="314" y="486" on="1"/>
        <pt x="303" y="486" on="1"/>
        <pt x="269" y="391" on="1"/>
        <pt x="207" y="229" on="1"/>
      </contour>
      <contour>
        <pt x="309" y="614" on="1"/>
        <pt x="261" y="614" on="0"/>
        <pt x="199" y="663" on="0"/>
        <pt x="199" y="701" on="1"/>
        <pt x="199" y="740" on="0"/>
        <pt x="261" y="791" on="0"/>
        <pt x="309" y="791" on="1"/>
        <pt x="357" y="791" on="0"/>
        <pt x="418" y="740" on="0"/>
        <pt x="418" y="701" on="1"/>
        <pt x="418" y="663" on="0"/>
        <pt x="357" y="614" on="0"/>
      </contour>
      <contour>
        <pt x="309" y="658" on="1"/>
        <pt x="338" y="658" on="0"/>
        <pt x="364" y="680" on="0"/>
        <pt x="364" y="701" on="1"/>
        <pt x="364" y="724" on="0"/>
        <pt x="338" y="746" on="0"/>
        <pt x="309" y="746" on="1"/>
        <pt x="279" y="746" on="0"/>
        <pt x="253" y="724" on="0"/>
        <pt x="253" y="701" on="1"/>
        <pt x="253" y="680" on="0"/>
        <pt x="279" y="658" on="0"/>
      </contour>
    </TTGlyph>
    <TTGlyph name="Aringacute" xMin="3" yMin="0" xMax="672" yMax="988">
      <contour>
        <pt x="3" y="8" on="1"/>
        <pt x="216" y="666" on="1"/>
        <pt x="182" y="698" on="0"/>
        <pt x="182" y="750" on="1"/>
        <pt x="182" y="800" on="0"/>
        <pt x="245" y="869" on="0"/>
        <pt x="299" y="878" on="1"/>
        <pt x="351" y="988" on="1"/>
        <pt x="488" y="988" on="1"/>
        <pt x="409" y="868" on="1"/>
        <pt x="448" y="853" on="0"/>
        <pt x="493" y="791" on="0"/>
        <pt x="493" y="750" on="1"/>
        <pt x="493" y="698" on="0"/>
        <pt x="458" y="666" on="1"/>
        <pt x="672" y="8" on="1"/>
        <pt x="672" y="0" on="1"/>
        <pt x="543" y="0" on="1"/>
        <pt x="480" y="193" on="1"/>
        <pt x="194" y="193" on="1"/>
        <pt x="132" y="0" on="1"/>
        <pt x="3" y="0" on="1"/>
      </contour>
      <contour>
        <pt x="337" y="685" on="1"/>
        <pt x="371" y="685" on="0"/>
        <pt x="412" y="721" on="0"/>
        <pt x="412" y="750" on="1"/>
        <pt x="412" y="779" on="0"/>
        <pt x="371" y="814" on="0"/>
        <pt x="337" y="814" on="1"/>
        <pt x="302" y="814" on="0"/>
        <pt x="263" y="779" on="0"/>
        <pt x="263" y="750" on="1"/>
        <pt x="263" y="721" on="0"/>
        <pt x="303" y="685" on="0"/>
      </contour>
      <contour>
        <pt x="448" y="306" on="1"/>
        <pt x="383" y="513" on="1"/>
        <pt x="354" y="611" on="1"/>
        <pt x="321" y="611" on="1"/>
        <pt x="292" y="512" on="1"/>
        <pt x="226" y="306" on="1"/>
      </contour>
    </TTGlyph>
    <TTGlyph name="Aringacute.sc" xMin="6" yMin="0" xMax="611" yMax="783">
      <contour>
        <pt x="6" y="7" on="1"/>
        <pt x="195" y="524" on="1"/>
        <pt x="166" y="550" on="0"/>
        <pt x="166" y="588" on="1"/>
        <pt x="166" y="630" on="0"/>
        <pt x="222" y="686" on="0"/>
        <pt x="272" y="694" on="1"/>
        <pt x="317" y="783" on="1"/>
        <pt x="446" y="783" on="1"/>
        <pt x="376" y="684" on="1"/>
        <pt x="411" y="671" on="0"/>
        <pt x="452" y="621" on="0"/>
        <pt x="452" y="588" on="1"/>
        <pt x="452" y="549" on="0"/>
        <pt x="421" y="523" on="1"/>
        <pt x="611" y="7" on="1"/>
        <pt x="611" y="0" on="1"/>
        <pt x="487" y="0" on="1"/>
        <pt x="434" y="138" on="1"/>
        <pt x="182" y="138" on="1"/>
        <pt x="129" y="0" on="1"/>
        <pt x="6" y="0" on="1"/>
      </contour>
      <contour>
        <pt x="308" y="539" on="1"/>
        <pt x="339" y="539" on="0"/>
        <pt x="375" y="566" on="0"/>
        <pt x="375" y="588" on="1"/>
        <pt x="375" y="611" on="0"/>
        <pt x="339" y="637" on="0"/>
        <pt x="308" y="637" on="1"/>
        <pt x="277" y="637" on="0"/>
        <pt x="242" y="611" on="0"/>
        <pt x="242" y="588" on="1"/>
        <pt x="242" y="566" on="0"/>
        <pt x="278" y="539" on="0"/>
      </contour>
      <contour>
        <pt x="409" y="229" on="1"/>
        <pt x="348" y="392" on="1"/>
        <pt x="322" y="471" on="1"/>
        <pt x="294" y="471" on="1"/>
        <pt x="269" y="391" on="1"/>
        <pt x="208" y="229" on="1"/>
      </contour>
    </TTGlyph>
    <TTGlyph name="Atilde" xMin="2" yMin="0" xMax="672" yMax="952">
      <contour>
        <pt x="2" y="8" on="1"/>
        <pt x="237" y="740" on="1"/>
        <pt x="438" y="740" on="1"/>
        <pt x="672" y="8" on="1"/>
        <pt x="672" y="0" on="1"/>
        <pt x="543" y="0" on="1"/>
        <pt x="479" y="196" on="1"/>
        <pt x="195" y="196" on="1"/>
        <pt x="132" y="0" on="1"/>
        <pt x="2" y="0" on="1"/>
      </contour>
      <contour>
        <pt x="449" y="303" on="1"/>
        <pt x="382" y="513" on="1"/>
        <pt x="343" y="642" on="1"/>
        <pt x="331" y="642" on="1"/>
        <pt x="292" y="512" on="1"/>
        <pt x="226" y="303" on="1"/>
      </contour>
      <contour>
        <pt x="138" y="852" on="1"/>
        <pt x="167" y="901" on="0"/>
        <pt x="240" y="952" on="0"/>
        <pt x="275" y="952" on="1"/>
        <pt x="298" y="952" on="0"/>
        <pt x="340" y="939" on="0"/>
        <pt x="381" y="924" on="0"/>
        <pt x="423" y="912" on="0"/>
        <pt x="445" y="912" on="1"/>
        <pt x="466" y="912" on="0"/>
        <pt x="506" y="930" on="0"/>
        <pt x="529" y="950" on="1"/>
        <pt x="553" y="924" on="1"/>
        <pt x="526" y="874" on="0"/>
        <pt x="451" y="823" on="0"/>
        <pt x="416" y="823" on="1"/>
        <pt x="394" y="823" on="0"/>
        <pt x="352" y="835" on="0"/>
        <pt x="310" y="850" on="0"/>
        <pt x="268" y="862" on="0"/>
        <pt x="247" y="862" on="1"/>
        <pt x="225" y="862" on="0"/>
        <pt x="185" y="845" on="0"/>
        <pt x="162" y="825" on="1"/>
      </contour>
    </TTGlyph>
    <TTGlyph name="Atilde.sc" xMin="6" yMin="0" xMax="611" yMax="754">
      <contour>
        <pt x="6" y="7" on="1"/>
        <pt x="213" y="577" on="1"/>
        <pt x="404" y="577" on="1"/>
        <pt x="611" y="7" on="1"/>
        <pt x="611" y="0" on="1"/>
        <pt x="487" y="0" on="1"/>
        <pt x="434" y="138" on="1"/>
        <pt x="182" y="138" on="1"/>
        <pt x="130" y="0" on="1"/>
        <pt x="6" y="0" on="1"/>
      </contour>
      <contour>
        <pt x="408" y="229" on="1"/>
        <pt x="348" y="392" on="1"/>
        <pt x="314" y="486" on="1"/>
        <pt x="303" y="486" on="1"/>
        <pt x="269" y="391" on="1"/>
        <pt x="207" y="229" on="1"/>
      </contour>
      <contour>
        <pt x="127" y="665" on="1"/>
        <pt x="153" y="709" on="0"/>
        <pt x="220" y="754" on="0"/>
        <pt x="252" y="754" on="1"/>
        <pt x="273" y="754" on="0"/>
        <pt x="311" y="745" on="0"/>
        <pt x="348" y="733" on="0"/>
        <pt x="386" y="724" on="0"/>
        <pt x="406" y="724" on="1"/>
        <pt x="426" y="724" on="0"/>
        <pt x="462" y="736" on="0"/>
        <pt x="483" y="753" on="1"/>
        <pt x="504" y="731" on="1"/>
        <pt x="478" y="686" on="0"/>
        <pt x="411" y="641" on="0"/>
        <pt x="379" y="641" on="1"/>
        <pt x="359" y="641" on="0"/>
        <pt x="320" y="650" on="0"/>
        <pt x="282" y="662" on="0"/>
        <pt x="243" y="671" on="0"/>
        <pt x="224" y="671" on="1"/>
        <pt x="204" y="671" on="0"/>
        <pt x="168" y="659" on="0"/>
        <pt x="147" y="642" on="1"/>
      </contour>
    </TTGlyph>
    <TTGlyph name="B" xMin="74" yMin="-10" xMax="619" yMax="750">
      <contour>
        <pt x="319" y="-10" on="1"/>
        <pt x="259" y="-10" on="0"/>
        <pt x="135" y="-3" on="0"/>
        <pt x="74" y="5" on="1"/>
        <pt x="74" y="735" on="1"/>
        <pt x="145" y="742" on="0"/>
        <pt x="254" y="750" on="0"/>
        <pt x="306" y="750" on="1"/>
        <pt x="458" y="750" on="0"/>
        <pt x="596" y="652" on="0"/>
        <pt x="596" y="545" on="1"/>
        <pt x="596" y="479" on="0"/>
        <pt x="533" y="395" on="0"/>
        <pt x="474" y="381" on="1"/>
        <pt x="474" y="377" on="1"/>
        <pt x="544" y="364" on="0"/>
        <pt x="619" y="272" on="0"/>
        <pt x="619" y="199" on="1"/>
        <pt x="619" y="-10" on="0"/>
      </contour>
      <contour>
        <pt x="323" y="90" on="1"/>
        <pt x="483" y="90" on="0"/>
        <pt x="483" y="209" on="1"/>
        <pt x="483" y="272" on="0"/>
        <pt x="409" y="327" on="0"/>
        <pt x="324" y="327" on="1"/>
        <pt x="201" y="327" on="1"/>
        <pt x="201" y="97" on="1"/>
        <pt x="232" y="90" on="0"/>
      </contour>
      <contour>
        <pt x="318" y="421" on="1"/>
        <pt x="396" y="421" on="0"/>
        <pt x="460" y="473" on="0"/>
        <pt x="460" y="536" on="1"/>
        <pt x="460" y="597" on="0"/>
        <pt x="393" y="650" on="0"/>
        <pt x="315" y="650" on="1"/>
        <pt x="282" y="650" on="0"/>
        <pt x="227" y="647" on="0"/>
        <pt x="201" y="643" on="1"/>
        <pt x="201" y="421" on="1"/>
      </contour>
    </TTGlyph>
    <TTGlyph name="B.sc" xMin="70" yMin="-8" xMax="563" yMax="585">
      <contour>
        <pt x="294" y="-8" on="1"/>
        <pt x="184" y="-8" on="0"/>
        <pt x="70" y="4" on="1"/>
        <pt x="70" y="573" on="1"/>
        <pt x="134" y="579" on="0"/>
        <pt x="233" y="585" on="0"/>
        <pt x="281" y="585" on="1"/>
        <pt x="418" y="585" on="0"/>
        <pt x="542" y="508" on="0"/>
        <pt x="542" y="423" on="1"/>
        <pt x="542" y="373" on="0"/>
        <pt x="487" y="309" on="0"/>
        <pt x="433" y="298" on="1"/>
        <pt x="433" y="295" on="1"/>
        <pt x="496" y="284" on="0"/>
        <pt x="563" y="214" on="0"/>
        <pt x="563" y="157" on="1"/>
        <pt x="563" y="-8" on="0"/>
      </contour>
      <contour>
        <pt x="299" y="83" on="1"/>
        <pt x="437" y="83" on="0"/>
        <pt x="437" y="168" on="1"/>
        <pt x="437" y="213" on="0"/>
        <pt x="373" y="251" on="0"/>
        <pt x="301" y="251" on="1"/>
        <pt x="191" y="251" on="1"/>
        <pt x="191" y="87" on="1"/>
        <pt x="205" y="85" on="0"/>
        <pt x="255" y="83" on="0"/>
      </contour>
      <contour>
        <pt x="293" y="332" on="1"/>
        <pt x="361" y="332" on="0"/>
        <pt x="416" y="369" on="0"/>
        <pt x="416" y="414" on="1"/>
        <pt x="416" y="458" on="0"/>
        <pt x="358" y="494" on="0"/>
        <pt x="290" y="494" on="1"/>
        <pt x="261" y="494" on="0"/>
        <pt x="213" y="492" on="0"/>
        <pt x="191" y="489" on="1"/>
        <pt x="191" y="332" on="1"/>
      </contour>
    </TTGlyph>
    <TTGlyph name="C" xMin="41" yMin="-10" xMax="532" yMax="750">
      <contour>
        <pt x="381" y="-10" on="1"/>
        <pt x="208" y="-10" on="0"/>
        <pt x="41" y="175" on="0"/>
        <pt x="41" y="369" on="1"/>
        <pt x="41" y="565" on="0"/>
        <pt x="206" y="750" on="0"/>
        <pt x="375" y="750" on="1"/>
        <pt x="442" y="750" on="0"/>
        <pt x="532" y="735" on="1"/>
        <pt x="532" y="626" on="1"/>
        <pt x="487" y="633" on="0"/>
        <pt x="421" y="639" on="0"/>
        <pt x="393" y="639" on="1"/>
        <pt x="334" y="639" on="0"/>
        <pt x="253" y="611" on="0"/>
        <pt x="202" y="548" on="0"/>
        <pt x="179" y="445" on="0"/>
        <pt x="179" y="369" on="1"/>
        <pt x="179" y="295" on="0"/>
        <pt x="202" y="193" on="0"/>
        <pt x="252" y="130" on="0"/>
        <pt x="332" y="102" on="0"/>
        <pt x="388" y="102" on="1"/>
        <pt x="403" y="102" on="0"/>
        <pt x="441" y="104" on="0"/>
        <pt x="480" y="108" on="0"/>
        <pt x="518" y="113" on="0"/>
        <pt x="532" y="116" on="1"/>
        <pt x="532" y="8" on="1"/>
        <pt x="500" y="0" on="0"/>
        <pt x="419" y="-10" on="0"/>
      </contour>
    </TTGlyph>
    <TTGlyph name="C.sc" xMin="41" yMin="-9" xMax="481" yMax="586">
      <contour>
        <pt x="346" y="-9" on="1"/>
        <pt x="191" y="-8" on="0"/>
        <pt x="41" y="136" on="0"/>
        <pt x="41" y="288" on="1"/>
        <pt x="41" y="440" on="0"/>
        <pt x="188" y="586" on="0"/>
        <pt x="339" y="586" on="1"/>
        <pt x="371" y="586" on="0"/>
        <pt x="442" y="579" on="0"/>
        <pt x="481" y="574" on="1"/>
        <pt x="481" y="471" on="1"/>
        <pt x="444" y="476" on="0"/>
        <pt x="385" y="481" on="0"/>
        <pt x="356" y="481" on="1"/>
        <pt x="305" y="481" on="0"/>
        <pt x="235" y="462" on="0"/>
        <pt x="192" y="417" on="0"/>
        <pt x="173" y="343" on="0"/>
        <pt x="173" y="288" on="1"/>
        <pt x="173" y="234" on="0"/>
        <pt x="192" y="160" on="0"/>
        <pt x="234" y="116" on="0"/>
        <pt x="302" y="97" on="0"/>
        <pt x="352" y="97" on="1"/>
        <pt x="380" y="97" on="0"/>
        <pt x="456" y="103" on="0"/>
        <pt x="481" y="108" on="1"/>
        <pt x="481" y="7" on="1"/>
        <pt x="454" y="0" on="0"/>
        <pt x="381" y="-9" on="0"/>
      </contour>
    </TTGlyph>
    <TTGlyph name="Cacute" xMin="41" yMin="-10" xMax="532" yMax="963">
      <contour>
        <pt x="381" y="-10" on="1"/>
        <pt x="208" y="-10" on="0"/>
        <pt x="41" y="175" on="0"/>
        <pt x="41" y="369" on="1"/>
        <pt x="41" y="565" on="0"/>
        <pt x="206" y="750" on="0"/>
        <pt x="375" y="750" on="1"/>
        <pt x="442" y="750" on="0"/>
        <pt x="532" y="735" on="1"/>
        <pt x="532" y="626" on="1"/>
        <pt x="487" y="633" on="0"/>
        <pt x="421" y="639" on="0"/>
        <pt x="393" y="639" on="1"/>
        <pt x="334" y="639" on="0"/>
        <pt x="253" y="611" on="0"/>
        <pt x="202" y="548" on="0"/>
        <pt x="179" y="445" on="0"/>
        <pt x="179" y="369" on="1"/>
        <pt x="179" y="295" on="0"/>
        <pt x="202" y="193" on="0"/>
        <pt x="252" y="130" on="0"/>
        <pt x="332" y="102" on="0"/>
        <pt x="388" y="102" on="1"/>
        <pt x="403" y="102" on="0"/>
        <pt x="441" y="104" on="0"/>
        <pt x="480" y="108" on="0"/>
        <pt x="518" y="113" on="0"/>
        <pt x="532" y="116" on="1"/>
        <pt x="532" y="8" on="1"/>
        <pt x="500" y="0" on="0"/>
        <pt x="419" y="-10" on="0"/>
      </contour>
      <contour>
        <pt x="273" y="804" on="1"/>
        <pt x="343" y="963" on="1"/>
        <pt x="479" y="963" on="1"/>
        <pt x="370" y="797" on="1"/>
      </contour>
    </TTGlyph>
    <TTGlyph name="Cacute.sc" xMin="41" yMin="-9" xMax="480" yMax="762">
      <contour>
        <pt x="345" y="-9" on="1"/>
        <pt x="190" y="-8" on="0"/>
        <pt x="41" y="136" on="0"/>
        <pt x="41" y="288" on="1"/>
        <pt x="41" y="440" on="0"/>
        <pt x="188" y="586" on="0"/>
        <pt x="339" y="586" on="1"/>
        <pt x="397" y="586" on="0"/>
        <pt x="480" y="574" on="1"/>
        <pt x="480" y="471" on="1"/>
        <pt x="437" y="476" on="0"/>
        <pt x="380" y="481" on="0"/>
        <pt x="355" y="481" on="1"/>
        <pt x="305" y="481" on="0"/>
        <pt x="235" y="463" on="0"/>
        <pt x="192" y="418" on="0"/>
        <pt x="173" y="344" on="0"/>
        <pt x="173" y="288" on="1"/>
        <pt x="173" y="233" on="0"/>
        <pt x="192" y="160" on="0"/>
        <pt x="235" y="116" on="0"/>
        <pt x="303" y="97" on="0"/>
        <pt x="352" y="97" on="1"/>
        <pt x="365" y="97" on="0"/>
        <pt x="400" y="99" on="0"/>
        <pt x="435" y="102" on="0"/>
        <pt x="468" y="106" on="0"/>
        <pt x="480" y="108" on="1"/>
        <pt x="480" y="7" on="1"/>
        <pt x="452" y="-1" on="0"/>
        <pt x="380" y="-9" on="0"/>
      </contour>
      <contour>
        <pt x="244" y="629" on="1"/>
        <pt x="305" y="762" on="1"/>
        <pt x="434" y="762" on="1"/>
        <pt x="336" y="623" on="1"/>
      </contour>
    </TTGlyph>
    <TTGlyph name="Ccaron" xMin="41" yMin="-10" xMax="532" yMax="968">
      <contour>
        <pt x="381" y="-10" on="1"/>
        <pt x="208" y="-10" on="0"/>
        <pt x="41" y="175" on="0"/>
        <pt x="41" y="369" on="1"/>
        <pt x="41" y="565" on="0"/>
        <pt x="206" y="750" on="0"/>
        <pt x="375" y="750" on="1"/>
        <pt x="442" y="750" on="0"/>
        <pt x="532" y="735" on="1"/>
        <pt x="532" y="626" on="1"/>
        <pt x="487" y="633" on="0"/>
        <pt x="421" y="639" on="0"/>
        <pt x="393" y="639" on="1"/>
        <pt x="334" y="639" on="0"/>
        <pt x="253" y="611" on="0"/>
        <pt x="202" y="548" on="0"/>
        <pt x="179" y="445" on="0"/>
        <pt x="179" y="369" on="1"/>
        <pt x="179" y="295" on="0"/>
        <pt x="202" y="193" on="0"/>
        <pt x="252" y="130" on="0"/>
        <pt x="332" y="102" on="0"/>
        <pt x="388" y="102" on="1"/>
        <pt x="403" y="102" on="0"/>
        <pt x="441" y="104" on="0"/>
        <pt x="480" y="108" on="0"/>
        <pt x="518" y="113" on="0"/>
        <pt x="532" y="116" on="1"/>
        <pt x="532" y="8" on="1"/>
        <pt x="500" y="0" on="0"/>
        <pt x="419" y="-10" on="0"/>
      </contour>
      <contour>
        <pt x="158" y="968" on="1"/>
        <pt x="332" y="893" on="1"/>
        <pt x="505" y="968" on="1"/>
        <pt x="505" y="874" on="1"/>
        <pt x="331" y="799" on="1"/>
        <pt x="158" y="874" on="1"/>
      </contour>
    </TTGlyph>
    <TTGlyph name="Ccaron.sc" xMin="41" yMin="-9" xMax="480" yMax="766">
      <contour>
        <pt x="345" y="-9" on="1"/>
        <pt x="190" y="-8" on="0"/>
        <pt x="41" y="136" on="0"/>
        <pt x="41" y="288" on="1"/>
        <pt x="41" y="440" on="0"/>
        <pt x="188" y="586" on="0"/>
        <pt x="339" y="586" on="1"/>
        <pt x="397" y="586" on="0"/>
        <pt x="480" y="574" on="1"/>
        <pt x="480" y="471" on="1"/>
        <pt x="437" y="476" on="0"/>
        <pt x="380" y="481" on="0"/>
        <pt x="355" y="481" on="1"/>
        <pt x="305" y="481" on="0"/>
        <pt x="235" y="463" on="0"/>
        <pt x="192" y="418" on="0"/>
        <pt x="173" y="344" on="0"/>
        <pt x="173" y="288" on="1"/>
        <pt x="173" y="233" on="0"/>
        <pt x="192" y="160" on="0"/>
        <pt x="235" y="116" on="0"/>
        <pt x="303" y="97" on="0"/>
        <pt x="352" y="97" on="1"/>
        <pt x="365" y="97" on="0"/>
        <pt x="400" y="99" on="0"/>
        <pt x="435" y="102" on="0"/>
        <pt x="468" y="106" on="0"/>
        <pt x="480" y="108" on="1"/>
        <pt x="480" y="7" on="1"/>
        <pt x="452" y="-1" on="0"/>
        <pt x="380" y="-9" on="0"/>
      </contour>
      <contour>
        <pt x="141" y="766" on="1"/>
        <pt x="299" y="707" on="1"/>
        <pt x="457" y="766" on="1"/>
        <pt x="457" y="681" on="1"/>
        <pt x="299" y="622" on="1"/>
        <pt x="141" y="681" on="1"/>
      </contour>
    </TTGlyph>
    <TTGlyph name="Ccedilla" xMin="41" yMin="-220" xMax="532" yMax="750">
      <contour>
        <pt x="307" y="-220" on="1"/>
        <pt x="287" y="-220" on="0"/>
        <pt x="240" y="-213" on="0"/>
        <pt x="216" y="-208" on="1"/>
        <pt x="216" y="-127" on="1"/>
        <pt x="233" y="-132" on="0"/>
        <pt x="271" y="-138" on="0"/>
        <pt x="286" y="-138" on="1"/>
        <pt x="314" y="-138" on="0"/>
        <pt x="338" y="-115" on="0"/>
        <pt x="338" y="-93" on="1"/>
        <pt x="338" y="-58" on="0"/>
        <pt x="304" y="-5" on="1"/>
        <pt x="170" y="15" on="0"/>
        <pt x="41" y="198" on="0"/>
        <pt x="41" y="369" on="1"/>
        <pt x="41" y="565" on="0"/>
        <pt x="206" y="750" on="0"/>
        <pt x="375" y="750" on="1"/>
        <pt x="442" y="750" on="0"/>
        <pt x="532" y="735" on="1"/>
        <pt x="532" y="626" on="1"/>
        <pt x="487" y="633" on="0"/>
        <pt x="421" y="639" on="0"/>
        <pt x="393" y="639" on="1"/>
        <pt x="334" y="639" on="0"/>
        <pt x="253" y="611" on="0"/>
        <pt x="202" y="548" on="0"/>
        <pt x="179" y="445" on="0"/>
        <pt x="179" y="369" on="1"/>
        <pt x="179" y="295" on="0"/>
        <pt x="202" y="193" on="0"/>
        <pt x="252" y="130" on="0"/>
        <pt x="332" y="102" on="0"/>
        <pt x="388" y="102" on="1"/>
        <pt x="403" y="102" on="0"/>
        <pt x="441" y="104" on="0"/>
        <pt x="480" y="108" on="0"/>
        <pt x="518" y="113" on="0"/>
        <pt x="532" y="116" on="1"/>
        <pt x="532" y="8" on="1"/>
        <pt x="503" y="0" on="0"/>
        <pt x="429" y="-9" on="0"/>
        <pt x="393" y="-10" on="1"/>
        <pt x="413" y="-40" on="0"/>
        <pt x="428" y="-85" on="0"/>
        <pt x="428" y="-110" on="1"/>
        <pt x="428" y="-162" on="0"/>
        <pt x="364" y="-220" on="0"/>
      </contour>
    </TTGlyph>
    <TTGlyph name="Ccedilla.sc" xMin="41" yMin="-172" xMax="481" yMax="586">
      <contour>
        <pt x="281" y="-172" on="1"/>
        <pt x="264" y="-172" on="0"/>
        <pt x="221" y="-167" on="0"/>
        <pt x="198" y="-162" on="1"/>
        <pt x="198" y="-89" on="1"/>
        <pt x="215" y="-93" on="0"/>
        <pt x="249" y="-97" on="0"/>
        <pt x="262" y="-97" on="1"/>
        <pt x="286" y="-97" on="0"/>
        <pt x="306" y="-81" on="0"/>
        <pt x="306" y="-67" on="1"/>
        <pt x="306" y="-47" on="0"/>
        <pt x="280" y="-4" on="1"/>
        <pt x="41" y="21" on="0"/>
        <pt x="41" y="288" on="1"/>
        <pt x="41" y="440" on="0"/>
        <pt x="188" y="586" on="0"/>
        <pt x="339" y="586" on="1"/>
        <pt x="397" y="586" on="0"/>
        <pt x="481" y="574" on="1"/>
        <pt x="481" y="471" on="1"/>
        <pt x="438" y="476" on="0"/>
        <pt x="380" y="481" on="0"/>
        <pt x="356" y="481" on="1"/>
        <pt x="305" y="481" on="0"/>
        <pt x="236" y="463" on="0"/>
        <pt x="192" y="418" on="0"/>
        <pt x="173" y="344" on="0"/>
        <pt x="173" y="288" on="1"/>
        <pt x="173" y="233" on="0"/>
        <pt x="192" y="160" on="0"/>
        <pt x="235" y="116" on="0"/>
        <pt x="303" y="97" on="0"/>
        <pt x="352" y="97" on="1"/>
        <pt x="365" y="97" on="0"/>
        <pt x="400" y="99" on="0"/>
        <pt x="435" y="102" on="0"/>
        <pt x="469" y="106" on="0"/>
        <pt x="481" y="108" on="1"/>
        <pt x="481" y="7" on="1"/>
        <pt x="456" y="0" on="0"/>
        <pt x="392" y="-8" on="0"/>
        <pt x="363" y="-8" on="1"/>
        <pt x="377" y="-31" on="0"/>
        <pt x="390" y="-66" on="0"/>
        <pt x="390" y="-85" on="1"/>
        <pt x="390" y="-126" on="0"/>
        <pt x="333" y="-172" on="0"/>
      </contour>
    </TTGlyph>
    <TTGlyph name="Ccircumflex" xMin="41" yMin="-10" xMax="532" yMax="972">
      <contour>
        <pt x="381" y="-10" on="1"/>
        <pt x="208" y="-10" on="0"/>
        <pt x="41" y="175" on="0"/>
        <pt x="41" y="369" on="1"/>
        <pt x="41" y="565" on="0"/>
        <pt x="206" y="750" on="0"/>
        <pt x="375" y="750" on="1"/>
        <pt x="442" y="750" on="0"/>
        <pt x="532" y="735" on="1"/>
        <pt x="532" y="626" on="1"/>
        <pt x="487" y="633" on="0"/>
        <pt x="421" y="639" on="0"/>
        <pt x="393" y="639" on="1"/>
        <pt x="334" y="639" on="0"/>
        <pt x="253" y="611" on="0"/>
        <pt x="202" y="548" on="0"/>
        <pt x="179" y="445" on="0"/>
        <pt x="179" y="369" on="1"/>
        <pt x="179" y="295" on="0"/>
        <pt x="202" y="193" on="0"/>
        <pt x="252" y="130" on="0"/>
        <pt x="332" y="102" on="0"/>
        <pt x="388" y="102" on="1"/>
        <pt x="403" y="102" on="0"/>
        <pt x="441" y="104" on="0"/>
        <pt x="480" y="108" on="0"/>
        <pt x="518" y="113" on="0"/>
        <pt x="532" y="116" on="1"/>
        <pt x="532" y="8" on="1"/>
        <pt x="500" y="0" on="0"/>
        <pt x="419" y="-10" on="0"/>
      </contour>
      <contour>
        <pt x="154" y="898" on="1"/>
        <pt x="327" y="972" on="1"/>
        <pt x="501" y="898" on="1"/>
        <pt x="501" y="804" on="1"/>
        <pt x="328" y="878" on="1"/>
        <pt x="154" y="804" on="1"/>
      </contour>
    </TTGlyph>
    <TTGlyph name="Ccircumflex.sc" xMin="41" yMin="-9" xMax="480" yMax="768">
      <contour>
        <pt x="345" y="-9" on="1"/>
        <pt x="190" y="-8" on="0"/>
        <pt x="41" y="136" on="0"/>
        <pt x="41" y="288" on="1"/>
        <pt x="41" y="440" on="0"/>
        <pt x="188" y="586" on="0"/>
        <pt x="339" y="586" on="1"/>
        <pt x="397" y="586" on="0"/>
        <pt x="480" y="574" on="1"/>
        <pt x="480" y="471" on="1"/>
        <pt x="437" y="476" on="0"/>
        <pt x="380" y="481" on="0"/>
        <pt x="355" y="481" on="1"/>
        <pt x="305" y="481" on="0"/>
        <pt x="235" y="463" on="0"/>
        <pt x="192" y="418" on="0"/>
        <pt x="173" y="344" on="0"/>
        <pt x="173" y="288" on="1"/>
        <pt x="173" y="233" on="0"/>
        <pt x="192" y="160" on="0"/>
        <pt x="235" y="116" on="0"/>
        <pt x="303" y="97" on="0"/>
        <pt x="352" y="97" on="1"/>
        <pt x="365" y="97" on="0"/>
        <pt x="400" y="99" on="0"/>
        <pt x="435" y="102" on="0"/>
        <pt x="468" y="106" on="0"/>
        <pt x="480" y="108" on="1"/>
        <pt x="480" y="7" on="1"/>
        <pt x="452" y="-1" on="0"/>
        <pt x="380" y="-9" on="0"/>
      </contour>
      <contour>
        <pt x="137" y="709" on="1"/>
        <pt x="295" y="768" on="1"/>
        <pt x="454" y="709" on="1"/>
        <pt x="454" y="624" on="1"/>
        <pt x="296" y="683" on="1"/>
        <pt x="137" y="624" on="1"/>
      </contour>
    </TTGlyph>
    <TTGlyph name="Cdotaccent" xMin="41" yMin="-10" xMax="532" yMax="953">
      <contour>
        <pt x="335" y="804" on="1"/>
        <pt x="295" y="804" on="0"/>
        <pt x="259" y="839" on="0"/>
        <pt x="259" y="878" on="1"/>
        <pt x="259" y="917" on="0"/>
        <pt x="295" y="953" on="0"/>
        <pt x="335" y="953" on="1"/>
        <pt x="412" y="953" on="0"/>
        <pt x="412" y="878" on="1"/>
        <pt x="412" y="804" on="0"/>
      </contour>
      <contour>
        <pt x="381" y="-10" on="1"/>
        <pt x="208" y="-10" on="0"/>
        <pt x="41" y="175" on="0"/>
        <pt x="41" y="369" on="1"/>
        <pt x="41" y="565" on="0"/>
        <pt x="206" y="750" on="0"/>
        <pt x="375" y="750" on="1"/>
        <pt x="442" y="750" on="0"/>
        <pt x="532" y="735" on="1"/>
        <pt x="532" y="626" on="1"/>
        <pt x="487" y="633" on="0"/>
        <pt x="421" y="639" on="0"/>
        <pt x="393" y="639" on="1"/>
        <pt x="334" y="639" on="0"/>
        <pt x="253" y="611" on="0"/>
        <pt x="202" y="548" on="0"/>
        <pt x="179" y="445" on="0"/>
        <pt x="179" y="369" on="1"/>
        <pt x="179" y="295" on="0"/>
        <pt x="202" y="193" on="0"/>
        <pt x="252" y="130" on="0"/>
        <pt x="332" y="102" on="0"/>
        <pt x="388" y="102" on="1"/>
        <pt x="403" y="102" on="0"/>
        <pt x="441" y="104" on="0"/>
        <pt x="480" y="108" on="0"/>
        <pt x="518" y="113" on="0"/>
        <pt x="532" y="116" on="1"/>
        <pt x="532" y="8" on="1"/>
        <pt x="500" y="0" on="0"/>
        <pt x="419" y="-10" on="0"/>
      </contour>
    </TTGlyph>
    <TTGlyph name="Cdotaccent.sc" xMin="41" yMin="-9" xMax="480" yMax="761">
      <contour>
        <pt x="345" y="-9" on="1"/>
        <pt x="190" y="-8" on="0"/>
        <pt x="41" y="136" on="0"/>
        <pt x="41" y="288" on="1"/>
        <pt x="41" y="440" on="0"/>
        <pt x="188" y="586" on="0"/>
        <pt x="339" y="586" on="1"/>
        <pt x="397" y="586" on="0"/>
        <pt x="480" y="574" on="1"/>
        <pt x="480" y="471" on="1"/>
        <pt x="437" y="476" on="0"/>
        <pt x="380" y="481" on="0"/>
        <pt x="355" y="481" on="1"/>
        <pt x="305" y="481" on="0"/>
        <pt x="235" y="463" on="0"/>
        <pt x="192" y="418" on="0"/>
        <pt x="173" y="344" on="0"/>
        <pt x="173" y="288" on="1"/>
        <pt x="173" y="233" on="0"/>
        <pt x="192" y="160" on="0"/>
        <pt x="235" y="116" on="0"/>
        <pt x="303" y="97" on="0"/>
        <pt x="352" y="97" on="1"/>
        <pt x="365" y="97" on="0"/>
        <pt x="400" y="99" on="0"/>
        <pt x="435" y="102" on="0"/>
        <pt x="468" y="106" on="0"/>
        <pt x="480" y="108" on="1"/>
        <pt x="480" y="7" on="1"/>
        <pt x="452" y="-1" on="0"/>
        <pt x="380" y="-9" on="0"/>
      </contour>
      <contour>
        <pt x="304" y="625" on="1"/>
        <pt x="267" y="625" on="0"/>
        <pt x="233" y="657" on="0"/>
        <pt x="233" y="694" on="1"/>
        <pt x="233" y="729" on="0"/>
        <pt x="267" y="761" on="0"/>
        <pt x="304" y="761" on="1"/>
        <pt x="376" y="761" on="0"/>
        <pt x="376" y="694" on="1"/>
        <pt x="376" y="658" on="0"/>
        <pt x="341" y="625" on="0"/>
      </contour>
    </TTGlyph>
    <TTGlyph name="D" xMin="74" yMin="-12" xMax="668" yMax="750">
      <contour>
        <pt x="261" y="-12" on="1"/>
        <pt x="211" y="-12" on="0"/>
        <pt x="113" y="-6" on="0"/>
        <pt x="74" y="0" on="1"/>
        <pt x="74" y="737" on="1"/>
        <pt x="139" y="743" on="0"/>
        <pt x="247" y="750" on="0"/>
        <pt x="287" y="750" on="1"/>
        <pt x="387" y="750" on="0"/>
        <pt x="531" y="706" on="0"/>
        <pt x="624" y="613" on="0"/>
        <pt x="668" y="469" on="0"/>
        <pt x="668" y="369" on="1"/>
        <pt x="668" y="268" on="0"/>
        <pt x="622" y="123" on="0"/>
        <pt x="524" y="31" on="0"/>
        <pt x="369" y="-12" on="0"/>
      </contour>
      <contour>
        <pt x="308" y="97" on="1"/>
        <pt x="368" y="97" on="0"/>
        <pt x="452" y="126" on="0"/>
        <pt x="505" y="191" on="0"/>
        <pt x="529" y="295" on="0"/>
        <pt x="529" y="370" on="1"/>
        <pt x="529" y="444" on="0"/>
        <pt x="505" y="547" on="0"/>
        <pt x="452" y="611" on="0"/>
        <pt x="367" y="640" on="0"/>
        <pt x="306" y="640" on="1"/>
        <pt x="284" y="640" on="0"/>
        <pt x="233" y="637" on="0"/>
        <pt x="207" y="634" on="1"/>
        <pt x="207" y="105" on="1"/>
        <pt x="236" y="101" on="0"/>
        <pt x="283" y="97" on="0"/>
      </contour>
    </TTGlyph>
    <TTGlyph name="D.sc" xMin="70" yMin="-9" xMax="607" yMax="585">
      <contour>
        <pt x="258" y="-9" on="1"/>
        <pt x="208" y="-9" on="0"/>
        <pt x="108" y="-4" on="0"/>
        <pt x="70" y="1" on="1"/>
        <pt x="70" y="576" on="1"/>
        <pt x="128" y="580" on="0"/>
        <pt x="228" y="585" on="0"/>
        <pt x="265" y="585" on="1"/>
        <pt x="444" y="585" on="0"/>
        <pt x="607" y="443" on="0"/>
        <pt x="607" y="288" on="1"/>
        <pt x="607" y="210" on="0"/>
        <pt x="567" y="97" on="0"/>
        <pt x="481" y="25" on="0"/>
        <pt x="349" y="-9" on="0"/>
      </contour>
      <contour>
        <pt x="288" y="94" on="1"/>
        <pt x="339" y="94" on="0"/>
        <pt x="410" y="114" on="0"/>
        <pt x="455" y="159" on="0"/>
        <pt x="476" y="234" on="0"/>
        <pt x="476" y="288" on="1"/>
        <pt x="476" y="342" on="0"/>
        <pt x="455" y="416" on="0"/>
        <pt x="410" y="462" on="0"/>
        <pt x="336" y="482" on="0"/>
        <pt x="284" y="482" on="1"/>
        <pt x="264" y="482" on="0"/>
        <pt x="220" y="480" on="0"/>
        <pt x="197" y="478" on="1"/>
        <pt x="197" y="99" on="1"/>
        <pt x="222" y="96" on="0"/>
        <pt x="265" y="94" on="0"/>
      </contour>
    </TTGlyph>
    <TTGlyph name="Dcaron" xMin="74" yMin="-12" xMax="668" yMax="968">
      <contour>
        <pt x="165" y="968" on="1"/>
        <pt x="339" y="893" on="1"/>
        <pt x="512" y="968" on="1"/>
        <pt x="512" y="874" on="1"/>
        <pt x="338" y="799" on="1"/>
        <pt x="165" y="874" on="1"/>
      </contour>
      <contour>
        <pt x="261" y="-12" on="1"/>
        <pt x="211" y="-12" on="0"/>
        <pt x="113" y="-6" on="0"/>
        <pt x="74" y="0" on="1"/>
        <pt x="74" y="737" on="1"/>
        <pt x="139" y="743" on="0"/>
        <pt x="247" y="750" on="0"/>
        <pt x="287" y="750" on="1"/>
        <pt x="387" y="750" on="0"/>
        <pt x="531" y="706" on="0"/>
        <pt x="624" y="613" on="0"/>
        <pt x="668" y="469" on="0"/>
        <pt x="668" y="369" on="1"/>
        <pt x="668" y="268" on="0"/>
        <pt x="622" y="123" on="0"/>
        <pt x="524" y="31" on="0"/>
        <pt x="369" y="-12" on="0"/>
      </contour>
      <contour>
        <pt x="308" y="97" on="1"/>
        <pt x="368" y="97" on="0"/>
        <pt x="452" y="126" on="0"/>
        <pt x="505" y="191" on="0"/>
        <pt x="529" y="295" on="0"/>
        <pt x="529" y="370" on="1"/>
        <pt x="529" y="444" on="0"/>
        <pt x="505" y="547" on="0"/>
        <pt x="452" y="611" on="0"/>
        <pt x="367" y="640" on="0"/>
        <pt x="306" y="640" on="1"/>
        <pt x="284" y="640" on="0"/>
        <pt x="233" y="637" on="0"/>
        <pt x="207" y="634" on="1"/>
        <pt x="207" y="105" on="1"/>
        <pt x="236" y="101" on="0"/>
        <pt x="283" y="97" on="0"/>
      </contour>
    </TTGlyph>
    <TTGlyph name="Dcaron.sc" xMin="70" yMin="-9" xMax="607" yMax="766">
      <contour>
        <pt x="258" y="-9" on="1"/>
        <pt x="208" y="-9" on="0"/>
        <pt x="108" y="-4" on="0"/>
        <pt x="70" y="1" on="1"/>
        <pt x="70" y="576" on="1"/>
        <pt x="128" y="580" on="0"/>
        <pt x="228" y="585" on="0"/>
        <pt x="265" y="585" on="1"/>
        <pt x="444" y="585" on="0"/>
        <pt x="607" y="443" on="0"/>
        <pt x="607" y="288" on="1"/>
        <pt x="607" y="210" on="0"/>
        <pt x="567" y="97" on="0"/>
        <pt x="481" y="25" on="0"/>
        <pt x="349" y="-9" on="0"/>
      </contour>
      <contour>
        <pt x="288" y="94" on="1"/>
        <pt x="339" y="94" on="0"/>
        <pt x="410" y="114" on="0"/>
        <pt x="455" y="159" on="0"/>
        <pt x="476" y="234" on="0"/>
        <pt x="476" y="288" on="1"/>
        <pt x="476" y="342" on="0"/>
        <pt x="455" y="416" on="0"/>
        <pt x="410" y="462" on="0"/>
        <pt x="336" y="482" on="0"/>
        <pt x="284" y="482" on="1"/>
        <pt x="264" y="482" on="0"/>
        <pt x="220" y="480" on="0"/>
        <pt x="197" y="478" on="1"/>
        <pt x="197" y="99" on="1"/>
        <pt x="222" y="96" on="0"/>
        <pt x="265" y="94" on="0"/>
      </contour>
      <contour>
        <pt x="154" y="681" on="1"/>
        <pt x="154" y="766" on="1"/>
        <pt x="312" y="707" on="1"/>
        <pt x="470" y="766" on="1"/>
        <pt x="470" y="681" on="1"/>
        <pt x="311" y="622" on="1"/>
      </contour>
    </TTGlyph>
    <TTGlyph name="Dcroat" xMin="2" yMin="-12" xMax="686" yMax="750">
      <contour>
        <pt x="2" y="423" on="1"/>
        <pt x="92" y="423" on="1"/>
        <pt x="92" y="737" on="1"/>
        <pt x="157" y="743" on="0"/>
        <pt x="265" y="750" on="0"/>
        <pt x="305" y="750" on="1"/>
        <pt x="405" y="750" on="0"/>
        <pt x="549" y="706" on="0"/>
        <pt x="642" y="613" on="0"/>
        <pt x="686" y="469" on="0"/>
        <pt x="686" y="369" on="1"/>
        <pt x="686" y="268" on="0"/>
        <pt x="640" y="123" on="0"/>
        <pt x="542" y="31" on="0"/>
        <pt x="387" y="-12" on="0"/>
        <pt x="279" y="-12" on="1"/>
        <pt x="229" y="-12" on="0"/>
        <pt x="131" y="-6" on="0"/>
        <pt x="92" y="0" on="1"/>
        <pt x="92" y="320" on="1"/>
        <pt x="2" y="320" on="1"/>
      </contour>
      <contour>
        <pt x="326" y="97" on="1"/>
        <pt x="386" y="97" on="0"/>
        <pt x="470" y="126" on="0"/>
        <pt x="523" y="191" on="0"/>
        <pt x="547" y="295" on="0"/>
        <pt x="547" y="370" on="1"/>
        <pt x="547" y="444" on="0"/>
        <pt x="523" y="547" on="0"/>
        <pt x="470" y="611" on="0"/>
        <pt x="385" y="640" on="0"/>
        <pt x="324" y="640" on="1"/>
        <pt x="302" y="640" on="0"/>
        <pt x="251" y="637" on="0"/>
        <pt x="225" y="634" on="1"/>
        <pt x="225" y="423" on="1"/>
        <pt x="361" y="423" on="1"/>
        <pt x="361" y="320" on="1"/>
        <pt x="225" y="320" on="1"/>
        <pt x="225" y="105" on="1"/>
        <pt x="254" y="101" on="0"/>
        <pt x="301" y="97" on="0"/>
      </contour>
    </TTGlyph>
    <TTGlyph name="Dcroat.sc" xMin="10" yMin="-9" xMax="625" yMax="585">
      <contour>
        <pt x="10" y="339" on="1"/>
        <pt x="88" y="339" on="1"/>
        <pt x="88" y="576" on="1"/>
        <pt x="148" y="580" on="0"/>
        <pt x="248" y="585" on="0"/>
        <pt x="284" y="585" on="1"/>
        <pt x="374" y="585" on="0"/>
        <pt x="503" y="551" on="0"/>
        <pt x="586" y="478" on="0"/>
        <pt x="625" y="366" on="0"/>
        <pt x="625" y="288" on="1"/>
        <pt x="625" y="208" on="0"/>
        <pt x="584" y="96" on="0"/>
        <pt x="496" y="24" on="0"/>
        <pt x="357" y="-9" on="0"/>
        <pt x="259" y="-9" on="1"/>
        <pt x="213" y="-9" on="0"/>
        <pt x="123" y="-4" on="0"/>
        <pt x="88" y="1" on="1"/>
        <pt x="88" y="242" on="1"/>
        <pt x="10" y="242" on="1"/>
      </contour>
      <contour>
        <pt x="306" y="94" on="1"/>
        <pt x="357" y="94" on="0"/>
        <pt x="428" y="114" on="0"/>
        <pt x="473" y="159" on="0"/>
        <pt x="494" y="234" on="0"/>
        <pt x="494" y="288" on="1"/>
        <pt x="494" y="342" on="0"/>
        <pt x="473" y="416" on="0"/>
        <pt x="428" y="462" on="0"/>
        <pt x="354" y="482" on="0"/>
        <pt x="302" y="482" on="1"/>
        <pt x="283" y="482" on="0"/>
        <pt x="239" y="480" on="0"/>
        <pt x="215" y="478" on="1"/>
        <pt x="215" y="339" on="1"/>
        <pt x="330" y="339" on="1"/>
        <pt x="330" y="242" on="1"/>
        <pt x="215" y="242" on="1"/>
        <pt x="215" y="99" on="1"/>
        <pt x="240" y="96" on="0"/>
        <pt x="283" y="94" on="0"/>
      </contour>
    </TTGlyph>
    <TTGlyph name="Ddotbelow" xMin="74" yMin="-196" xMax="668" yMax="750">
      <contour>
        <pt x="339" y="-196" on="1"/>
        <pt x="275" y="-196" on="0"/>
        <pt x="275" y="-134" on="1"/>
        <pt x="275" y="-101" on="0"/>
        <pt x="306" y="-72" on="0"/>
        <pt x="339" y="-72" on="1"/>
        <pt x="372" y="-72" on="0"/>
        <pt x="402" y="-102" on="0"/>
        <pt x="402" y="-134" on="1"/>
        <pt x="402" y="-166" on="0"/>
        <pt x="372" y="-196" on="0"/>
      </contour>
      <contour>
        <pt x="261" y="-12" on="1"/>
        <pt x="211" y="-12" on="0"/>
        <pt x="113" y="-6" on="0"/>
        <pt x="74" y="0" on="1"/>
        <pt x="74" y="737" on="1"/>
        <pt x="139" y="743" on="0"/>
        <pt x="247" y="750" on="0"/>
        <pt x="287" y="750" on="1"/>
        <pt x="387" y="750" on="0"/>
        <pt x="531" y="706" on="0"/>
        <pt x="624" y="613" on="0"/>
        <pt x="668" y="469" on="0"/>
        <pt x="668" y="369" on="1"/>
        <pt x="668" y="268" on="0"/>
        <pt x="622" y="123" on="0"/>
        <pt x="524" y="31" on="0"/>
        <pt x="369" y="-12" on="0"/>
      </contour>
      <contour>
        <pt x="308" y="97" on="1"/>
        <pt x="368" y="97" on="0"/>
        <pt x="452" y="126" on="0"/>
        <pt x="505" y="191" on="0"/>
        <pt x="529" y="295" on="0"/>
        <pt x="529" y="370" on="1"/>
        <pt x="529" y="444" on="0"/>
        <pt x="505" y="547" on="0"/>
        <pt x="452" y="611" on="0"/>
        <pt x="367" y="640" on="0"/>
        <pt x="306" y="640" on="1"/>
        <pt x="284" y="640" on="0"/>
        <pt x="233" y="637" on="0"/>
        <pt x="207" y="634" on="1"/>
        <pt x="207" y="105" on="1"/>
        <pt x="236" y="101" on="0"/>
        <pt x="283" y="97" on="0"/>
      </contour>
    </TTGlyph>
    <TTGlyph name="Ddotbelow.sc" xMin="70" yMin="-159" xMax="607" yMax="585">
      <contour>
        <pt x="258" y="-9" on="1"/>
        <pt x="208" y="-9" on="0"/>
        <pt x="108" y="-4" on="0"/>
        <pt x="70" y="1" on="1"/>
        <pt x="70" y="576" on="1"/>
        <pt x="128" y="580" on="0"/>
        <pt x="228" y="585" on="0"/>
        <pt x="265" y="585" on="1"/>
        <pt x="444" y="585" on="0"/>
        <pt x="607" y="443" on="0"/>
        <pt x="607" y="288" on="1"/>
        <pt x="607" y="210" on="0"/>
        <pt x="567" y="97" on="0"/>
        <pt x="481" y="25" on="0"/>
        <pt x="349" y="-9" on="0"/>
      </contour>
      <contour>
        <pt x="288" y="94" on="1"/>
        <pt x="339" y="94" on="0"/>
        <pt x="410" y="114" on="0"/>
        <pt x="455" y="159" on="0"/>
        <pt x="476" y="234" on="0"/>
        <pt x="476" y="288" on="1"/>
        <pt x="476" y="342" on="0"/>
        <pt x="455" y="416" on="0"/>
        <pt x="410" y="462" on="0"/>
        <pt x="336" y="482" on="0"/>
        <pt x="284" y="482" on="1"/>
        <pt x="264" y="482" on="0"/>
        <pt x="220" y="480" on="0"/>
        <pt x="197" y="478" on="1"/>
        <pt x="197" y="99" on="1"/>
        <pt x="222" y="96" on="0"/>
        <pt x="265" y="94" on="0"/>
      </contour>
      <contour>
        <pt x="312" y="-159" on="1"/>
        <pt x="253" y="-159" on="0"/>
        <pt x="253" y="-106" on="1"/>
        <pt x="253" y="-77" on="0"/>
        <pt x="281" y="-51" on="0"/>
        <pt x="312" y="-51" on="1"/>
        <pt x="371" y="-51" on="0"/>
        <pt x="371" y="-106" on="1"/>
        <pt x="371" y="-159" on="0"/>
      </contour>
    </TTGlyph>
    <TTGlyph name="Delta" xMin="21" yMin="0" xMax="728" yMax="740">
      <contour>
        <pt x="293" y="740" on="1"/>
        <pt x="457" y="740" on="1"/>
        <pt x="728" y="0" on="1"/>
        <pt x="21" y="0" on="1"/>
      </contour>
      <contour>
        <pt x="564" y="109" on="1"/>
        <pt x="374" y="625" on="1"/>
        <pt x="185" y="109" on="1"/>
      </contour>
    </TTGlyph>
    <TTGlyph name="E" xMin="74" yMin="0" xMax="564" yMax="740">
      <contour>
        <pt x="74" y="740" on="1"/>
        <pt x="555" y="740" on="1"/>
        <pt x="555" y="631" on="1"/>
        <pt x="208" y="631" on="1"/>
        <pt x="208" y="428" on="1"/>
        <pt x="524" y="428" on="1"/>
        <pt x="524" y="318" on="1"/>
        <pt x="208" y="318" on="1"/>
        <pt x="208" y="109" on="1"/>
        <pt x="564" y="109" on="1"/>
        <pt x="564" y="0" on="1"/>
        <pt x="74" y="0" on="1"/>
      </contour>
    </TTGlyph>
    <TTGlyph name="E.sc" xMin="70" yMin="0" xMax="514" yMax="577">
      <contour>
        <pt x="70" y="577" on="1"/>
        <pt x="506" y="577" on="1"/>
        <pt x="506" y="478" on="1"/>
        <pt x="198" y="478" on="1"/>
        <pt x="198" y="336" on="1"/>
        <pt x="478" y="336" on="1"/>
        <pt x="478" y="246" on="1"/>
        <pt x="198" y="246" on="1"/>
        <pt x="198" y="99" on="1"/>
        <pt x="514" y="99" on="1"/>
        <pt x="514" y="0" on="1"/>
        <pt x="70" y="0" on="1"/>
      </contour>
    </TTGlyph>
    <TTGlyph name="Eacute" xMin="74" yMin="0" xMax="564" yMax="963">
      <contour>
        <pt x="260" y="804" on="1"/>
        <pt x="330" y="963" on="1"/>
        <pt x="466" y="963" on="1"/>
        <pt x="357" y="797" on="1"/>
      </contour>
      <contour>
        <pt x="74" y="740" on="1"/>
        <pt x="555" y="740" on="1"/>
        <pt x="555" y="631" on="1"/>
        <pt x="208" y="631" on="1"/>
        <pt x="208" y="428" on="1"/>
        <pt x="524" y="428" on="1"/>
        <pt x="524" y="318" on="1"/>
        <pt x="208" y="318" on="1"/>
        <pt x="208" y="109" on="1"/>
        <pt x="564" y="109" on="1"/>
        <pt x="564" y="0" on="1"/>
        <pt x="74" y="0" on="1"/>
      </contour>
    </TTGlyph>
    <TTGlyph name="Eacute.sc" xMin="70" yMin="0" xMax="514" yMax="762">
      <contour>
        <pt x="70" y="577" on="1"/>
        <pt x="506" y="577" on="1"/>
        <pt x="506" y="478" on="1"/>
        <pt x="198" y="478" on="1"/>
        <pt x="198" y="336" on="1"/>
        <pt x="478" y="336" on="1"/>
        <pt x="478" y="246" on="1"/>
        <pt x="198" y="246" on="1"/>
        <pt x="198" y="99" on="1"/>
        <pt x="514" y="99" on="1"/>
        <pt x="514" y="0" on="1"/>
        <pt x="70" y="0" on="1"/>
      </contour>
      <contour>
        <pt x="235" y="629" on="1"/>
        <pt x="296" y="762" on="1"/>
        <pt x="425" y="762" on="1"/>
        <pt x="328" y="623" on="1"/>
      </contour>
    </TTGlyph>
    <TTGlyph name="Ebreve" xMin="74" yMin="0" xMax="564" yMax="972">
      <contour>
        <pt x="313" y="807" on="1"/>
        <pt x="215" y="807" on="0"/>
        <pt x="123" y="898" on="0"/>
        <pt x="123" y="972" on="1"/>
        <pt x="215" y="972" on="1"/>
        <pt x="215" y="924" on="0"/>
        <pt x="260" y="876" on="0"/>
        <pt x="313" y="876" on="1"/>
        <pt x="366" y="876" on="0"/>
        <pt x="411" y="924" on="0"/>
        <pt x="411" y="972" on="1"/>
        <pt x="504" y="972" on="1"/>
        <pt x="504" y="897" on="0"/>
        <pt x="411" y="807" on="0"/>
      </contour>
      <contour>
        <pt x="74" y="740" on="1"/>
        <pt x="555" y="740" on="1"/>
        <pt x="555" y="631" on="1"/>
        <pt x="208" y="631" on="1"/>
        <pt x="208" y="428" on="1"/>
        <pt x="524" y="428" on="1"/>
        <pt x="524" y="318" on="1"/>
        <pt x="208" y="318" on="1"/>
        <pt x="208" y="109" on="1"/>
        <pt x="564" y="109" on="1"/>
        <pt x="564" y="0" on="1"/>
        <pt x="74" y="0" on="1"/>
      </contour>
    </TTGlyph>
    <TTGlyph name="Ebreve.sc" xMin="70" yMin="0" xMax="514" yMax="764">
      <contour>
        <pt x="287" y="628" on="1"/>
        <pt x="196" y="628" on="0"/>
        <pt x="113" y="704" on="0"/>
        <pt x="113" y="764" on="1"/>
        <pt x="200" y="764" on="1"/>
        <pt x="200" y="726" on="0"/>
        <pt x="239" y="690" on="0"/>
        <pt x="287" y="690" on="1"/>
        <pt x="334" y="690" on="0"/>
        <pt x="374" y="726" on="0"/>
        <pt x="374" y="764" on="1"/>
        <pt x="460" y="764" on="1"/>
        <pt x="460" y="703" on="0"/>
        <pt x="377" y="628" on="0"/>
      </contour>
      <contour>
        <pt x="70" y="577" on="1"/>
        <pt x="506" y="577" on="1"/>
        <pt x="506" y="478" on="1"/>
        <pt x="198" y="478" on="1"/>
        <pt x="198" y="336" on="1"/>
        <pt x="478" y="336" on="1"/>
        <pt x="478" y="246" on="1"/>
        <pt x="198" y="246" on="1"/>
        <pt x="198" y="99" on="1"/>
        <pt x="514" y="99" on="1"/>
        <pt x="514" y="0" on="1"/>
        <pt x="70" y="0" on="1"/>
      </contour>
    </TTGlyph>
    <TTGlyph name="Ecaron" xMin="74" yMin="0" xMax="564" yMax="968">
      <contour>
        <pt x="145" y="968" on="1"/>
        <pt x="319" y="893" on="1"/>
        <pt x="492" y="968" on="1"/>
        <pt x="492" y="874" on="1"/>
        <pt x="318" y="799" on="1"/>
        <pt x="145" y="874" on="1"/>
      </contour>
      <contour>
        <pt x="74" y="740" on="1"/>
        <pt x="555" y="740" on="1"/>
        <pt x="555" y="631" on="1"/>
        <pt x="208" y="631" on="1"/>
        <pt x="208" y="428" on="1"/>
        <pt x="524" y="428" on="1"/>
        <pt x="524" y="318" on="1"/>
        <pt x="208" y="318" on="1"/>
        <pt x="208" y="109" on="1"/>
        <pt x="564" y="109" on="1"/>
        <pt x="564" y="0" on="1"/>
        <pt x="74" y="0" on="1"/>
      </contour>
    </TTGlyph>
    <TTGlyph name="Ecaron.sc" xMin="70" yMin="0" xMax="514" yMax="766">
      <contour>
        <pt x="70" y="577" on="1"/>
        <pt x="506" y="577" on="1"/>
        <pt x="506" y="478" on="1"/>
        <pt x="198" y="478" on="1"/>
        <pt x="198" y="336" on="1"/>
        <pt x="478" y="336" on="1"/>
        <pt x="478" y="246" on="1"/>
        <pt x="198" y="246" on="1"/>
        <pt x="198" y="99" on="1"/>
        <pt x="514" y="99" on="1"/>
        <pt x="514" y="0" on="1"/>
        <pt x="70" y="0" on="1"/>
      </contour>
      <contour>
        <pt x="134" y="681" on="1"/>
        <pt x="134" y="766" on="1"/>
        <pt x="292" y="707" on="1"/>
        <pt x="450" y="766" on="1"/>
        <pt x="450" y="681" on="1"/>
        <pt x="291" y="622" on="1"/>
      </contour>
    </TTGlyph>
    <TTGlyph name="Ecircumflex" xMin="74" yMin="0" xMax="564" yMax="972">
      <contour>
        <pt x="74" y="740" on="1"/>
        <pt x="555" y="740" on="1"/>
        <pt x="555" y="631" on="1"/>
        <pt x="208" y="631" on="1"/>
        <pt x="208" y="428" on="1"/>
        <pt x="524" y="428" on="1"/>
        <pt x="524" y="318" on="1"/>
        <pt x="208" y="318" on="1"/>
        <pt x="208" y="109" on="1"/>
        <pt x="564" y="109" on="1"/>
        <pt x="564" y="0" on="1"/>
        <pt x="74" y="0" on="1"/>
      </contour>
      <contour>
        <pt x="148" y="898" on="1"/>
        <pt x="321" y="972" on="1"/>
        <pt x="495" y="898" on="1"/>
        <pt x="495" y="804" on="1"/>
        <pt x="322" y="878" on="1"/>
        <pt x="148" y="804" on="1"/>
      </contour>
    </TTGlyph>
    <TTGlyph name="Ecircumflex.sc" xMin="70" yMin="0" xMax="514" yMax="768">
      <contour>
        <pt x="70" y="577" on="1"/>
        <pt x="506" y="577" on="1"/>
        <pt x="506" y="478" on="1"/>
        <pt x="198" y="478" on="1"/>
        <pt x="198" y="336" on="1"/>
        <pt x="478" y="336" on="1"/>
        <pt x="478" y="246" on="1"/>
        <pt x="198" y="246" on="1"/>
        <pt x="198" y="99" on="1"/>
        <pt x="514" y="99" on="1"/>
        <pt x="514" y="0" on="1"/>
        <pt x="70" y="0" on="1"/>
      </contour>
      <contour>
        <pt x="138" y="709" on="1"/>
        <pt x="295" y="768" on="1"/>
        <pt x="454" y="709" on="1"/>
        <pt x="454" y="624" on="1"/>
        <pt x="296" y="683" on="1"/>
        <pt x="138" y="624" on="1"/>
      </contour>
    </TTGlyph>
    <TTGlyph name="Edblgrave" xMin="74" yMin="0" xMax="564" yMax="961">
      <contour>
        <pt x="74" y="740" on="1"/>
        <pt x="555" y="740" on="1"/>
        <pt x="555" y="631" on="1"/>
        <pt x="208" y="631" on="1"/>
        <pt x="208" y="428" on="1"/>
        <pt x="524" y="428" on="1"/>
        <pt x="524" y="318" on="1"/>
        <pt x="208" y="318" on="1"/>
        <pt x="208" y="109" on="1"/>
        <pt x="564" y="109" on="1"/>
        <pt x="564" y="0" on="1"/>
        <pt x="74" y="0" on="1"/>
      </contour>
      <contour>
        <pt x="183" y="794" on="1"/>
        <pt x="74" y="961" on="1"/>
        <pt x="199" y="961" on="1"/>
        <pt x="269" y="806" on="1"/>
      </contour>
      <contour>
        <pt x="365" y="794" on="1"/>
        <pt x="256" y="961" on="1"/>
        <pt x="380" y="961" on="1"/>
        <pt x="450" y="806" on="1"/>
      </contour>
    </TTGlyph>
    <TTGlyph name="Edblgrave.sc" xMin="68" yMin="0" xMax="514" yMax="761">
      <contour>
        <pt x="70" y="577" on="1"/>
        <pt x="506" y="577" on="1"/>
        <pt x="506" y="478" on="1"/>
        <pt x="198" y="478" on="1"/>
        <pt x="198" y="336" on="1"/>
        <pt x="478" y="336" on="1"/>
        <pt x="478" y="246" on="1"/>
        <pt x="198" y="246" on="1"/>
        <pt x="198" y="99" on="1"/>
        <pt x="514" y="99" on="1"/>
        <pt x="514" y="0" on="1"/>
        <pt x="70" y="0" on="1"/>
      </contour>
      <contour>
        <pt x="68" y="761" on="1"/>
        <pt x="188" y="761" on="1"/>
        <pt x="248" y="630" on="1"/>
        <pt x="166" y="621" on="1"/>
      </contour>
      <contour>
        <pt x="234" y="761" on="1"/>
        <pt x="353" y="761" on="1"/>
        <pt x="414" y="630" on="1"/>
        <pt x="332" y="621" on="1"/>
      </contour>
    </TTGlyph>
    <TTGlyph name="Edieresis" xMin="74" yMin="0" xMax="564" yMax="957">
      <contour>
        <pt x="190" y="808" on="1"/>
        <pt x="151" y="808" on="0"/>
        <pt x="114" y="844" on="0"/>
        <pt x="114" y="883" on="1"/>
        <pt x="114" y="922" on="0"/>
        <pt x="151" y="957" on="0"/>
        <pt x="190" y="957" on="1"/>
        <pt x="266" y="957" on="0"/>
        <pt x="266" y="883" on="1"/>
        <pt x="266" y="844" on="0"/>
        <pt x="229" y="808" on="0"/>
      </contour>
      <contour>
        <pt x="449" y="808" on="1"/>
        <pt x="409" y="808" on="0"/>
        <pt x="373" y="844" on="0"/>
        <pt x="373" y="883" on="1"/>
        <pt x="373" y="922" on="0"/>
        <pt x="409" y="957" on="0"/>
        <pt x="449" y="957" on="1"/>
        <pt x="525" y="957" on="0"/>
        <pt x="525" y="883" on="1"/>
        <pt x="525" y="844" on="0"/>
        <pt x="488" y="808" on="0"/>
      </contour>
      <contour>
        <pt x="74" y="740" on="1"/>
        <pt x="555" y="740" on="1"/>
        <pt x="555" y="631" on="1"/>
        <pt x="208" y="631" on="1"/>
        <pt x="208" y="428" on="1"/>
        <pt x="524" y="428" on="1"/>
        <pt x="524" y="318" on="1"/>
        <pt x="208" y="318" on="1"/>
        <pt x="208" y="109" on="1"/>
        <pt x="564" y="109" on="1"/>
        <pt x="564" y="0" on="1"/>
        <pt x="74" y="0" on="1"/>
      </contour>
    </TTGlyph>
    <TTGlyph name="Edieresis.sc" xMin="70" yMin="0" xMax="514" yMax="764">
      <contour>
        <pt x="176" y="628" on="1"/>
        <pt x="138" y="628" on="0"/>
        <pt x="105" y="660" on="0"/>
        <pt x="105" y="696" on="1"/>
        <pt x="105" y="731" on="0"/>
        <pt x="138" y="764" on="0"/>
        <pt x="176" y="764" on="1"/>
        <pt x="248" y="764" on="0"/>
        <pt x="248" y="696" on="1"/>
        <pt x="248" y="628" on="0"/>
      </contour>
      <contour>
        <pt x="410" y="628" on="1"/>
        <pt x="373" y="628" on="0"/>
        <pt x="339" y="660" on="0"/>
        <pt x="339" y="696" on="1"/>
        <pt x="339" y="764" on="0"/>
        <pt x="410" y="764" on="1"/>
        <pt x="482" y="764" on="0"/>
        <pt x="482" y="696" on="1"/>
        <pt x="482" y="628" on="0"/>
      </contour>
      <contour>
        <pt x="70" y="577" on="1"/>
        <pt x="506" y="577" on="1"/>
        <pt x="506" y="478" on="1"/>
        <pt x="198" y="478" on="1"/>
        <pt x="198" y="336" on="1"/>
        <pt x="478" y="336" on="1"/>
        <pt x="478" y="246" on="1"/>
        <pt x="198" y="246" on="1"/>
        <pt x="198" y="99" on="1"/>
        <pt x="514" y="99" on="1"/>
        <pt x="514" y="0" on="1"/>
        <pt x="70" y="0" on="1"/>
      </contour>
    </TTGlyph>
    <TTGlyph name="Edotaccent" xMin="74" yMin="0" xMax="564" yMax="953">
      <contour>
        <pt x="313" y="804" on="1"/>
        <pt x="273" y="804" on="0"/>
        <pt x="237" y="839" on="0"/>
        <pt x="237" y="878" on="1"/>
        <pt x="237" y="917" on="0"/>
        <pt x="273" y="953" on="0"/>
        <pt x="313" y="953" on="1"/>
        <pt x="390" y="953" on="0"/>
        <pt x="390" y="878" on="1"/>
        <pt x="390" y="804" on="0"/>
      </contour>
      <contour>
        <pt x="74" y="740" on="1"/>
        <pt x="555" y="740" on="1"/>
        <pt x="555" y="631" on="1"/>
        <pt x="208" y="631" on="1"/>
        <pt x="208" y="428" on="1"/>
        <pt x="524" y="428" on="1"/>
        <pt x="524" y="318" on="1"/>
        <pt x="208" y="318" on="1"/>
        <pt x="208" y="109" on="1"/>
        <pt x="564" y="109" on="1"/>
        <pt x="564" y="0" on="1"/>
        <pt x="74" y="0" on="1"/>
      </contour>
    </TTGlyph>
    <TTGlyph name="Edotaccent.sc" xMin="70" yMin="0" xMax="514" yMax="761">
      <contour>
        <pt x="287" y="625" on="1"/>
        <pt x="249" y="625" on="0"/>
        <pt x="215" y="657" on="0"/>
        <pt x="215" y="694" on="1"/>
        <pt x="215" y="729" on="0"/>
        <pt x="249" y="761" on="0"/>
        <pt x="287" y="761" on="1"/>
        <pt x="358" y="761" on="0"/>
        <pt x="358" y="694" on="1"/>
        <pt x="358" y="658" on="0"/>
        <pt x="324" y="625" on="0"/>
      </contour>
      <contour>
        <pt x="70" y="577" on="1"/>
        <pt x="506" y="577" on="1"/>
        <pt x="506" y="478" on="1"/>
        <pt x="198" y="478" on="1"/>
        <pt x="198" y="336" on="1"/>
        <pt x="478" y="336" on="1"/>
        <pt x="478" y="246" on="1"/>
        <pt x="198" y="246" on="1"/>
        <pt x="198" y="99" on="1"/>
        <pt x="514" y="99" on="1"/>
        <pt x="514" y="0" on="1"/>
        <pt x="70" y="0" on="1"/>
      </contour>
    </TTGlyph>
    <TTGlyph name="Edotbelow" xMin="74" yMin="-196" xMax="564" yMax="740">
      <contour>
        <pt x="74" y="740" on="1"/>
        <pt x="555" y="740" on="1"/>
        <pt x="555" y="631" on="1"/>
        <pt x="208" y="631" on="1"/>
        <pt x="208" y="428" on="1"/>
        <pt x="524" y="428" on="1"/>
        <pt x="524" y="318" on="1"/>
        <pt x="208" y="318" on="1"/>
        <pt x="208" y="109" on="1"/>
        <pt x="564" y="109" on="1"/>
        <pt x="564" y="0" on="1"/>
        <pt x="74" y="0" on="1"/>
      </contour>
      <contour>
        <pt x="331" y="-196" on="1"/>
        <pt x="267" y="-196" on="0"/>
        <pt x="267" y="-134" on="1"/>
        <pt x="267" y="-101" on="0"/>
        <pt x="298" y="-72" on="0"/>
        <pt x="331" y="-72" on="1"/>
        <pt x="364" y="-72" on="0"/>
        <pt x="394" y="-102" on="0"/>
        <pt x="394" y="-134" on="1"/>
        <pt x="394" y="-166" on="0"/>
        <pt x="364" y="-196" on="0"/>
      </contour>
    </TTGlyph>
    <TTGlyph name="Edotbelow.sc" xMin="70" yMin="-159" xMax="514" yMax="577">
      <contour>
        <pt x="302" y="-159" on="1"/>
        <pt x="272" y="-159" on="0"/>
        <pt x="244" y="-135" on="0"/>
        <pt x="244" y="-106" on="1"/>
        <pt x="244" y="-77" on="0"/>
        <pt x="272" y="-51" on="0"/>
        <pt x="302" y="-51" on="1"/>
        <pt x="361" y="-51" on="0"/>
        <pt x="361" y="-106" on="1"/>
        <pt x="361" y="-159" on="0"/>
      </contour>
      <contour>
        <pt x="70" y="577" on="1"/>
        <pt x="506" y="577" on="1"/>
        <pt x="506" y="478" on="1"/>
        <pt x="198" y="478" on="1"/>
        <pt x="198" y="336" on="1"/>
        <pt x="478" y="336" on="1"/>
        <pt x="478" y="246" on="1"/>
        <pt x="198" y="246" on="1"/>
        <pt x="198" y="99" on="1"/>
        <pt x="514" y="99" on="1"/>
        <pt x="514" y="0" on="1"/>
        <pt x="70" y="0" on="1"/>
      </contour>
    </TTGlyph>
    <TTGlyph name="Egrave" xMin="74" yMin="0" xMax="564" yMax="963">
      <contour>
        <pt x="275" y="797" on="1"/>
        <pt x="167" y="963" on="1"/>
        <pt x="303" y="963" on="1"/>
        <pt x="373" y="809" on="1"/>
      </contour>
      <contour>
        <pt x="74" y="740" on="1"/>
        <pt x="555" y="740" on="1"/>
        <pt x="555" y="631" on="1"/>
        <pt x="208" y="631" on="1"/>
        <pt x="208" y="428" on="1"/>
        <pt x="524" y="428" on="1"/>
        <pt x="524" y="318" on="1"/>
        <pt x="208" y="318" on="1"/>
        <pt x="208" y="109" on="1"/>
        <pt x="564" y="109" on="1"/>
        <pt x="564" y="0" on="1"/>
        <pt x="74" y="0" on="1"/>
      </contour>
    </TTGlyph>
    <TTGlyph name="Egrave.sc" xMin="70" yMin="0" xMax="514" yMax="762">
      <contour>
        <pt x="70" y="577" on="1"/>
        <pt x="506" y="577" on="1"/>
        <pt x="506" y="478" on="1"/>
        <pt x="198" y="478" on="1"/>
        <pt x="198" y="336" on="1"/>
        <pt x="478" y="336" on="1"/>
        <pt x="478" y="246" on="1"/>
        <pt x="198" y="246" on="1"/>
        <pt x="198" y="99" on="1"/>
        <pt x="514" y="99" on="1"/>
        <pt x="514" y="0" on="1"/>
        <pt x="70" y="0" on="1"/>
      </contour>
      <contour>
        <pt x="154" y="762" on="1"/>
        <pt x="283" y="762" on="1"/>
        <pt x="344" y="632" on="1"/>
        <pt x="252" y="623" on="1"/>
      </contour>
    </TTGlyph>
    <TTGlyph name="Einvertedbreve" xMin="74" yMin="0" xMax="564" yMax="979">
      <contour>
        <pt x="74" y="740" on="1"/>
        <pt x="555" y="740" on="1"/>
        <pt x="555" y="631" on="1"/>
        <pt x="208" y="631" on="1"/>
        <pt x="208" y="428" on="1"/>
        <pt x="524" y="428" on="1"/>
        <pt x="524" y="318" on="1"/>
        <pt x="208" y="318" on="1"/>
        <pt x="208" y="109" on="1"/>
        <pt x="564" y="109" on="1"/>
        <pt x="564" y="0" on="1"/>
        <pt x="74" y="0" on="1"/>
      </contour>
      <contour>
        <pt x="414" y="815" on="1"/>
        <pt x="414" y="863" on="0"/>
        <pt x="368" y="911" on="0"/>
        <pt x="316" y="911" on="1"/>
        <pt x="263" y="911" on="0"/>
        <pt x="217" y="863" on="0"/>
        <pt x="217" y="815" on="1"/>
        <pt x="126" y="815" on="1"/>
        <pt x="126" y="852" on="0"/>
        <pt x="149" y="912" on="0"/>
        <pt x="195" y="955" on="0"/>
        <pt x="267" y="979" on="0"/>
        <pt x="316" y="979" on="1"/>
        <pt x="414" y="979" on="0"/>
        <pt x="507" y="890" on="0"/>
        <pt x="507" y="815" on="1"/>
      </contour>
    </TTGlyph>
    <TTGlyph name="Einvertedbreve.sc" xMin="70" yMin="0" xMax="514" yMax="771">
      <contour>
        <pt x="116" y="635" on="1"/>
        <pt x="116" y="695" on="0"/>
        <pt x="198" y="771" on="0"/>
        <pt x="290" y="771" on="1"/>
        <pt x="380" y="771" on="0"/>
        <pt x="463" y="696" on="0"/>
        <pt x="463" y="635" on="1"/>
        <pt x="377" y="635" on="1"/>
        <pt x="377" y="673" on="0"/>
        <pt x="338" y="709" on="0"/>
        <pt x="290" y="709" on="1"/>
        <pt x="242" y="709" on="0"/>
        <pt x="203" y="673" on="0"/>
        <pt x="203" y="635" on="1"/>
      </contour>
      <contour>
        <pt x="70" y="577" on="1"/>
        <pt x="506" y="577" on="1"/>
        <pt x="506" y="478" on="1"/>
        <pt x="198" y="478" on="1"/>
        <pt x="198" y="336" on="1"/>
        <pt x="478" y="336" on="1"/>
        <pt x="478" y="246" on="1"/>
        <pt x="198" y="246" on="1"/>
        <pt x="198" y="99" on="1"/>
        <pt x="514" y="99" on="1"/>
        <pt x="514" y="0" on="1"/>
        <pt x="70" y="0" on="1"/>
      </contour>
    </TTGlyph>
    <TTGlyph name="Emacron" xMin="74" yMin="0" xMax="564" yMax="931">
      <contour>
        <pt x="147" y="931" on="1"/>
        <pt x="484" y="931" on="1"/>
        <pt x="484" y="840" on="1"/>
        <pt x="147" y="840" on="1"/>
      </contour>
      <contour>
        <pt x="74" y="740" on="1"/>
        <pt x="555" y="740" on="1"/>
        <pt x="555" y="631" on="1"/>
        <pt x="208" y="631" on="1"/>
        <pt x="208" y="428" on="1"/>
        <pt x="524" y="428" on="1"/>
        <pt x="524" y="318" on="1"/>
        <pt x="208" y="318" on="1"/>
        <pt x="208" y="109" on="1"/>
        <pt x="564" y="109" on="1"/>
        <pt x="564" y="0" on="1"/>
        <pt x="74" y="0" on="1"/>
      </contour>
    </TTGlyph>
    <TTGlyph name="Emacron.sc" xMin="70" yMin="0" xMax="514" yMax="739">
      <contour>
        <pt x="70" y="577" on="1"/>
        <pt x="506" y="577" on="1"/>
        <pt x="506" y="478" on="1"/>
        <pt x="198" y="478" on="1"/>
        <pt x="198" y="336" on="1"/>
        <pt x="478" y="336" on="1"/>
        <pt x="478" y="246" on="1"/>
        <pt x="198" y="246" on="1"/>
        <pt x="198" y="99" on="1"/>
        <pt x="514" y="99" on="1"/>
        <pt x="514" y="0" on="1"/>
        <pt x="70" y="0" on="1"/>
      </contour>
      <contour>
        <pt x="135" y="739" on="1"/>
        <pt x="444" y="739" on="1"/>
        <pt x="444" y="655" on="1"/>
        <pt x="135" y="655" on="1"/>
      </contour>
    </TTGlyph>
    <TTGlyph name="Eng" xMin="74" yMin="-200" xMax="683" yMax="740">
      <contour>
        <pt x="479" y="-171" on="1"/>
        <pt x="531" y="-57" on="0"/>
        <pt x="545" y="37" on="1"/>
        <pt x="257" y="442" on="1"/>
        <pt x="202" y="530" on="1"/>
        <pt x="194" y="529" on="1"/>
        <pt x="194" y="0" on="1"/>
        <pt x="74" y="0" on="1"/>
        <pt x="74" y="740" on="1"/>
        <pt x="183" y="740" on="1"/>
        <pt x="501" y="295" on="1"/>
        <pt x="554" y="210" on="1"/>
        <pt x="562" y="210" on="1"/>
        <pt x="562" y="740" on="1"/>
        <pt x="683" y="740" on="1"/>
        <pt x="683" y="101" on="1"/>
        <pt x="683" y="73" on="0"/>
        <pt x="665" y="-2" on="0"/>
        <pt x="635" y="-83" on="0"/>
        <pt x="593" y="-165" on="0"/>
        <pt x="569" y="-200" on="1"/>
      </contour>
    </TTGlyph>
    <TTGlyph name="Eng.sc" xMin="71" yMin="-161" xMax="610" yMax="577">
      <contour>
        <pt x="427" y="-133" on="1"/>
        <pt x="451" y="-85" on="0"/>
        <pt x="479" y="-6" on="0"/>
        <pt x="485" y="30" on="1"/>
        <pt x="242" y="314" on="1"/>
        <pt x="192" y="383" on="1"/>
        <pt x="185" y="383" on="1"/>
        <pt x="185" y="0" on="1"/>
        <pt x="71" y="0" on="1"/>
        <pt x="71" y="577" on="1"/>
        <pt x="173" y="577" on="1"/>
        <pt x="441" y="260" on="1"/>
        <pt x="489" y="194" on="1"/>
        <pt x="496" y="194" on="1"/>
        <pt x="496" y="577" on="1"/>
        <pt x="610" y="577" on="1"/>
        <pt x="610" y="89" on="1"/>
        <pt x="610" y="65" on="0"/>
        <pt x="596" y="4" on="0"/>
        <pt x="570" y="-62" on="0"/>
        <pt x="534" y="-130" on="0"/>
        <pt x="512" y="-161" on="1"/>
      </contour>
    </TTGlyph>
    <TTGlyph name="Eogonek" xMin="74" yMin="-220" xMax="565" yMax="740">
      <contour>
        <pt x="74" y="740" on="1"/>
        <pt x="555" y="740" on="1"/>
        <pt x="555" y="631" on="1"/>
        <pt x="208" y="631" on="1"/>
        <pt x="208" y="428" on="1"/>
        <pt x="524" y="428" on="1"/>
        <pt x="524" y="318" on="1"/>
        <pt x="208" y="318" on="1"/>
        <pt x="208" y="109" on="1"/>
        <pt x="564" y="109" on="1"/>
        <pt x="564" y="-12" on="1"/>
        <pt x="504" y="-38" on="0"/>
        <pt x="452" y="-90" on="0"/>
        <pt x="452" y="-114" on="1"/>
        <pt x="452" y="-144" on="0"/>
        <pt x="491" y="-144" on="1"/>
        <pt x="506" y="-144" on="0"/>
        <pt x="547" y="-137" on="0"/>
        <pt x="565" y="-131" on="1"/>
        <pt x="565" y="-208" on="1"/>
        <pt x="527" y="-220" on="0"/>
        <pt x="486" y="-220" on="1"/>
        <pt x="364" y="-220" on="0"/>
        <pt x="364" y="-129" on="1"/>
        <pt x="364" y="-93" on="0"/>
        <pt x="408" y="-30" on="0"/>
        <pt x="456" y="0" on="1"/>
        <pt x="74" y="0" on="1"/>
      </contour>
    </TTGlyph>
    <TTGlyph name="Eogonek.sc" xMin="71" yMin="-172" xMax="514" yMax="577">
      <contour>
        <pt x="442" y="-172" on="1"/>
        <pt x="330" y="-172" on="0"/>
        <pt x="330" y="-98" on="1"/>
        <pt x="330" y="-69" on="0"/>
        <pt x="367" y="-23" on="0"/>
        <pt x="407" y="0" on="1"/>
        <pt x="71" y="0" on="1"/>
        <pt x="71" y="577" on="1"/>
        <pt x="506" y="577" on="1"/>
        <pt x="506" y="478" on="1"/>
        <pt x="198" y="478" on="1"/>
        <pt x="198" y="336" on="1"/>
        <pt x="478" y="336" on="1"/>
        <pt x="478" y="246" on="1"/>
        <pt x="198" y="246" on="1"/>
        <pt x="198" y="99" on="1"/>
        <pt x="514" y="99" on="1"/>
        <pt x="514" y="-7" on="1"/>
        <pt x="456" y="-29" on="0"/>
        <pt x="414" y="-66" on="0"/>
        <pt x="414" y="-82" on="1"/>
        <pt x="414" y="-102" on="0"/>
        <pt x="447" y="-102" on="1"/>
        <pt x="461" y="-102" on="0"/>
        <pt x="500" y="-96" on="0"/>
        <pt x="514" y="-92" on="1"/>
        <pt x="514" y="-162" on="1"/>
        <pt x="480" y="-172" on="0"/>
      </contour>
    </TTGlyph>
    <TTGlyph name="Eth" xMin="2" yMin="-12" xMax="686" yMax="750">
      <contour>
        <pt x="2" y="423" on="1"/>
        <pt x="92" y="423" on="1"/>
        <pt x="92" y="737" on="1"/>
        <pt x="157" y="743" on="0"/>
        <pt x="265" y="750" on="0"/>
        <pt x="305" y="750" on="1"/>
        <pt x="405" y="750" on="0"/>
        <pt x="549" y="706" on="0"/>
        <pt x="642" y="613" on="0"/>
        <pt x="686" y="469" on="0"/>
        <pt x="686" y="369" on="1"/>
        <pt x="686" y="268" on="0"/>
        <pt x="640" y="123" on="0"/>
        <pt x="542" y="31" on="0"/>
        <pt x="387" y="-12" on="0"/>
        <pt x="279" y="-12" on="1"/>
        <pt x="229" y="-12" on="0"/>
        <pt x="131" y="-6" on="0"/>
        <pt x="92" y="0" on="1"/>
        <pt x="92" y="320" on="1"/>
        <pt x="2" y="320" on="1"/>
      </contour>
      <contour>
        <pt x="326" y="97" on="1"/>
        <pt x="386" y="97" on="0"/>
        <pt x="470" y="126" on="0"/>
        <pt x="523" y="191" on="0"/>
        <pt x="547" y="295" on="0"/>
        <pt x="547" y="370" on="1"/>
        <pt x="547" y="444" on="0"/>
        <pt x="523" y="547" on="0"/>
        <pt x="470" y="611" on="0"/>
        <pt x="385" y="640" on="0"/>
        <pt x="324" y="640" on="1"/>
        <pt x="302" y="640" on="0"/>
        <pt x="251" y="637" on="0"/>
        <pt x="225" y="634" on="1"/>
        <pt x="225" y="423" on="1"/>
        <pt x="361" y="423" on="1"/>
        <pt x="361" y="320" on="1"/>
        <pt x="225" y="320" on="1"/>
        <pt x="225" y="105" on="1"/>
        <pt x="254" y="101" on="0"/>
        <pt x="301" y="97" on="0"/>
      </contour>
    </TTGlyph>
    <TTGlyph name="Eth.sc" xMin="9" yMin="-9" xMax="624" yMax="585">
      <contour>
        <pt x="9" y="336" on="1"/>
        <pt x="87" y="336" on="1"/>
        <pt x="87" y="576" on="1"/>
        <pt x="147" y="580" on="0"/>
        <pt x="247" y="585" on="0"/>
        <pt x="283" y="585" on="1"/>
        <pt x="373" y="585" on="0"/>
        <pt x="502" y="551" on="0"/>
        <pt x="585" y="478" on="0"/>
        <pt x="624" y="366" on="0"/>
        <pt x="624" y="288" on="1"/>
        <pt x="624" y="208" on="0"/>
        <pt x="583" y="96" on="0"/>
        <pt x="495" y="24" on="0"/>
        <pt x="356" y="-9" on="0"/>
        <pt x="258" y="-9" on="1"/>
        <pt x="212" y="-9" on="0"/>
        <pt x="122" y="-4" on="0"/>
        <pt x="87" y="1" on="1"/>
        <pt x="87" y="243" on="1"/>
        <pt x="9" y="243" on="1"/>
      </contour>
      <contour>
        <pt x="305" y="94" on="1"/>
        <pt x="356" y="94" on="0"/>
        <pt x="427" y="114" on="0"/>
        <pt x="472" y="159" on="0"/>
        <pt x="493" y="234" on="0"/>
        <pt x="493" y="288" on="1"/>
        <pt x="493" y="342" on="0"/>
        <pt x="472" y="416" on="0"/>
        <pt x="427" y="462" on="0"/>
        <pt x="353" y="482" on="0"/>
        <pt x="301" y="482" on="1"/>
        <pt x="282" y="482" on="0"/>
        <pt x="238" y="480" on="0"/>
        <pt x="214" y="478" on="1"/>
        <pt x="214" y="336" on="1"/>
        <pt x="330" y="336" on="1"/>
        <pt x="330" y="243" on="1"/>
        <pt x="214" y="243" on="1"/>
        <pt x="214" y="99" on="1"/>
        <pt x="239" y="96" on="0"/>
        <pt x="282" y="94" on="0"/>
      </contour>
    </TTGlyph>
    <TTGlyph name="Etilde" xMin="74" yMin="0" xMax="564" yMax="952">
      <contour>
        <pt x="116" y="852" on="1"/>
        <pt x="145" y="901" on="0"/>
        <pt x="218" y="952" on="0"/>
        <pt x="253" y="952" on="1"/>
        <pt x="276" y="952" on="0"/>
        <pt x="318" y="939" on="0"/>
        <pt x="359" y="924" on="0"/>
        <pt x="401" y="912" on="0"/>
        <pt x="423" y="912" on="1"/>
        <pt x="444" y="912" on="0"/>
        <pt x="484" y="930" on="0"/>
        <pt x="507" y="950" on="1"/>
        <pt x="531" y="924" on="1"/>
        <pt x="504" y="874" on="0"/>
        <pt x="429" y="823" on="0"/>
        <pt x="394" y="823" on="1"/>
        <pt x="372" y="823" on="0"/>
        <pt x="330" y="835" on="0"/>
        <pt x="288" y="850" on="0"/>
        <pt x="246" y="862" on="0"/>
        <pt x="225" y="862" on="1"/>
        <pt x="203" y="862" on="0"/>
        <pt x="163" y="845" on="0"/>
        <pt x="140" y="825" on="1"/>
      </contour>
      <contour>
        <pt x="74" y="740" on="1"/>
        <pt x="555" y="740" on="1"/>
        <pt x="555" y="631" on="1"/>
        <pt x="208" y="631" on="1"/>
        <pt x="208" y="428" on="1"/>
        <pt x="524" y="428" on="1"/>
        <pt x="524" y="318" on="1"/>
        <pt x="208" y="318" on="1"/>
        <pt x="208" y="109" on="1"/>
        <pt x="564" y="109" on="1"/>
        <pt x="564" y="0" on="1"/>
        <pt x="74" y="0" on="1"/>
      </contour>
    </TTGlyph>
    <TTGlyph name="Etilde.sc" xMin="70" yMin="0" xMax="514" yMax="754">
      <contour>
        <pt x="107" y="665" on="1"/>
        <pt x="133" y="709" on="0"/>
        <pt x="201" y="754" on="0"/>
        <pt x="233" y="754" on="1"/>
        <pt x="254" y="754" on="0"/>
        <pt x="292" y="745" on="0"/>
        <pt x="329" y="733" on="0"/>
        <pt x="367" y="724" on="0"/>
        <pt x="387" y="724" on="1"/>
        <pt x="407" y="724" on="0"/>
        <pt x="443" y="736" on="0"/>
        <pt x="464" y="753" on="1"/>
        <pt x="485" y="731" on="1"/>
        <pt x="459" y="686" on="0"/>
        <pt x="391" y="641" on="0"/>
        <pt x="359" y="641" on="1"/>
        <pt x="339" y="641" on="0"/>
        <pt x="300" y="650" on="0"/>
        <pt x="262" y="662" on="0"/>
        <pt x="223" y="671" on="0"/>
        <pt x="204" y="671" on="1"/>
        <pt x="185" y="671" on="0"/>
        <pt x="148" y="659" on="0"/>
        <pt x="128" y="642" on="1"/>
      </contour>
      <contour>
        <pt x="70" y="577" on="1"/>
        <pt x="506" y="577" on="1"/>
        <pt x="506" y="478" on="1"/>
        <pt x="198" y="478" on="1"/>
        <pt x="198" y="336" on="1"/>
        <pt x="478" y="336" on="1"/>
        <pt x="478" y="246" on="1"/>
        <pt x="198" y="246" on="1"/>
        <pt x="198" y="99" on="1"/>
        <pt x="514" y="99" on="1"/>
        <pt x="514" y="0" on="1"/>
        <pt x="70" y="0" on="1"/>
      </contour>
    </TTGlyph>
    <TTGlyph name="Euro" xMin="36" yMin="-10" xMax="594" yMax="749">
      <contour>
        <pt x="36" y="493" on="1"/>
        <pt x="122" y="493" on="1"/>
        <pt x="146" y="624" on="0"/>
        <pt x="314" y="749" on="0"/>
        <pt x="468" y="749" on="1"/>
        <pt x="510" y="749" on="0"/>
        <pt x="571" y="741" on="0"/>
        <pt x="594" y="736" on="1"/>
        <pt x="562" y="629" on="1"/>
        <pt x="548" y="631" on="0"/>
        <pt x="510" y="635" on="0"/>
        <pt x="491" y="635" on="1"/>
        <pt x="437" y="635" on="0"/>
        <pt x="356" y="620" on="0"/>
        <pt x="300" y="587" on="0"/>
        <pt x="266" y="533" on="0"/>
        <pt x="257" y="493" on="1"/>
        <pt x="519" y="493" on="1"/>
        <pt x="500" y="415" on="1"/>
        <pt x="248" y="415" on="1"/>
        <pt x="247" y="404" on="0"/>
        <pt x="247" y="381" on="0"/>
        <pt x="247" y="369" on="1"/>
        <pt x="247" y="357" on="0"/>
        <pt x="247" y="336" on="0"/>
        <pt x="248" y="325" on="1"/>
        <pt x="484" y="325" on="1"/>
        <pt x="465" y="246" on="1"/>
        <pt x="258" y="246" on="1"/>
        <pt x="275" y="168" on="0"/>
        <pt x="383" y="104" on="0"/>
        <pt x="490" y="104" on="1"/>
        <pt x="539" y="104" on="0"/>
        <pt x="586" y="114" on="1"/>
        <pt x="586" y="2" on="1"/>
        <pt x="566" y="-4" on="0"/>
        <pt x="508" y="-10" on="0"/>
        <pt x="473" y="-10" on="1"/>
        <pt x="318" y="-9" on="0"/>
        <pt x="147" y="116" on="0"/>
        <pt x="122" y="246" on="1"/>
        <pt x="36" y="246" on="1"/>
        <pt x="36" y="325" on="1"/>
        <pt x="113" y="325" on="1"/>
        <pt x="112" y="336" on="0"/>
        <pt x="112" y="358" on="0"/>
        <pt x="112" y="369" on="1"/>
        <pt x="112" y="381" on="0"/>
        <pt x="112" y="404" on="0"/>
        <pt x="113" y="415" on="1"/>
        <pt x="36" y="415" on="1"/>
      </contour>
    </TTGlyph>
    <TTGlyph name="Euro.tab" xMin="18" yMin="-10" xMax="561" yMax="749">
      <contour>
        <pt x="18" y="493" on="1"/>
        <pt x="102" y="493" on="1"/>
        <pt x="126" y="625" on="0"/>
        <pt x="289" y="749" on="0"/>
        <pt x="438" y="749" on="1"/>
        <pt x="479" y="749" on="0"/>
        <pt x="538" y="741" on="0"/>
        <pt x="561" y="736" on="1"/>
        <pt x="530" y="629" on="1"/>
        <pt x="516" y="631" on="0"/>
        <pt x="478" y="635" on="0"/>
        <pt x="460" y="635" on="1"/>
        <pt x="361" y="635" on="0"/>
        <pt x="256" y="571" on="0"/>
        <pt x="239" y="493" on="1"/>
        <pt x="488" y="493" on="1"/>
        <pt x="470" y="415" on="1"/>
        <pt x="226" y="415" on="1"/>
        <pt x="225" y="407" on="0"/>
        <pt x="224" y="377" on="0"/>
        <pt x="224" y="369" on="1"/>
        <pt x="224" y="361" on="0"/>
        <pt x="225" y="332" on="0"/>
        <pt x="226" y="325" on="1"/>
        <pt x="455" y="325" on="1"/>
        <pt x="437" y="246" on="1"/>
        <pt x="239" y="246" on="1"/>
        <pt x="257" y="170" on="0"/>
        <pt x="361" y="104" on="0"/>
        <pt x="460" y="104" on="1"/>
        <pt x="483" y="104" on="0"/>
        <pt x="530" y="109" on="0"/>
        <pt x="554" y="114" on="1"/>
        <pt x="554" y="2" on="1"/>
        <pt x="534" y="-4" on="0"/>
        <pt x="477" y="-10" on="0"/>
        <pt x="443" y="-10" on="1"/>
        <pt x="292" y="-9" on="0"/>
        <pt x="126" y="116" on="0"/>
        <pt x="101" y="246" on="1"/>
        <pt x="18" y="246" on="1"/>
        <pt x="18" y="325" on="1"/>
        <pt x="91" y="325" on="1"/>
        <pt x="91" y="334" on="0"/>
        <pt x="90" y="359" on="0"/>
        <pt x="90" y="369" on="1"/>
        <pt x="90" y="380" on="0"/>
        <pt x="91" y="405" on="0"/>
        <pt x="91" y="415" on="1"/>
        <pt x="18" y="415" on="1"/>
      </contour>
    </TTGlyph>
    <TTGlyph name="F" xMin="74" yMin="0" xMax="547" yMax="740">
      <contour>
        <pt x="74" y="740" on="1"/>
        <pt x="547" y="740" on="1"/>
        <pt x="547" y="631" on="1"/>
        <pt x="208" y="631" on="1"/>
        <pt x="208" y="414" on="1"/>
        <pt x="516" y="414" on="1"/>
        <pt x="516" y="305" on="1"/>
        <pt x="208" y="305" on="1"/>
        <pt x="208" y="0" on="1"/>
        <pt x="74" y="0" on="1"/>
      </contour>
    </TTGlyph>
    <TTGlyph name="F.sc" xMin="70" yMin="0" xMax="500" yMax="577">
      <contour>
        <pt x="70" y="577" on="1"/>
        <pt x="500" y="577" on="1"/>
        <pt x="500" y="475" on="1"/>
        <pt x="198" y="475" on="1"/>
        <pt x="198" y="324" on="1"/>
        <pt x="471" y="324" on="1"/>
        <pt x="471" y="228" on="1"/>
        <pt x="198" y="228" on="1"/>
        <pt x="198" y="0" on="1"/>
        <pt x="70" y="0" on="1"/>
      </contour>
    </TTGlyph>
    <TTGlyph name="F_B.sc" xMin="70" yMin="-8" xMax="1082" yMax="585">
      <contour>
        <pt x="70" y="577" on="1"/>
        <pt x="500" y="577" on="1"/>
        <pt x="500" y="475" on="1"/>
        <pt x="198" y="475" on="1"/>
        <pt x="198" y="324" on="1"/>
        <pt x="471" y="324" on="1"/>
        <pt x="471" y="228" on="1"/>
        <pt x="198" y="228" on="1"/>
        <pt x="198" y="0" on="1"/>
        <pt x="70" y="0" on="1"/>
      </contour>
      <contour>
        <pt x="813" y="-8" on="1"/>
        <pt x="703" y="-8" on="0"/>
        <pt x="589" y="4" on="1"/>
        <pt x="589" y="573" on="1"/>
        <pt x="653" y="579" on="0"/>
        <pt x="752" y="585" on="0"/>
        <pt x="800" y="585" on="1"/>
        <pt x="937" y="585" on="0"/>
        <pt x="1061" y="508" on="0"/>
        <pt x="1061" y="423" on="1"/>
        <pt x="1061" y="373" on="0"/>
        <pt x="1006" y="309" on="0"/>
        <pt x="952" y="298" on="1"/>
        <pt x="952" y="295" on="1"/>
        <pt x="1015" y="284" on="0"/>
        <pt x="1082" y="214" on="0"/>
        <pt x="1082" y="157" on="1"/>
        <pt x="1082" y="-8" on="0"/>
      </contour>
      <contour>
        <pt x="818" y="83" on="1"/>
        <pt x="956" y="83" on="0"/>
        <pt x="956" y="168" on="1"/>
        <pt x="956" y="213" on="0"/>
        <pt x="892" y="251" on="0"/>
        <pt x="820" y="251" on="1"/>
        <pt x="710" y="251" on="1"/>
        <pt x="710" y="87" on="1"/>
        <pt x="724" y="85" on="0"/>
        <pt x="774" y="83" on="0"/>
      </contour>
      <contour>
        <pt x="812" y="332" on="1"/>
        <pt x="880" y="332" on="0"/>
        <pt x="935" y="369" on="0"/>
        <pt x="935" y="414" on="1"/>
        <pt x="935" y="458" on="0"/>
        <pt x="877" y="494" on="0"/>
        <pt x="809" y="494" on="1"/>
        <pt x="780" y="494" on="0"/>
        <pt x="732" y="492" on="0"/>
        <pt x="710" y="489" on="1"/>
        <pt x="710" y="332" on="1"/>
      </contour>
    </TTGlyph>
    <TTGlyph name="F_F.sc" xMin="70" yMin="0" xMax="1018" yMax="577">
      <contour>
        <pt x="70" y="577" on="1"/>
        <pt x="500" y="577" on="1"/>
        <pt x="500" y="475" on="1"/>
        <pt x="198" y="475" on="1"/>
        <pt x="198" y="324" on="1"/>
        <pt x="471" y="324" on="1"/>
        <pt x="471" y="228" on="1"/>
        <pt x="198" y="228" on="1"/>
        <pt x="198" y="0" on="1"/>
        <pt x="70" y="0" on="1"/>
      </contour>
      <contour>
        <pt x="588" y="577" on="1"/>
        <pt x="1018" y="577" on="1"/>
        <pt x="1018" y="475" on="1"/>
        <pt x="716" y="475" on="1"/>
        <pt x="716" y="324" on="1"/>
        <pt x="989" y="324" on="1"/>
        <pt x="989" y="228" on="1"/>
        <pt x="716" y="228" on="1"/>
        <pt x="716" y="0" on="1"/>
        <pt x="588" y="0" on="1"/>
      </contour>
    </TTGlyph>
    <TTGlyph name="F_F_B.sc" xMin="70" yMin="-8" xMax="1599" yMax="585">
      <contour>
        <pt x="70" y="577" on="1"/>
        <pt x="500" y="577" on="1"/>
        <pt x="500" y="475" on="1"/>
        <pt x="198" y="475" on="1"/>
        <pt x="198" y="324" on="1"/>
        <pt x="471" y="324" on="1"/>
        <pt x="471" y="228" on="1"/>
        <pt x="198" y="228" on="1"/>
        <pt x="198" y="0" on="1"/>
        <pt x="70" y="0" on="1"/>
      </contour>
      <contour>
        <pt x="588" y="577" on="1"/>
        <pt x="1018" y="577" on="1"/>
        <pt x="1018" y="475" on="1"/>
        <pt x="716" y="475" on="1"/>
        <pt x="716" y="324" on="1"/>
        <pt x="989" y="324" on="1"/>
        <pt x="989" y="228" on="1"/>
        <pt x="716" y="228" on="1"/>
        <pt x="716" y="0" on="1"/>
        <pt x="588" y="0" on="1"/>
      </contour>
      <contour>
        <pt x="1330" y="-8" on="1"/>
        <pt x="1220" y="-8" on="0"/>
        <pt x="1106" y="4" on="1"/>
        <pt x="1106" y="573" on="1"/>
        <pt x="1170" y="579" on="0"/>
        <pt x="1269" y="585" on="0"/>
        <pt x="1317" y="585" on="1"/>
        <pt x="1454" y="585" on="0"/>
        <pt x="1578" y="508" on="0"/>
        <pt x="1578" y="423" on="1"/>
        <pt x="1578" y="373" on="0"/>
        <pt x="1523" y="309" on="0"/>
        <pt x="1469" y="298" on="1"/>
        <pt x="1469" y="295" on="1"/>
        <pt x="1532" y="284" on="0"/>
        <pt x="1599" y="214" on="0"/>
        <pt x="1599" y="157" on="1"/>
        <pt x="1599" y="-8" on="0"/>
      </contour>
      <contour>
        <pt x="1335" y="83" on="1"/>
        <pt x="1473" y="83" on="0"/>
        <pt x="1473" y="168" on="1"/>
        <pt x="1473" y="213" on="0"/>
        <pt x="1409" y="251" on="0"/>
        <pt x="1337" y="251" on="1"/>
        <pt x="1227" y="251" on="1"/>
        <pt x="1227" y="87" on="1"/>
        <pt x="1241" y="85" on="0"/>
        <pt x="1291" y="83" on="0"/>
      </contour>
      <contour>
        <pt x="1329" y="332" on="1"/>
        <pt x="1397" y="332" on="0"/>
        <pt x="1452" y="369" on="0"/>
        <pt x="1452" y="414" on="1"/>
        <pt x="1452" y="458" on="0"/>
        <pt x="1394" y="494" on="0"/>
        <pt x="1326" y="494" on="1"/>
        <pt x="1297" y="494" on="0"/>
        <pt x="1249" y="492" on="0"/>
        <pt x="1227" y="489" on="1"/>
        <pt x="1227" y="332" on="1"/>
      </contour>
    </TTGlyph>
    <TTGlyph name="F_F_H.sc" xMin="70" yMin="0" xMax="1649" yMax="577">
      <contour>
        <pt x="70" y="577" on="1"/>
        <pt x="500" y="577" on="1"/>
        <pt x="500" y="475" on="1"/>
        <pt x="198" y="475" on="1"/>
        <pt x="198" y="324" on="1"/>
        <pt x="471" y="324" on="1"/>
        <pt x="471" y="228" on="1"/>
        <pt x="198" y="228" on="1"/>
        <pt x="198" y="0" on="1"/>
        <pt x="70" y="0" on="1"/>
      </contour>
      <contour>
        <pt x="588" y="577" on="1"/>
        <pt x="1018" y="577" on="1"/>
        <pt x="1018" y="475" on="1"/>
        <pt x="716" y="475" on="1"/>
        <pt x="716" y="324" on="1"/>
        <pt x="989" y="324" on="1"/>
        <pt x="989" y="228" on="1"/>
        <pt x="716" y="228" on="1"/>
        <pt x="716" y="0" on="1"/>
        <pt x="588" y="0" on="1"/>
      </contour>
      <contour>
        <pt x="1105" y="577" on="1"/>
        <pt x="1233" y="577" on="1"/>
        <pt x="1233" y="347" on="1"/>
        <pt x="1521" y="347" on="1"/>
        <pt x="1521" y="577" on="1"/>
        <pt x="1649" y="577" on="1"/>
        <pt x="1649" y="0" on="1"/>
        <pt x="1521" y="0" on="1"/>
        <pt x="1521" y="245" on="1"/>
        <pt x="1233" y="245" on="1"/>
        <pt x="1233" y="0" on="1"/>
        <pt x="1105" y="0" on="1"/>
      </contour>
    </TTGlyph>
    <TTGlyph name="F_F_I.sc" xMin="70" yMin="0" xMax="1233" yMax="577">
      <contour>
        <pt x="70" y="577" on="1"/>
        <pt x="500" y="577" on="1"/>
        <pt x="500" y="475" on="1"/>
        <pt x="198" y="475" on="1"/>
        <pt x="198" y="324" on="1"/>
        <pt x="471" y="324" on="1"/>
        <pt x="471" y="228" on="1"/>
        <pt x="198" y="228" on="1"/>
        <pt x="198" y="0" on="1"/>
        <pt x="70" y="0" on="1"/>
      </contour>
      <contour>
        <pt x="588" y="577" on="1"/>
        <pt x="1018" y="577" on="1"/>
        <pt x="1018" y="475" on="1"/>
        <pt x="716" y="475" on="1"/>
        <pt x="716" y="324" on="1"/>
        <pt x="989" y="324" on="1"/>
        <pt x="989" y="228" on="1"/>
        <pt x="716" y="228" on="1"/>
        <pt x="716" y="0" on="1"/>
        <pt x="588" y="0" on="1"/>
      </contour>
      <contour>
        <pt x="1105" y="577" on="1"/>
        <pt x="1233" y="577" on="1"/>
        <pt x="1233" y="0" on="1"/>
        <pt x="1105" y="0" on="1"/>
      </contour>
    </TTGlyph>
    <TTGlyph name="F_F_J.sc" xMin="70" yMin="-160" xMax="1244" yMax="577">
      <contour>
        <pt x="70" y="577" on="1"/>
        <pt x="500" y="577" on="1"/>
        <pt x="500" y="475" on="1"/>
        <pt x="198" y="475" on="1"/>
        <pt x="198" y="324" on="1"/>
        <pt x="471" y="324" on="1"/>
        <pt x="471" y="228" on="1"/>
        <pt x="198" y="228" on="1"/>
        <pt x="198" y="0" on="1"/>
        <pt x="70" y="0" on="1"/>
      </contour>
      <contour>
        <pt x="588" y="577" on="1"/>
        <pt x="1018" y="577" on="1"/>
        <pt x="1018" y="475" on="1"/>
        <pt x="716" y="475" on="1"/>
        <pt x="716" y="324" on="1"/>
        <pt x="989" y="324" on="1"/>
        <pt x="989" y="228" on="1"/>
        <pt x="716" y="228" on="1"/>
        <pt x="716" y="0" on="1"/>
        <pt x="588" y="0" on="1"/>
      </contour>
      <contour>
        <pt x="1048" y="-124" on="1"/>
        <pt x="1068" y="-85" on="0"/>
        <pt x="1094" y="-19" on="0"/>
        <pt x="1110" y="44" on="0"/>
        <pt x="1116" y="111" on="0"/>
        <pt x="1116" y="151" on="1"/>
        <pt x="1116" y="577" on="1"/>
        <pt x="1244" y="577" on="1"/>
        <pt x="1244" y="142" on="1"/>
        <pt x="1244" y="102" on="0"/>
        <pt x="1233" y="30" on="0"/>
        <pt x="1206" y="-41" on="0"/>
        <pt x="1163" y="-116" on="0"/>
        <pt x="1131" y="-160" on="1"/>
      </contour>
    </TTGlyph>
    <TTGlyph name="F_F_K.sc" xMin="70" yMin="0" xMax="1645" yMax="577">
      <contour>
        <pt x="70" y="577" on="1"/>
        <pt x="500" y="577" on="1"/>
        <pt x="500" y="475" on="1"/>
        <pt x="198" y="475" on="1"/>
        <pt x="198" y="324" on="1"/>
        <pt x="471" y="324" on="1"/>
        <pt x="471" y="228" on="1"/>
        <pt x="198" y="228" on="1"/>
        <pt x="198" y="0" on="1"/>
        <pt x="70" y="0" on="1"/>
      </contour>
      <contour>
        <pt x="588" y="577" on="1"/>
        <pt x="1018" y="577" on="1"/>
        <pt x="1018" y="475" on="1"/>
        <pt x="716" y="475" on="1"/>
        <pt x="716" y="324" on="1"/>
        <pt x="989" y="324" on="1"/>
        <pt x="989" y="228" on="1"/>
        <pt x="716" y="228" on="1"/>
        <pt x="716" y="0" on="1"/>
        <pt x="588" y="0" on="1"/>
      </contour>
      <contour>
        <pt x="1105" y="577" on="1"/>
        <pt x="1233" y="577" on="1"/>
        <pt x="1233" y="343" on="1"/>
        <pt x="1325" y="343" on="1"/>
        <pt x="1485" y="577" on="1"/>
        <pt x="1629" y="577" on="1"/>
        <pt x="1450" y="322" on="1"/>
        <pt x="1407" y="301" on="1"/>
        <pt x="1407" y="295" on="1"/>
        <pt x="1452" y="275" on="1"/>
        <pt x="1645" y="0" on="1"/>
        <pt x="1501" y="0" on="1"/>
        <pt x="1331" y="241" on="1"/>
        <pt x="1233" y="241" on="1"/>
        <pt x="1233" y="0" on="1"/>
        <pt x="1105" y="0" on="1"/>
      </contour>
    </TTGlyph>
    <TTGlyph name="F_F_L.sc" xMin="70" yMin="0" xMax="1497" yMax="577">
      <contour>
        <pt x="1105" y="577" on="1"/>
        <pt x="1233" y="577" on="1"/>
        <pt x="1233" y="102" on="1"/>
        <pt x="1497" y="102" on="1"/>
        <pt x="1497" y="0" on="1"/>
        <pt x="1105" y="0" on="1"/>
      </contour>
      <contour>
        <pt x="70" y="577" on="1"/>
        <pt x="500" y="577" on="1"/>
        <pt x="500" y="475" on="1"/>
        <pt x="198" y="475" on="1"/>
        <pt x="198" y="324" on="1"/>
        <pt x="471" y="324" on="1"/>
        <pt x="471" y="228" on="1"/>
        <pt x="198" y="228" on="1"/>
        <pt x="198" y="0" on="1"/>
        <pt x="70" y="0" on="1"/>
      </contour>
      <contour>
        <pt x="588" y="577" on="1"/>
        <pt x="1018" y="577" on="1"/>
        <pt x="1018" y="475" on="1"/>
        <pt x="716" y="475" on="1"/>
        <pt x="716" y="324" on="1"/>
        <pt x="989" y="324" on="1"/>
        <pt x="989" y="228" on="1"/>
        <pt x="716" y="228" on="1"/>
        <pt x="716" y="0" on="1"/>
        <pt x="588" y="0" on="1"/>
      </contour>
    </TTGlyph>
    <TTGlyph name="F_F_T.sc" xMin="70" yMin="0" xMax="1532" yMax="577">
      <contour>
        <pt x="1220" y="474" on="1"/>
        <pt x="1036" y="474" on="1"/>
        <pt x="1036" y="577" on="1"/>
        <pt x="1532" y="577" on="1"/>
        <pt x="1532" y="474" on="1"/>
        <pt x="1348" y="474" on="1"/>
        <pt x="1348" y="0" on="1"/>
        <pt x="1220" y="0" on="1"/>
      </contour>
      <contour>
        <pt x="70" y="577" on="1"/>
        <pt x="500" y="577" on="1"/>
        <pt x="500" y="475" on="1"/>
        <pt x="198" y="475" on="1"/>
        <pt x="198" y="324" on="1"/>
        <pt x="471" y="324" on="1"/>
        <pt x="471" y="228" on="1"/>
        <pt x="198" y="228" on="1"/>
        <pt x="198" y="0" on="1"/>
        <pt x="70" y="0" on="1"/>
      </contour>
      <contour>
        <pt x="588" y="577" on="1"/>
        <pt x="1018" y="577" on="1"/>
        <pt x="1018" y="475" on="1"/>
        <pt x="716" y="475" on="1"/>
        <pt x="716" y="324" on="1"/>
        <pt x="989" y="324" on="1"/>
        <pt x="989" y="228" on="1"/>
        <pt x="716" y="228" on="1"/>
        <pt x="716" y="0" on="1"/>
        <pt x="588" y="0" on="1"/>
      </contour>
    </TTGlyph>
    <TTGlyph name="F_H.sc" xMin="70" yMin="0" xMax="1132" yMax="577">
      <contour>
        <pt x="70" y="577" on="1"/>
        <pt x="500" y="577" on="1"/>
        <pt x="500" y="475" on="1"/>
        <pt x="198" y="475" on="1"/>
        <pt x="198" y="324" on="1"/>
        <pt x="471" y="324" on="1"/>
        <pt x="471" y="228" on="1"/>
        <pt x="198" y="228" on="1"/>
        <pt x="198" y="0" on="1"/>
        <pt x="70" y="0" on="1"/>
      </contour>
      <contour>
        <pt x="588" y="577" on="1"/>
        <pt x="716" y="577" on="1"/>
        <pt x="716" y="347" on="1"/>
        <pt x="1004" y="347" on="1"/>
        <pt x="1004" y="577" on="1"/>
        <pt x="1132" y="577" on="1"/>
        <pt x="1132" y="0" on="1"/>
        <pt x="1004" y="0" on="1"/>
        <pt x="1004" y="245" on="1"/>
        <pt x="716" y="245" on="1"/>
        <pt x="716" y="0" on="1"/>
        <pt x="588" y="0" on="1"/>
      </contour>
    </TTGlyph>
    <TTGlyph name="F_I.sc" xMin="70" yMin="0" xMax="716" yMax="577">
      <contour>
        <pt x="70" y="577" on="1"/>
        <pt x="500" y="577" on="1"/>
        <pt x="500" y="475" on="1"/>
        <pt x="198" y="475" on="1"/>
        <pt x="198" y="324" on="1"/>
        <pt x="471" y="324" on="1"/>
        <pt x="471" y="228" on="1"/>
        <pt x="198" y="228" on="1"/>
        <pt x="198" y="0" on="1"/>
        <pt x="70" y="0" on="1"/>
      </contour>
      <contour>
        <pt x="588" y="577" on="1"/>
        <pt x="716" y="577" on="1"/>
        <pt x="716" y="0" on="1"/>
        <pt x="588" y="0" on="1"/>
      </contour>
    </TTGlyph>
    <TTGlyph name="F_J.sc" xMin="70" yMin="-160" xMax="726" yMax="577">
      <contour>
        <pt x="70" y="577" on="1"/>
        <pt x="500" y="577" on="1"/>
        <pt x="500" y="475" on="1"/>
        <pt x="198" y="475" on="1"/>
        <pt x="198" y="324" on="1"/>
        <pt x="471" y="324" on="1"/>
        <pt x="471" y="228" on="1"/>
        <pt x="198" y="228" on="1"/>
        <pt x="198" y="0" on="1"/>
        <pt x="70" y="0" on="1"/>
      </contour>
      <contour>
        <pt x="530" y="-124" on="1"/>
        <pt x="550" y="-85" on="0"/>
        <pt x="576" y="-19" on="0"/>
        <pt x="592" y="44" on="0"/>
        <pt x="598" y="111" on="0"/>
        <pt x="598" y="151" on="1"/>
        <pt x="598" y="577" on="1"/>
        <pt x="726" y="577" on="1"/>
        <pt x="726" y="142" on="1"/>
        <pt x="726" y="102" on="0"/>
        <pt x="715" y="30" on="0"/>
        <pt x="688" y="-41" on="0"/>
        <pt x="645" y="-116" on="0"/>
        <pt x="613" y="-160" on="1"/>
      </contour>
    </TTGlyph>
    <TTGlyph name="F_K.sc" xMin="70" yMin="0" xMax="1128" yMax="577">
      <contour>
        <pt x="70" y="577" on="1"/>
        <pt x="500" y="577" on="1"/>
        <pt x="500" y="475" on="1"/>
        <pt x="198" y="475" on="1"/>
        <pt x="198" y="324" on="1"/>
        <pt x="471" y="324" on="1"/>
        <pt x="471" y="228" on="1"/>
        <pt x="198" y="228" on="1"/>
        <pt x="198" y="0" on="1"/>
        <pt x="70" y="0" on="1"/>
      </contour>
      <contour>
        <pt x="588" y="577" on="1"/>
        <pt x="716" y="577" on="1"/>
        <pt x="716" y="343" on="1"/>
        <pt x="808" y="343" on="1"/>
        <pt x="968" y="577" on="1"/>
        <pt x="1112" y="577" on="1"/>
        <pt x="933" y="322" on="1"/>
        <pt x="890" y="301" on="1"/>
        <pt x="890" y="295" on="1"/>
        <pt x="935" y="275" on="1"/>
        <pt x="1128" y="0" on="1"/>
        <pt x="984" y="0" on="1"/>
        <pt x="814" y="241" on="1"/>
        <pt x="716" y="241" on="1"/>
        <pt x="716" y="0" on="1"/>
        <pt x="588" y="0" on="1"/>
      </contour>
    </TTGlyph>
    <TTGlyph name="F_L.sc" xMin="70" yMin="0" xMax="980" yMax="577">
      <contour>
        <pt x="588" y="577" on="1"/>
        <pt x="716" y="577" on="1"/>
        <pt x="716" y="102" on="1"/>
        <pt x="980" y="102" on="1"/>
        <pt x="980" y="0" on="1"/>
        <pt x="588" y="0" on="1"/>
      </contour>
      <contour>
        <pt x="70" y="577" on="1"/>
        <pt x="500" y="577" on="1"/>
        <pt x="500" y="475" on="1"/>
        <pt x="198" y="475" on="1"/>
        <pt x="198" y="324" on="1"/>
        <pt x="471" y="324" on="1"/>
        <pt x="471" y="228" on="1"/>
        <pt x="198" y="228" on="1"/>
        <pt x="198" y="0" on="1"/>
        <pt x="70" y="0" on="1"/>
      </contour>
    </TTGlyph>
    <TTGlyph name="F_T.sc" xMin="70" yMin="0" xMax="1015" yMax="577">
      <contour>
        <pt x="703" y="474" on="1"/>
        <pt x="519" y="474" on="1"/>
        <pt x="519" y="577" on="1"/>
        <pt x="1015" y="577" on="1"/>
        <pt x="1015" y="474" on="1"/>
        <pt x="831" y="474" on="1"/>
        <pt x="831" y="0" on="1"/>
        <pt x="703" y="0" on="1"/>
      </contour>
      <contour>
        <pt x="70" y="577" on="1"/>
        <pt x="500" y="577" on="1"/>
        <pt x="500" y="475" on="1"/>
        <pt x="198" y="475" on="1"/>
        <pt x="198" y="324" on="1"/>
        <pt x="471" y="324" on="1"/>
        <pt x="471" y="228" on="1"/>
        <pt x="198" y="228" on="1"/>
        <pt x="198" y="0" on="1"/>
        <pt x="70" y="0" on="1"/>
      </contour>
    </TTGlyph>
    <TTGlyph name="G" xMin="41" yMin="-10" xMax="595" yMax="750">
      <contour>
        <pt x="384" y="-10" on="1"/>
        <pt x="209" y="-10" on="0"/>
        <pt x="41" y="176" on="0"/>
        <pt x="41" y="369" on="1"/>
        <pt x="41" y="563" on="0"/>
        <pt x="219" y="750" on="0"/>
        <pt x="402" y="750" on="1"/>
        <pt x="445" y="750" on="0"/>
        <pt x="543" y="739" on="0"/>
        <pt x="588" y="728" on="1"/>
        <pt x="588" y="619" on="1"/>
        <pt x="531" y="630" on="0"/>
        <pt x="448" y="639" on="0"/>
        <pt x="413" y="639" on="1"/>
        <pt x="348" y="639" on="0"/>
        <pt x="259" y="610" on="0"/>
        <pt x="204" y="546" on="0"/>
        <pt x="179" y="443" on="0"/>
        <pt x="179" y="369" on="1"/>
        <pt x="179" y="296" on="0"/>
        <pt x="202" y="194" on="0"/>
        <pt x="253" y="131" on="0"/>
        <pt x="333" y="102" on="0"/>
        <pt x="391" y="102" on="1"/>
        <pt x="408" y="102" on="0"/>
        <pt x="450" y="105" on="0"/>
        <pt x="472" y="107" on="1"/>
        <pt x="472" y="376" on="1"/>
        <pt x="595" y="376" on="1"/>
        <pt x="595" y="17" on="1"/>
        <pt x="538" y="4" on="0"/>
        <pt x="428" y="-10" on="0"/>
      </contour>
    </TTGlyph>
    <TTGlyph name="G.sc" xMin="41" yMin="-9" xMax="541" yMax="586">
      <contour>
        <pt x="348" y="-9" on="1"/>
        <pt x="191" y="-8" on="0"/>
        <pt x="41" y="137" on="0"/>
        <pt x="41" y="288" on="1"/>
        <pt x="41" y="438" on="0"/>
        <pt x="199" y="586" on="0"/>
        <pt x="364" y="586" on="1"/>
        <pt x="403" y="586" on="0"/>
        <pt x="494" y="577" on="0"/>
        <pt x="533" y="568" on="1"/>
        <pt x="533" y="466" on="1"/>
        <pt x="482" y="474" on="0"/>
        <pt x="406" y="481" on="0"/>
        <pt x="375" y="481" on="1"/>
        <pt x="317" y="481" on="0"/>
        <pt x="240" y="461" on="0"/>
        <pt x="193" y="415" on="0"/>
        <pt x="173" y="342" on="0"/>
        <pt x="173" y="288" on="1"/>
        <pt x="173" y="235" on="0"/>
        <pt x="191" y="162" on="0"/>
        <pt x="234" y="117" on="0"/>
        <pt x="304" y="97" on="0"/>
        <pt x="355" y="97" on="1"/>
        <pt x="359" y="97" on="0"/>
        <pt x="377" y="98" on="0"/>
        <pt x="398" y="99" on="0"/>
        <pt x="417" y="101" on="0"/>
        <pt x="423" y="102" on="1"/>
        <pt x="423" y="293" on="1"/>
        <pt x="541" y="293" on="1"/>
        <pt x="541" y="15" on="1"/>
        <pt x="489" y="4" on="0"/>
        <pt x="387" y="-9" on="0"/>
      </contour>
    </TTGlyph>
    <TTGlyph name="Gacute" xMin="41" yMin="-10" xMax="595" yMax="963">
      <contour>
        <pt x="302" y="804" on="1"/>
        <pt x="372" y="963" on="1"/>
        <pt x="508" y="963" on="1"/>
        <pt x="399" y="797" on="1"/>
      </contour>
      <contour>
        <pt x="384" y="-10" on="1"/>
        <pt x="209" y="-10" on="0"/>
        <pt x="41" y="176" on="0"/>
        <pt x="41" y="369" on="1"/>
        <pt x="41" y="563" on="0"/>
        <pt x="219" y="750" on="0"/>
        <pt x="402" y="750" on="1"/>
        <pt x="445" y="750" on="0"/>
        <pt x="543" y="739" on="0"/>
        <pt x="588" y="728" on="1"/>
        <pt x="588" y="619" on="1"/>
        <pt x="531" y="630" on="0"/>
        <pt x="448" y="639" on="0"/>
        <pt x="413" y="639" on="1"/>
        <pt x="348" y="639" on="0"/>
        <pt x="259" y="610" on="0"/>
        <pt x="204" y="546" on="0"/>
        <pt x="179" y="443" on="0"/>
        <pt x="179" y="369" on="1"/>
        <pt x="179" y="296" on="0"/>
        <pt x="202" y="194" on="0"/>
        <pt x="253" y="131" on="0"/>
        <pt x="333" y="102" on="0"/>
        <pt x="391" y="102" on="1"/>
        <pt x="408" y="102" on="0"/>
        <pt x="450" y="105" on="0"/>
        <pt x="472" y="107" on="1"/>
        <pt x="472" y="376" on="1"/>
        <pt x="595" y="376" on="1"/>
        <pt x="595" y="17" on="1"/>
        <pt x="538" y="4" on="0"/>
        <pt x="428" y="-10" on="0"/>
      </contour>
    </TTGlyph>
    <TTGlyph name="Gacute.sc" xMin="41" yMin="-9" xMax="541" yMax="762">
      <contour>
        <pt x="348" y="-9" on="1"/>
        <pt x="191" y="-8" on="0"/>
        <pt x="41" y="137" on="0"/>
        <pt x="41" y="288" on="1"/>
        <pt x="41" y="439" on="0"/>
        <pt x="199" y="586" on="0"/>
        <pt x="364" y="586" on="1"/>
        <pt x="404" y="586" on="0"/>
        <pt x="494" y="577" on="0"/>
        <pt x="533" y="568" on="1"/>
        <pt x="533" y="465" on="1"/>
        <pt x="482" y="473" on="0"/>
        <pt x="406" y="481" on="0"/>
        <pt x="375" y="481" on="1"/>
        <pt x="318" y="481" on="0"/>
        <pt x="241" y="461" on="0"/>
        <pt x="194" y="416" on="0"/>
        <pt x="173" y="342" on="0"/>
        <pt x="173" y="288" on="1"/>
        <pt x="173" y="234" on="0"/>
        <pt x="192" y="161" on="0"/>
        <pt x="235" y="116" on="0"/>
        <pt x="304" y="97" on="0"/>
        <pt x="355" y="97" on="1"/>
        <pt x="359" y="97" on="0"/>
        <pt x="377" y="98" on="0"/>
        <pt x="398" y="99" on="0"/>
        <pt x="417" y="101" on="0"/>
        <pt x="423" y="102" on="1"/>
        <pt x="423" y="293" on="1"/>
        <pt x="541" y="293" on="1"/>
        <pt x="541" y="15" on="1"/>
        <pt x="489" y="4" on="0"/>
        <pt x="388" y="-9" on="0"/>
      </contour>
      <contour>
        <pt x="271" y="629" on="1"/>
        <pt x="331" y="762" on="1"/>
        <pt x="460" y="762" on="1"/>
        <pt x="363" y="623" on="1"/>
      </contour>
    </TTGlyph>
    <TTGlyph name="Gbreve" xMin="41" yMin="-10" xMax="595" yMax="972">
      <contour>
        <pt x="361" y="807" on="1"/>
        <pt x="263" y="807" on="0"/>
        <pt x="171" y="898" on="0"/>
        <pt x="171" y="972" on="1"/>
        <pt x="263" y="972" on="1"/>
        <pt x="263" y="924" on="0"/>
        <pt x="308" y="876" on="0"/>
        <pt x="361" y="876" on="1"/>
        <pt x="414" y="876" on="0"/>
        <pt x="459" y="924" on="0"/>
        <pt x="459" y="972" on="1"/>
        <pt x="552" y="972" on="1"/>
        <pt x="552" y="897" on="0"/>
        <pt x="459" y="807" on="0"/>
      </contour>
      <contour>
        <pt x="384" y="-10" on="1"/>
        <pt x="209" y="-10" on="0"/>
        <pt x="41" y="176" on="0"/>
        <pt x="41" y="369" on="1"/>
        <pt x="41" y="563" on="0"/>
        <pt x="219" y="750" on="0"/>
        <pt x="402" y="750" on="1"/>
        <pt x="445" y="750" on="0"/>
        <pt x="543" y="739" on="0"/>
        <pt x="588" y="728" on="1"/>
        <pt x="588" y="619" on="1"/>
        <pt x="531" y="630" on="0"/>
        <pt x="448" y="639" on="0"/>
        <pt x="413" y="639" on="1"/>
        <pt x="348" y="639" on="0"/>
        <pt x="259" y="610" on="0"/>
        <pt x="204" y="546" on="0"/>
        <pt x="179" y="443" on="0"/>
        <pt x="179" y="369" on="1"/>
        <pt x="179" y="296" on="0"/>
        <pt x="202" y="194" on="0"/>
        <pt x="253" y="131" on="0"/>
        <pt x="333" y="102" on="0"/>
        <pt x="391" y="102" on="1"/>
        <pt x="408" y="102" on="0"/>
        <pt x="450" y="105" on="0"/>
        <pt x="472" y="107" on="1"/>
        <pt x="472" y="376" on="1"/>
        <pt x="595" y="376" on="1"/>
        <pt x="595" y="17" on="1"/>
        <pt x="538" y="4" on="0"/>
        <pt x="428" y="-10" on="0"/>
      </contour>
    </TTGlyph>
    <TTGlyph name="Gbreve.sc" xMin="41" yMin="-9" xMax="541" yMax="764">
      <contour>
        <pt x="348" y="-9" on="1"/>
        <pt x="191" y="-8" on="0"/>
        <pt x="41" y="137" on="0"/>
        <pt x="41" y="288" on="1"/>
        <pt x="41" y="439" on="0"/>
        <pt x="199" y="586" on="0"/>
        <pt x="364" y="586" on="1"/>
        <pt x="404" y="586" on="0"/>
        <pt x="494" y="577" on="0"/>
        <pt x="533" y="568" on="1"/>
        <pt x="533" y="465" on="1"/>
        <pt x="482" y="473" on="0"/>
        <pt x="406" y="481" on="0"/>
        <pt x="375" y="481" on="1"/>
        <pt x="318" y="481" on="0"/>
        <pt x="241" y="461" on="0"/>
        <pt x="194" y="416" on="0"/>
        <pt x="173" y="342" on="0"/>
        <pt x="173" y="288" on="1"/>
        <pt x="173" y="234" on="0"/>
        <pt x="192" y="161" on="0"/>
        <pt x="235" y="116" on="0"/>
        <pt x="304" y="97" on="0"/>
        <pt x="355" y="97" on="1"/>
        <pt x="359" y="97" on="0"/>
        <pt x="377" y="98" on="0"/>
        <pt x="398" y="99" on="0"/>
        <pt x="417" y="101" on="0"/>
        <pt x="423" y="102" on="1"/>
        <pt x="423" y="293" on="1"/>
        <pt x="541" y="293" on="1"/>
        <pt x="541" y="15" on="1"/>
        <pt x="489" y="4" on="0"/>
        <pt x="388" y="-9" on="0"/>
      </contour>
      <contour>
        <pt x="328" y="628" on="1"/>
        <pt x="237" y="628" on="0"/>
        <pt x="155" y="704" on="0"/>
        <pt x="155" y="764" on="1"/>
        <pt x="241" y="764" on="1"/>
        <pt x="241" y="726" on="0"/>
        <pt x="280" y="690" on="0"/>
        <pt x="328" y="690" on="1"/>
        <pt x="375" y="690" on="0"/>
        <pt x="414" y="726" on="0"/>
        <pt x="414" y="764" on="1"/>
        <pt x="501" y="764" on="1"/>
        <pt x="501" y="703" on="0"/>
        <pt x="418" y="628" on="0"/>
      </contour>
    </TTGlyph>
    <TTGlyph name="Gcircumflex" xMin="41" yMin="-10" xMax="595" yMax="972">
      <contour>
        <pt x="384" y="-10" on="1"/>
        <pt x="209" y="-10" on="0"/>
        <pt x="41" y="176" on="0"/>
        <pt x="41" y="369" on="1"/>
        <pt x="41" y="563" on="0"/>
        <pt x="219" y="750" on="0"/>
        <pt x="402" y="750" on="1"/>
        <pt x="445" y="750" on="0"/>
        <pt x="543" y="739" on="0"/>
        <pt x="588" y="728" on="1"/>
        <pt x="588" y="619" on="1"/>
        <pt x="531" y="630" on="0"/>
        <pt x="448" y="639" on="0"/>
        <pt x="413" y="639" on="1"/>
        <pt x="348" y="639" on="0"/>
        <pt x="259" y="610" on="0"/>
        <pt x="204" y="546" on="0"/>
        <pt x="179" y="443" on="0"/>
        <pt x="179" y="369" on="1"/>
        <pt x="179" y="296" on="0"/>
        <pt x="202" y="194" on="0"/>
        <pt x="253" y="131" on="0"/>
        <pt x="333" y="102" on="0"/>
        <pt x="391" y="102" on="1"/>
        <pt x="408" y="102" on="0"/>
        <pt x="450" y="105" on="0"/>
        <pt x="472" y="107" on="1"/>
        <pt x="472" y="376" on="1"/>
        <pt x="595" y="376" on="1"/>
        <pt x="595" y="17" on="1"/>
        <pt x="538" y="4" on="0"/>
        <pt x="428" y="-10" on="0"/>
      </contour>
      <contour>
        <pt x="183" y="898" on="1"/>
        <pt x="356" y="972" on="1"/>
        <pt x="530" y="898" on="1"/>
        <pt x="530" y="804" on="1"/>
        <pt x="357" y="878" on="1"/>
        <pt x="183" y="804" on="1"/>
      </contour>
    </TTGlyph>
    <TTGlyph name="Gcircumflex.sc" xMin="41" yMin="-9" xMax="541" yMax="768">
      <contour>
        <pt x="348" y="-9" on="1"/>
        <pt x="191" y="-8" on="0"/>
        <pt x="41" y="137" on="0"/>
        <pt x="41" y="288" on="1"/>
        <pt x="41" y="439" on="0"/>
        <pt x="199" y="586" on="0"/>
        <pt x="364" y="586" on="1"/>
        <pt x="404" y="586" on="0"/>
        <pt x="494" y="577" on="0"/>
        <pt x="533" y="568" on="1"/>
        <pt x="533" y="465" on="1"/>
        <pt x="482" y="473" on="0"/>
        <pt x="406" y="481" on="0"/>
        <pt x="375" y="481" on="1"/>
        <pt x="318" y="481" on="0"/>
        <pt x="241" y="461" on="0"/>
        <pt x="194" y="416" on="0"/>
        <pt x="173" y="342" on="0"/>
        <pt x="173" y="288" on="1"/>
        <pt x="173" y="234" on="0"/>
        <pt x="192" y="161" on="0"/>
        <pt x="235" y="116" on="0"/>
        <pt x="304" y="97" on="0"/>
        <pt x="355" y="97" on="1"/>
        <pt x="359" y="97" on="0"/>
        <pt x="377" y="98" on="0"/>
        <pt x="398" y="99" on="0"/>
        <pt x="417" y="101" on="0"/>
        <pt x="423" y="102" on="1"/>
        <pt x="423" y="293" on="1"/>
        <pt x="541" y="293" on="1"/>
        <pt x="541" y="15" on="1"/>
        <pt x="489" y="4" on="0"/>
        <pt x="388" y="-9" on="0"/>
      </contour>
      <contour>
        <pt x="165" y="709" on="1"/>
        <pt x="322" y="768" on="1"/>
        <pt x="480" y="709" on="1"/>
        <pt x="480" y="624" on="1"/>
        <pt x="322" y="683" on="1"/>
        <pt x="165" y="624" on="1"/>
      </contour>
    </TTGlyph>
    <TTGlyph name="Gcommaaccent" xMin="41" yMin="-220" xMax="595" yMax="750">
      <contour>
        <pt x="299" y="-69" on="1"/>
        <pt x="435" y="-69" on="1"/>
        <pt x="356" y="-220" on="1"/>
        <pt x="254" y="-220" on="1"/>
      </contour>
      <contour>
        <pt x="384" y="-10" on="1"/>
        <pt x="209" y="-10" on="0"/>
        <pt x="41" y="176" on="0"/>
        <pt x="41" y="369" on="1"/>
        <pt x="41" y="563" on="0"/>
        <pt x="219" y="750" on="0"/>
        <pt x="402" y="750" on="1"/>
        <pt x="445" y="750" on="0"/>
        <pt x="543" y="739" on="0"/>
        <pt x="588" y="728" on="1"/>
        <pt x="588" y="619" on="1"/>
        <pt x="531" y="630" on="0"/>
        <pt x="448" y="639" on="0"/>
        <pt x="413" y="639" on="1"/>
        <pt x="348" y="639" on="0"/>
        <pt x="259" y="610" on="0"/>
        <pt x="204" y="546" on="0"/>
        <pt x="179" y="443" on="0"/>
        <pt x="179" y="369" on="1"/>
        <pt x="179" y="296" on="0"/>
        <pt x="202" y="194" on="0"/>
        <pt x="253" y="131" on="0"/>
        <pt x="333" y="102" on="0"/>
        <pt x="391" y="102" on="1"/>
        <pt x="408" y="102" on="0"/>
        <pt x="450" y="105" on="0"/>
        <pt x="472" y="107" on="1"/>
        <pt x="472" y="376" on="1"/>
        <pt x="595" y="376" on="1"/>
        <pt x="595" y="17" on="1"/>
        <pt x="538" y="4" on="0"/>
        <pt x="428" y="-10" on="0"/>
      </contour>
    </TTGlyph>
    <TTGlyph name="Gcommaaccent.sc" xMin="41" yMin="-172" xMax="541" yMax="586">
      <contour>
        <pt x="348" y="-9" on="1"/>
        <pt x="191" y="-8" on="0"/>
        <pt x="41" y="137" on="0"/>
        <pt x="41" y="288" on="1"/>
        <pt x="41" y="439" on="0"/>
        <pt x="199" y="586" on="0"/>
        <pt x="364" y="586" on="1"/>
        <pt x="404" y="586" on="0"/>
        <pt x="494" y="577" on="0"/>
        <pt x="533" y="568" on="1"/>
        <pt x="533" y="465" on="1"/>
        <pt x="482" y="473" on="0"/>
        <pt x="406" y="481" on="0"/>
        <pt x="375" y="481" on="1"/>
        <pt x="318" y="481" on="0"/>
        <pt x="241" y="461" on="0"/>
        <pt x="194" y="416" on="0"/>
        <pt x="173" y="342" on="0"/>
        <pt x="173" y="288" on="1"/>
        <pt x="173" y="234" on="0"/>
        <pt x="192" y="161" on="0"/>
        <pt x="235" y="116" on="0"/>
        <pt x="304" y="97" on="0"/>
        <pt x="355" y="97" on="1"/>
        <pt x="359" y="97" on="0"/>
        <pt x="377" y="98" on="0"/>
        <pt x="398" y="99" on="0"/>
        <pt x="417" y="101" on="0"/>
        <pt x="423" y="102" on="1"/>
        <pt x="423" y="293" on="1"/>
        <pt x="541" y="293" on="1"/>
        <pt x="541" y="15" on="1"/>
        <pt x="489" y="4" on="0"/>
        <pt x="388" y="-9" on="0"/>
      </contour>
      <contour>
        <pt x="267" y="-54" on="1"/>
        <pt x="396" y="-54" on="1"/>
        <pt x="325" y="-172" on="1"/>
        <pt x="228" y="-172" on="1"/>
      </contour>
    </TTGlyph>
    <TTGlyph name="Gdotaccent" xMin="41" yMin="-10" xMax="595" yMax="953">
      <contour>
        <pt x="362" y="804" on="1"/>
        <pt x="322" y="804" on="0"/>
        <pt x="286" y="839" on="0"/>
        <pt x="286" y="878" on="1"/>
        <pt x="286" y="917" on="0"/>
        <pt x="322" y="953" on="0"/>
        <pt x="362" y="953" on="1"/>
        <pt x="439" y="953" on="0"/>
        <pt x="439" y="878" on="1"/>
        <pt x="439" y="804" on="0"/>
      </contour>
      <contour>
        <pt x="384" y="-10" on="1"/>
        <pt x="209" y="-10" on="0"/>
        <pt x="41" y="176" on="0"/>
        <pt x="41" y="369" on="1"/>
        <pt x="41" y="563" on="0"/>
        <pt x="219" y="750" on="0"/>
        <pt x="402" y="750" on="1"/>
        <pt x="445" y="750" on="0"/>
        <pt x="543" y="739" on="0"/>
        <pt x="588" y="728" on="1"/>
        <pt x="588" y="619" on="1"/>
        <pt x="531" y="630" on="0"/>
        <pt x="448" y="639" on="0"/>
        <pt x="413" y="639" on="1"/>
        <pt x="348" y="639" on="0"/>
        <pt x="259" y="610" on="0"/>
        <pt x="204" y="546" on="0"/>
        <pt x="179" y="443" on="0"/>
        <pt x="179" y="369" on="1"/>
        <pt x="179" y="296" on="0"/>
        <pt x="202" y="194" on="0"/>
        <pt x="253" y="131" on="0"/>
        <pt x="333" y="102" on="0"/>
        <pt x="391" y="102" on="1"/>
        <pt x="408" y="102" on="0"/>
        <pt x="450" y="105" on="0"/>
        <pt x="472" y="107" on="1"/>
        <pt x="472" y="376" on="1"/>
        <pt x="595" y="376" on="1"/>
        <pt x="595" y="17" on="1"/>
        <pt x="538" y="4" on="0"/>
        <pt x="428" y="-10" on="0"/>
      </contour>
    </TTGlyph>
    <TTGlyph name="Gdotaccent.sc" xMin="41" yMin="-9" xMax="541" yMax="761">
      <contour>
        <pt x="348" y="-9" on="1"/>
        <pt x="191" y="-8" on="0"/>
        <pt x="41" y="137" on="0"/>
        <pt x="41" y="288" on="1"/>
        <pt x="41" y="439" on="0"/>
        <pt x="199" y="586" on="0"/>
        <pt x="364" y="586" on="1"/>
        <pt x="404" y="586" on="0"/>
        <pt x="494" y="577" on="0"/>
        <pt x="533" y="568" on="1"/>
        <pt x="533" y="465" on="1"/>
        <pt x="482" y="473" on="0"/>
        <pt x="406" y="481" on="0"/>
        <pt x="375" y="481" on="1"/>
        <pt x="318" y="481" on="0"/>
        <pt x="241" y="461" on="0"/>
        <pt x="194" y="416" on="0"/>
        <pt x="173" y="342" on="0"/>
        <pt x="173" y="288" on="1"/>
        <pt x="173" y="234" on="0"/>
        <pt x="192" y="161" on="0"/>
        <pt x="235" y="116" on="0"/>
        <pt x="304" y="97" on="0"/>
        <pt x="355" y="97" on="1"/>
        <pt x="359" y="97" on="0"/>
        <pt x="377" y="98" on="0"/>
        <pt x="398" y="99" on="0"/>
        <pt x="417" y="101" on="0"/>
        <pt x="423" y="102" on="1"/>
        <pt x="423" y="293" on="1"/>
        <pt x="541" y="293" on="1"/>
        <pt x="541" y="15" on="1"/>
        <pt x="489" y="4" on="0"/>
        <pt x="388" y="-9" on="0"/>
      </contour>
      <contour>
        <pt x="329" y="625" on="1"/>
        <pt x="292" y="625" on="0"/>
        <pt x="257" y="657" on="0"/>
        <pt x="257" y="694" on="1"/>
        <pt x="257" y="729" on="0"/>
        <pt x="292" y="761" on="0"/>
        <pt x="329" y="761" on="1"/>
        <pt x="401" y="761" on="0"/>
        <pt x="401" y="694" on="1"/>
        <pt x="401" y="658" on="0"/>
        <pt x="366" y="625" on="0"/>
      </contour>
    </TTGlyph>
    <TTGlyph name="H" xMin="74" yMin="0" xMax="674" yMax="740">
      <contour>
        <pt x="74" y="740" on="1"/>
        <pt x="208" y="740" on="1"/>
        <pt x="208" y="433" on="1"/>
        <pt x="540" y="433" on="1"/>
        <pt x="540" y="740" on="1"/>
        <pt x="674" y="740" on="1"/>
        <pt x="674" y="0" on="1"/>
        <pt x="540" y="0" on="1"/>
        <pt x="540" y="324" on="1"/>
        <pt x="208" y="324" on="1"/>
        <pt x="208" y="0" on="1"/>
        <pt x="74" y="0" on="1"/>
      </contour>
    </TTGlyph>
    <TTGlyph name="H.sc" xMin="70" yMin="0" xMax="614" yMax="577">
      <contour>
        <pt x="70" y="577" on="1"/>
        <pt x="198" y="577" on="1"/>
        <pt x="198" y="347" on="1"/>
        <pt x="486" y="347" on="1"/>
        <pt x="486" y="577" on="1"/>
        <pt x="614" y="577" on="1"/>
        <pt x="614" y="0" on="1"/>
        <pt x="486" y="0" on="1"/>
        <pt x="486" y="245" on="1"/>
        <pt x="198" y="245" on="1"/>
        <pt x="198" y="0" on="1"/>
        <pt x="70" y="0" on="1"/>
      </contour>
    </TTGlyph>
    <TTGlyph name="Hbar" xMin="4" yMin="0" xMax="768" yMax="740">
      <contour>
        <pt x="4" y="608" on="1"/>
        <pt x="84" y="608" on="1"/>
        <pt x="84" y="740" on="1"/>
        <pt x="218" y="740" on="1"/>
        <pt x="218" y="608" on="1"/>
        <pt x="550" y="608" on="1"/>
        <pt x="550" y="740" on="1"/>
        <pt x="684" y="740" on="1"/>
        <pt x="684" y="608" on="1"/>
        <pt x="768" y="608" on="1"/>
        <pt x="768" y="542" on="1"/>
        <pt x="684" y="542" on="1"/>
        <pt x="684" y="0" on="1"/>
        <pt x="550" y="0" on="1"/>
        <pt x="550" y="324" on="1"/>
        <pt x="218" y="324" on="1"/>
        <pt x="218" y="0" on="1"/>
        <pt x="84" y="0" on="1"/>
        <pt x="84" y="542" on="1"/>
        <pt x="4" y="542" on="1"/>
      </contour>
      <contour>
        <pt x="550" y="433" on="1"/>
        <pt x="550" y="542" on="1"/>
        <pt x="218" y="542" on="1"/>
        <pt x="218" y="433" on="1"/>
      </contour>
    </TTGlyph>
    <TTGlyph name="Hbar.sc" xMin="10" yMin="0" xMax="695" yMax="577">
      <contour>
        <pt x="10" y="481" on="1"/>
        <pt x="79" y="481" on="1"/>
        <pt x="79" y="577" on="1"/>
        <pt x="206" y="577" on="1"/>
        <pt x="206" y="481" on="1"/>
        <pt x="494" y="481" on="1"/>
        <pt x="494" y="577" on="1"/>
        <pt x="622" y="577" on="1"/>
        <pt x="622" y="481" on="1"/>
        <pt x="695" y="481" on="1"/>
        <pt x="695" y="421" on="1"/>
        <pt x="622" y="421" on="1"/>
        <pt x="622" y="0" on="1"/>
        <pt x="494" y="0" on="1"/>
        <pt x="494" y="239" on="1"/>
        <pt x="206" y="239" on="1"/>
        <pt x="206" y="0" on="1"/>
        <pt x="79" y="0" on="1"/>
        <pt x="79" y="421" on="1"/>
        <pt x="10" y="421" on="1"/>
      </contour>
      <contour>
        <pt x="494" y="341" on="1"/>
        <pt x="494" y="421" on="1"/>
        <pt x="206" y="421" on="1"/>
        <pt x="206" y="341" on="1"/>
      </contour>
    </TTGlyph>
    <TTGlyph name="Hcircumflex" xMin="74" yMin="0" xMax="674" yMax="972">
      <contour>
        <pt x="74" y="740" on="1"/>
        <pt x="208" y="740" on="1"/>
        <pt x="208" y="433" on="1"/>
        <pt x="540" y="433" on="1"/>
        <pt x="540" y="740" on="1"/>
        <pt x="674" y="740" on="1"/>
        <pt x="674" y="0" on="1"/>
        <pt x="540" y="0" on="1"/>
        <pt x="540" y="324" on="1"/>
        <pt x="208" y="324" on="1"/>
        <pt x="208" y="0" on="1"/>
        <pt x="74" y="0" on="1"/>
      </contour>
      <contour>
        <pt x="196" y="898" on="1"/>
        <pt x="369" y="972" on="1"/>
        <pt x="543" y="898" on="1"/>
        <pt x="543" y="804" on="1"/>
        <pt x="370" y="878" on="1"/>
        <pt x="196" y="804" on="1"/>
      </contour>
    </TTGlyph>
    <TTGlyph name="Hcircumflex.sc" xMin="70" yMin="0" xMax="614" yMax="768">
      <contour>
        <pt x="70" y="577" on="1"/>
        <pt x="198" y="577" on="1"/>
        <pt x="198" y="347" on="1"/>
        <pt x="486" y="347" on="1"/>
        <pt x="486" y="577" on="1"/>
        <pt x="614" y="577" on="1"/>
        <pt x="614" y="0" on="1"/>
        <pt x="486" y="0" on="1"/>
        <pt x="486" y="245" on="1"/>
        <pt x="198" y="245" on="1"/>
        <pt x="198" y="0" on="1"/>
        <pt x="70" y="0" on="1"/>
      </contour>
      <contour>
        <pt x="181" y="709" on="1"/>
        <pt x="339" y="768" on="1"/>
        <pt x="497" y="709" on="1"/>
        <pt x="497" y="624" on="1"/>
        <pt x="339" y="683" on="1"/>
        <pt x="181" y="624" on="1"/>
      </contour>
    </TTGlyph>
    <TTGlyph name="Hdotbelow" xMin="74" yMin="-196" xMax="674" yMax="740">
      <contour>
        <pt x="74" y="740" on="1"/>
        <pt x="208" y="740" on="1"/>
        <pt x="208" y="433" on="1"/>
        <pt x="540" y="433" on="1"/>
        <pt x="540" y="740" on="1"/>
        <pt x="674" y="740" on="1"/>
        <pt x="674" y="0" on="1"/>
        <pt x="540" y="0" on="1"/>
        <pt x="540" y="324" on="1"/>
        <pt x="208" y="324" on="1"/>
        <pt x="208" y="0" on="1"/>
        <pt x="74" y="0" on="1"/>
      </contour>
      <contour>
        <pt x="378" y="-196" on="1"/>
        <pt x="314" y="-196" on="0"/>
        <pt x="314" y="-134" on="1"/>
        <pt x="314" y="-101" on="0"/>
        <pt x="345" y="-72" on="0"/>
        <pt x="378" y="-72" on="1"/>
        <pt x="411" y="-72" on="0"/>
        <pt x="441" y="-102" on="0"/>
        <pt x="441" y="-134" on="1"/>
        <pt x="441" y="-166" on="0"/>
        <pt x="411" y="-196" on="0"/>
      </contour>
    </TTGlyph>
    <TTGlyph name="Hdotbelow.sc" xMin="70" yMin="-159" xMax="614" yMax="577">
      <contour>
        <pt x="70" y="577" on="1"/>
        <pt x="198" y="577" on="1"/>
        <pt x="198" y="347" on="1"/>
        <pt x="486" y="347" on="1"/>
        <pt x="486" y="577" on="1"/>
        <pt x="614" y="577" on="1"/>
        <pt x="614" y="0" on="1"/>
        <pt x="486" y="0" on="1"/>
        <pt x="486" y="245" on="1"/>
        <pt x="198" y="245" on="1"/>
        <pt x="198" y="0" on="1"/>
        <pt x="70" y="0" on="1"/>
      </contour>
      <contour>
        <pt x="345" y="-159" on="1"/>
        <pt x="314" y="-159" on="0"/>
        <pt x="287" y="-134" on="0"/>
        <pt x="287" y="-106" on="1"/>
        <pt x="287" y="-77" on="0"/>
        <pt x="314" y="-51" on="0"/>
        <pt x="345" y="-51" on="1"/>
        <pt x="403" y="-51" on="0"/>
        <pt x="403" y="-106" on="1"/>
        <pt x="403" y="-159" on="0"/>
      </contour>
    </TTGlyph>
    <TTGlyph name="I" xMin="74" yMin="0" xMax="208" yMax="740">
      <contour>
        <pt x="74" y="740" on="1"/>
        <pt x="208" y="740" on="1"/>
        <pt x="208" y="0" on="1"/>
        <pt x="74" y="0" on="1"/>
      </contour>
    </TTGlyph>
    <TTGlyph name="I.sc" xMin="70" yMin="0" xMax="198" yMax="577">
      <contour>
        <pt x="70" y="577" on="1"/>
        <pt x="198" y="577" on="1"/>
        <pt x="198" y="0" on="1"/>
        <pt x="70" y="0" on="1"/>
      </contour>
    </TTGlyph>
    <TTGlyph name="IJ" xMin="74" yMin="-199" xMax="492" yMax="740">
      <contour>
        <pt x="74" y="740" on="1"/>
        <pt x="208" y="740" on="1"/>
        <pt x="208" y="0" on="1"/>
        <pt x="74" y="0" on="1"/>
      </contour>
      <contour>
        <pt x="280" y="-159" on="1"/>
        <pt x="302" y="-109" on="0"/>
        <pt x="332" y="-25" on="0"/>
        <pt x="350" y="55" on="0"/>
        <pt x="358" y="140" on="0"/>
        <pt x="358" y="191" on="1"/>
        <pt x="358" y="740" on="1"/>
        <pt x="492" y="740" on="1"/>
        <pt x="492" y="181" on="1"/>
        <pt x="492" y="130" on="0"/>
        <pt x="479" y="40" on="0"/>
        <pt x="450" y="-49" on="0"/>
        <pt x="402" y="-144" on="0"/>
        <pt x="367" y="-199" on="1"/>
      </contour>
    </TTGlyph>
    <TTGlyph name="Iacute" xMin="74" yMin="0" xMax="294" yMax="963">
      <contour>
        <pt x="74" y="740" on="1"/>
        <pt x="208" y="740" on="1"/>
        <pt x="208" y="0" on="1"/>
        <pt x="74" y="0" on="1"/>
      </contour>
      <contour>
        <pt x="88" y="804" on="1"/>
        <pt x="158" y="963" on="1"/>
        <pt x="294" y="963" on="1"/>
        <pt x="185" y="797" on="1"/>
      </contour>
    </TTGlyph>
    <TTGlyph name="Iacute.sc" xMin="70" yMin="0" xMax="274" yMax="762">
      <contour>
        <pt x="70" y="577" on="1"/>
        <pt x="198" y="577" on="1"/>
        <pt x="198" y="0" on="1"/>
        <pt x="70" y="0" on="1"/>
      </contour>
      <contour>
        <pt x="84" y="629" on="1"/>
        <pt x="145" y="762" on="1"/>
        <pt x="274" y="762" on="1"/>
        <pt x="176" y="623" on="1"/>
      </contour>
    </TTGlyph>
    <TTGlyph name="Ibreve" xMin="-48" yMin="0" xMax="333" yMax="972">
      <contour>
        <pt x="74" y="740" on="1"/>
        <pt x="208" y="740" on="1"/>
        <pt x="208" y="0" on="1"/>
        <pt x="74" y="0" on="1"/>
      </contour>
      <contour>
        <pt x="142" y="807" on="1"/>
        <pt x="44" y="807" on="0"/>
        <pt x="-48" y="898" on="0"/>
        <pt x="-48" y="972" on="1"/>
        <pt x="44" y="972" on="1"/>
        <pt x="44" y="924" on="0"/>
        <pt x="89" y="876" on="0"/>
        <pt x="142" y="876" on="1"/>
        <pt x="195" y="876" on="0"/>
        <pt x="240" y="924" on="0"/>
        <pt x="240" y="972" on="1"/>
        <pt x="333" y="972" on="1"/>
        <pt x="333" y="897" on="0"/>
        <pt x="240" y="807" on="0"/>
      </contour>
    </TTGlyph>
    <TTGlyph name="Ibreve.sc" xMin="-38" yMin="0" xMax="308" yMax="764">
      <contour>
        <pt x="70" y="577" on="1"/>
        <pt x="198" y="577" on="1"/>
        <pt x="198" y="0" on="1"/>
        <pt x="70" y="0" on="1"/>
      </contour>
      <contour>
        <pt x="135" y="628" on="1"/>
        <pt x="44" y="628" on="0"/>
        <pt x="-38" y="704" on="0"/>
        <pt x="-38" y="764" on="1"/>
        <pt x="48" y="764" on="1"/>
        <pt x="48" y="726" on="0"/>
        <pt x="87" y="690" on="0"/>
        <pt x="135" y="690" on="1"/>
        <pt x="182" y="690" on="0"/>
        <pt x="222" y="726" on="0"/>
        <pt x="222" y="764" on="1"/>
        <pt x="308" y="764" on="1"/>
        <pt x="308" y="703" on="0"/>
        <pt x="225" y="628" on="0"/>
      </contour>
    </TTGlyph>
    <TTGlyph name="Icircumflex" xMin="-31" yMin="0" xMax="316" yMax="972">
      <contour>
        <pt x="74" y="740" on="1"/>
        <pt x="208" y="740" on="1"/>
        <pt x="208" y="0" on="1"/>
        <pt x="74" y="0" on="1"/>
      </contour>
      <contour>
        <pt x="-31" y="898" on="1"/>
        <pt x="142" y="972" on="1"/>
        <pt x="316" y="898" on="1"/>
        <pt x="316" y="804" on="1"/>
        <pt x="143" y="878" on="1"/>
        <pt x="-31" y="804" on="1"/>
      </contour>
    </TTGlyph>
    <TTGlyph name="Icircumflex.sc" xMin="-22" yMin="0" xMax="294" yMax="768">
      <contour>
        <pt x="70" y="577" on="1"/>
        <pt x="198" y="577" on="1"/>
        <pt x="198" y="0" on="1"/>
        <pt x="70" y="0" on="1"/>
      </contour>
      <contour>
        <pt x="-22" y="709" on="1"/>
        <pt x="135" y="768" on="1"/>
        <pt x="294" y="709" on="1"/>
        <pt x="294" y="624" on="1"/>
        <pt x="136" y="683" on="1"/>
        <pt x="-22" y="624" on="1"/>
      </contour>
    </TTGlyph>
    <TTGlyph name="Idblgrave" xMin="-92" yMin="0" xMax="284" yMax="961">
      <contour>
        <pt x="74" y="740" on="1"/>
        <pt x="208" y="740" on="1"/>
        <pt x="208" y="0" on="1"/>
        <pt x="74" y="0" on="1"/>
      </contour>
      <contour>
        <pt x="17" y="794" on="1"/>
        <pt x="-92" y="961" on="1"/>
        <pt x="33" y="961" on="1"/>
        <pt x="103" y="806" on="1"/>
      </contour>
      <contour>
        <pt x="199" y="794" on="1"/>
        <pt x="90" y="961" on="1"/>
        <pt x="214" y="961" on="1"/>
        <pt x="284" y="806" on="1"/>
      </contour>
    </TTGlyph>
    <TTGlyph name="Idblgrave.sc" xMin="-78" yMin="0" xMax="267" yMax="761">
      <contour>
        <pt x="70" y="577" on="1"/>
        <pt x="198" y="577" on="1"/>
        <pt x="198" y="0" on="1"/>
        <pt x="70" y="0" on="1"/>
      </contour>
      <contour>
        <pt x="20" y="621" on="1"/>
        <pt x="-78" y="761" on="1"/>
        <pt x="41" y="761" on="1"/>
        <pt x="101" y="630" on="1"/>
      </contour>
      <contour>
        <pt x="186" y="621" on="1"/>
        <pt x="87" y="761" on="1"/>
        <pt x="207" y="761" on="1"/>
        <pt x="267" y="630" on="1"/>
      </contour>
    </TTGlyph>
    <TTGlyph name="Idieresis" xMin="-63" yMin="0" xMax="348" yMax="957">
      <contour>
        <pt x="74" y="740" on="1"/>
        <pt x="208" y="740" on="1"/>
        <pt x="208" y="0" on="1"/>
        <pt x="74" y="0" on="1"/>
      </contour>
      <contour>
        <pt x="13" y="808" on="1"/>
        <pt x="-26" y="808" on="0"/>
        <pt x="-63" y="844" on="0"/>
        <pt x="-63" y="883" on="1"/>
        <pt x="-63" y="922" on="0"/>
        <pt x="-26" y="957" on="0"/>
        <pt x="13" y="957" on="1"/>
        <pt x="89" y="957" on="0"/>
        <pt x="89" y="883" on="1"/>
        <pt x="89" y="844" on="0"/>
        <pt x="52" y="808" on="0"/>
      </contour>
      <contour>
        <pt x="272" y="808" on="1"/>
        <pt x="232" y="808" on="0"/>
        <pt x="196" y="844" on="0"/>
        <pt x="196" y="883" on="1"/>
        <pt x="196" y="922" on="0"/>
        <pt x="232" y="957" on="0"/>
        <pt x="272" y="957" on="1"/>
        <pt x="348" y="957" on="0"/>
        <pt x="348" y="883" on="1"/>
        <pt x="348" y="844" on="0"/>
        <pt x="311" y="808" on="0"/>
      </contour>
    </TTGlyph>
    <TTGlyph name="Idieresis.sc" xMin="-52" yMin="0" xMax="325" yMax="764">
      <contour>
        <pt x="70" y="577" on="1"/>
        <pt x="198" y="577" on="1"/>
        <pt x="198" y="0" on="1"/>
        <pt x="70" y="0" on="1"/>
      </contour>
      <contour>
        <pt x="19" y="628" on="1"/>
        <pt x="-18" y="628" on="0"/>
        <pt x="-52" y="660" on="0"/>
        <pt x="-52" y="696" on="1"/>
        <pt x="-52" y="764" on="0"/>
        <pt x="19" y="764" on="1"/>
        <pt x="57" y="764" on="0"/>
        <pt x="91" y="731" on="0"/>
        <pt x="91" y="696" on="1"/>
        <pt x="91" y="661" on="0"/>
        <pt x="57" y="628" on="0"/>
      </contour>
      <contour>
        <pt x="253" y="628" on="1"/>
        <pt x="216" y="628" on="0"/>
        <pt x="182" y="660" on="0"/>
        <pt x="182" y="696" on="1"/>
        <pt x="182" y="764" on="0"/>
        <pt x="253" y="764" on="1"/>
        <pt x="325" y="764" on="0"/>
        <pt x="325" y="696" on="1"/>
        <pt x="325" y="628" on="0"/>
      </contour>
    </TTGlyph>
    <TTGlyph name="Idotaccent" xMin="66" yMin="0" xMax="219" yMax="953">
      <contour>
        <pt x="74" y="740" on="1"/>
        <pt x="208" y="740" on="1"/>
        <pt x="208" y="0" on="1"/>
        <pt x="74" y="0" on="1"/>
      </contour>
      <contour>
        <pt x="142" y="804" on="1"/>
        <pt x="102" y="804" on="0"/>
        <pt x="66" y="839" on="0"/>
        <pt x="66" y="878" on="1"/>
        <pt x="66" y="917" on="0"/>
        <pt x="102" y="953" on="0"/>
        <pt x="142" y="953" on="1"/>
        <pt x="219" y="953" on="0"/>
        <pt x="219" y="878" on="1"/>
        <pt x="219" y="804" on="0"/>
      </contour>
    </TTGlyph>
    <TTGlyph name="Idotaccent.sc" xMin="64" yMin="0" xMax="207" yMax="761">
      <contour>
        <pt x="70" y="577" on="1"/>
        <pt x="198" y="577" on="1"/>
        <pt x="198" y="0" on="1"/>
        <pt x="70" y="0" on="1"/>
      </contour>
      <contour>
        <pt x="135" y="625" on="1"/>
        <pt x="98" y="625" on="0"/>
        <pt x="64" y="657" on="0"/>
        <pt x="64" y="694" on="1"/>
        <pt x="64" y="729" on="0"/>
        <pt x="98" y="761" on="0"/>
        <pt x="135" y="761" on="1"/>
        <pt x="173" y="761" on="0"/>
        <pt x="207" y="729" on="0"/>
        <pt x="207" y="694" on="1"/>
        <pt x="207" y="658" on="0"/>
        <pt x="173" y="625" on="0"/>
      </contour>
    </TTGlyph>
    <TTGlyph name="Idotbelow" xMin="74" yMin="-196" xMax="208" yMax="740">
      <contour>
        <pt x="74" y="740" on="1"/>
        <pt x="208" y="740" on="1"/>
        <pt x="208" y="0" on="1"/>
        <pt x="74" y="0" on="1"/>
      </contour>
      <contour>
        <pt x="142" y="-196" on="1"/>
        <pt x="78" y="-196" on="0"/>
        <pt x="78" y="-134" on="1"/>
        <pt x="78" y="-101" on="0"/>
        <pt x="109" y="-72" on="0"/>
        <pt x="142" y="-72" on="1"/>
        <pt x="175" y="-72" on="0"/>
        <pt x="205" y="-102" on="0"/>
        <pt x="205" y="-134" on="1"/>
        <pt x="205" y="-166" on="0"/>
        <pt x="175" y="-196" on="0"/>
      </contour>
    </TTGlyph>
    <TTGlyph name="Idotbelow.sc" xMin="70" yMin="-159" xMax="198" yMax="577">
      <contour>
        <pt x="70" y="577" on="1"/>
        <pt x="198" y="577" on="1"/>
        <pt x="198" y="0" on="1"/>
        <pt x="70" y="0" on="1"/>
      </contour>
      <contour>
        <pt x="135" y="-159" on="1"/>
        <pt x="77" y="-159" on="0"/>
        <pt x="77" y="-106" on="1"/>
        <pt x="77" y="-77" on="0"/>
        <pt x="105" y="-51" on="0"/>
        <pt x="135" y="-51" on="1"/>
        <pt x="194" y="-51" on="0"/>
        <pt x="194" y="-106" on="1"/>
        <pt x="194" y="-159" on="0"/>
      </contour>
    </TTGlyph>
    <TTGlyph name="Igrave" xMin="-10" yMin="0" xMax="208" yMax="963">
      <contour>
        <pt x="74" y="740" on="1"/>
        <pt x="208" y="740" on="1"/>
        <pt x="208" y="0" on="1"/>
        <pt x="74" y="0" on="1"/>
      </contour>
      <contour>
        <pt x="98" y="797" on="1"/>
        <pt x="-10" y="963" on="1"/>
        <pt x="126" y="963" on="1"/>
        <pt x="196" y="809" on="1"/>
      </contour>
    </TTGlyph>
    <TTGlyph name="Igrave.sc" xMin="-3" yMin="0" xMax="199" yMax="762">
      <contour>
        <pt x="70" y="577" on="1"/>
        <pt x="199" y="577" on="1"/>
        <pt x="199" y="0" on="1"/>
        <pt x="70" y="0" on="1"/>
      </contour>
      <contour>
        <pt x="95" y="623" on="1"/>
        <pt x="-3" y="762" on="1"/>
        <pt x="126" y="762" on="1"/>
        <pt x="187" y="632" on="1"/>
      </contour>
    </TTGlyph>
    <TTGlyph name="Iinvertedbreve" xMin="-47" yMin="0" xMax="334" yMax="979">
      <contour>
        <pt x="74" y="740" on="1"/>
        <pt x="208" y="740" on="1"/>
        <pt x="208" y="0" on="1"/>
        <pt x="74" y="0" on="1"/>
      </contour>
      <contour>
        <pt x="241" y="815" on="1"/>
        <pt x="241" y="863" on="0"/>
        <pt x="195" y="911" on="0"/>
        <pt x="143" y="911" on="1"/>
        <pt x="90" y="911" on="0"/>
        <pt x="44" y="863" on="0"/>
        <pt x="44" y="815" on="1"/>
        <pt x="-47" y="815" on="1"/>
        <pt x="-47" y="852" on="0"/>
        <pt x="-24" y="912" on="0"/>
        <pt x="22" y="955" on="0"/>
        <pt x="94" y="979" on="0"/>
        <pt x="143" y="979" on="1"/>
        <pt x="241" y="979" on="0"/>
        <pt x="334" y="890" on="0"/>
        <pt x="334" y="815" on="1"/>
      </contour>
    </TTGlyph>
    <TTGlyph name="Iinvertedbreve.sc" xMin="-37" yMin="0" xMax="310" yMax="771">
      <contour>
        <pt x="70" y="577" on="1"/>
        <pt x="198" y="577" on="1"/>
        <pt x="198" y="0" on="1"/>
        <pt x="70" y="0" on="1"/>
      </contour>
      <contour>
        <pt x="223" y="635" on="1"/>
        <pt x="223" y="673" on="0"/>
        <pt x="184" y="709" on="0"/>
        <pt x="137" y="709" on="1"/>
        <pt x="89" y="709" on="0"/>
        <pt x="50" y="673" on="0"/>
        <pt x="50" y="635" on="1"/>
        <pt x="-37" y="635" on="1"/>
        <pt x="-37" y="695" on="0"/>
        <pt x="45" y="771" on="0"/>
        <pt x="137" y="771" on="1"/>
        <pt x="227" y="771" on="0"/>
        <pt x="310" y="696" on="0"/>
        <pt x="310" y="635" on="1"/>
      </contour>
    </TTGlyph>
    <TTGlyph name="Imacron" xMin="-26" yMin="0" xMax="311" yMax="931">
      <contour>
        <pt x="74" y="740" on="1"/>
        <pt x="208" y="740" on="1"/>
        <pt x="208" y="0" on="1"/>
        <pt x="74" y="0" on="1"/>
      </contour>
      <contour>
        <pt x="-26" y="931" on="1"/>
        <pt x="311" y="931" on="1"/>
        <pt x="311" y="840" on="1"/>
        <pt x="-26" y="840" on="1"/>
      </contour>
    </TTGlyph>
    <TTGlyph name="Imacron.sc" xMin="-19" yMin="0" xMax="290" yMax="739">
      <contour>
        <pt x="70" y="577" on="1"/>
        <pt x="198" y="577" on="1"/>
        <pt x="198" y="0" on="1"/>
        <pt x="70" y="0" on="1"/>
      </contour>
      <contour>
        <pt x="-19" y="739" on="1"/>
        <pt x="290" y="739" on="1"/>
        <pt x="290" y="655" on="1"/>
        <pt x="-19" y="655" on="1"/>
      </contour>
    </TTGlyph>
    <TTGlyph name="Iogonek" xMin="8" yMin="-220" xMax="209" yMax="740">
      <contour>
        <pt x="74" y="740" on="1"/>
        <pt x="208" y="740" on="1"/>
        <pt x="208" y="-12" on="1"/>
        <pt x="148" y="-38" on="0"/>
        <pt x="96" y="-90" on="0"/>
        <pt x="96" y="-114" on="1"/>
        <pt x="96" y="-144" on="0"/>
        <pt x="135" y="-144" on="1"/>
        <pt x="150" y="-144" on="0"/>
        <pt x="191" y="-137" on="0"/>
        <pt x="209" y="-131" on="1"/>
        <pt x="209" y="-208" on="1"/>
        <pt x="171" y="-220" on="0"/>
        <pt x="130" y="-220" on="1"/>
        <pt x="8" y="-220" on="0"/>
        <pt x="8" y="-129" on="1"/>
        <pt x="8" y="-93" on="0"/>
        <pt x="52" y="-30" on="0"/>
        <pt x="100" y="0" on="1"/>
        <pt x="74" y="0" on="1"/>
      </contour>
    </TTGlyph>
    <TTGlyph name="Iogonek.sc" xMin="15" yMin="-172" xMax="198" yMax="577">
      <contour>
        <pt x="71" y="577" on="1"/>
        <pt x="198" y="577" on="1"/>
        <pt x="198" y="-7" on="1"/>
        <pt x="140" y="-29" on="0"/>
        <pt x="98" y="-66" on="0"/>
        <pt x="98" y="-82" on="1"/>
        <pt x="98" y="-102" on="0"/>
        <pt x="131" y="-102" on="1"/>
        <pt x="145" y="-102" on="0"/>
        <pt x="184" y="-96" on="0"/>
        <pt x="198" y="-92" on="1"/>
        <pt x="198" y="-162" on="1"/>
        <pt x="165" y="-172" on="0"/>
        <pt x="126" y="-172" on="1"/>
        <pt x="72" y="-172" on="0"/>
        <pt x="15" y="-133" on="0"/>
        <pt x="15" y="-98" on="1"/>
        <pt x="15" y="-69" on="0"/>
        <pt x="52" y="-23" on="0"/>
        <pt x="92" y="0" on="1"/>
        <pt x="71" y="0" on="1"/>
      </contour>
    </TTGlyph>
    <TTGlyph name="Itilde" xMin="-58" yMin="0" xMax="357" yMax="952">
      <contour>
        <pt x="74" y="740" on="1"/>
        <pt x="208" y="740" on="1"/>
        <pt x="208" y="0" on="1"/>
        <pt x="74" y="0" on="1"/>
      </contour>
      <contour>
        <pt x="-58" y="852" on="1"/>
        <pt x="-29" y="901" on="0"/>
        <pt x="44" y="952" on="0"/>
        <pt x="79" y="952" on="1"/>
        <pt x="102" y="952" on="0"/>
        <pt x="144" y="939" on="0"/>
        <pt x="185" y="924" on="0"/>
        <pt x="227" y="912" on="0"/>
        <pt x="249" y="912" on="1"/>
        <pt x="270" y="912" on="0"/>
        <pt x="310" y="930" on="0"/>
        <pt x="333" y="950" on="1"/>
        <pt x="357" y="924" on="1"/>
        <pt x="330" y="874" on="0"/>
        <pt x="255" y="823" on="0"/>
        <pt x="220" y="823" on="1"/>
        <pt x="198" y="823" on="0"/>
        <pt x="156" y="835" on="0"/>
        <pt x="114" y="850" on="0"/>
        <pt x="72" y="862" on="0"/>
        <pt x="51" y="862" on="1"/>
        <pt x="29" y="862" on="0"/>
        <pt x="-11" y="845" on="0"/>
        <pt x="-34" y="825" on="1"/>
      </contour>
    </TTGlyph>
    <TTGlyph name="Itilde.sc" xMin="-47" yMin="0" xMax="330" yMax="754">
      <contour>
        <pt x="70" y="577" on="1"/>
        <pt x="198" y="577" on="1"/>
        <pt x="198" y="0" on="1"/>
        <pt x="70" y="0" on="1"/>
      </contour>
      <contour>
        <pt x="-47" y="665" on="1"/>
        <pt x="-21" y="709" on="0"/>
        <pt x="46" y="754" on="0"/>
        <pt x="78" y="754" on="1"/>
        <pt x="99" y="754" on="0"/>
        <pt x="137" y="745" on="0"/>
        <pt x="175" y="733" on="0"/>
        <pt x="213" y="724" on="0"/>
        <pt x="233" y="724" on="1"/>
        <pt x="252" y="724" on="0"/>
        <pt x="288" y="736" on="0"/>
        <pt x="309" y="753" on="1"/>
        <pt x="330" y="731" on="1"/>
        <pt x="304" y="686" on="0"/>
        <pt x="236" y="641" on="0"/>
        <pt x="204" y="641" on="1"/>
        <pt x="184" y="641" on="0"/>
        <pt x="145" y="650" on="0"/>
        <pt x="107" y="662" on="0"/>
        <pt x="69" y="671" on="0"/>
        <pt x="50" y="671" on="1"/>
        <pt x="30" y="671" on="0"/>
        <pt x="-6" y="659" on="0"/>
        <pt x="-27" y="642" on="1"/>
      </contour>
    </TTGlyph>
    <TTGlyph name="J" xMin="-2" yMin="-199" xMax="210" yMax="740">
      <contour>
        <pt x="-2" y="-159" on="1"/>
        <pt x="20" y="-109" on="0"/>
        <pt x="50" y="-25" on="0"/>
        <pt x="68" y="55" on="0"/>
        <pt x="76" y="140" on="0"/>
        <pt x="76" y="191" on="1"/>
        <pt x="76" y="740" on="1"/>
        <pt x="210" y="740" on="1"/>
        <pt x="210" y="181" on="1"/>
        <pt x="210" y="130" on="0"/>
        <pt x="197" y="40" on="0"/>
        <pt x="168" y="-49" on="0"/>
        <pt x="120" y="-144" on="0"/>
        <pt x="85" y="-199" on="1"/>
      </contour>
    </TTGlyph>
    <TTGlyph name="J.sc" xMin="4" yMin="-160" xMax="200" yMax="577">
      <contour>
        <pt x="4" y="-124" on="1"/>
        <pt x="24" y="-85" on="0"/>
        <pt x="50" y="-19" on="0"/>
        <pt x="66" y="44" on="0"/>
        <pt x="72" y="111" on="0"/>
        <pt x="72" y="151" on="1"/>
        <pt x="72" y="577" on="1"/>
        <pt x="200" y="577" on="1"/>
        <pt x="200" y="142" on="1"/>
        <pt x="200" y="102" on="0"/>
        <pt x="189" y="30" on="0"/>
        <pt x="162" y="-41" on="0"/>
        <pt x="119" y="-116" on="0"/>
        <pt x="87" y="-160" on="1"/>
      </contour>
    </TTGlyph>
    <TTGlyph name="Jcircumflex" xMin="-29" yMin="-199" xMax="318" yMax="972">
      <contour>
        <pt x="-2" y="-159" on="1"/>
        <pt x="20" y="-109" on="0"/>
        <pt x="50" y="-25" on="0"/>
        <pt x="68" y="55" on="0"/>
        <pt x="76" y="140" on="0"/>
        <pt x="76" y="191" on="1"/>
        <pt x="76" y="740" on="1"/>
        <pt x="210" y="740" on="1"/>
        <pt x="210" y="181" on="1"/>
        <pt x="210" y="130" on="0"/>
        <pt x="197" y="40" on="0"/>
        <pt x="168" y="-49" on="0"/>
        <pt x="120" y="-144" on="0"/>
        <pt x="85" y="-199" on="1"/>
      </contour>
      <contour>
        <pt x="-29" y="898" on="1"/>
        <pt x="144" y="972" on="1"/>
        <pt x="318" y="898" on="1"/>
        <pt x="318" y="804" on="1"/>
        <pt x="145" y="878" on="1"/>
        <pt x="-29" y="804" on="1"/>
      </contour>
    </TTGlyph>
    <TTGlyph name="Jcircumflex.sc" xMin="-20" yMin="-160" xMax="295" yMax="768">
      <contour>
        <pt x="4" y="-124" on="1"/>
        <pt x="23" y="-85" on="0"/>
        <pt x="50" y="-19" on="0"/>
        <pt x="65" y="44" on="0"/>
        <pt x="72" y="111" on="0"/>
        <pt x="72" y="151" on="1"/>
        <pt x="72" y="577" on="1"/>
        <pt x="200" y="577" on="1"/>
        <pt x="200" y="142" on="1"/>
        <pt x="200" y="102" on="0"/>
        <pt x="188" y="30" on="0"/>
        <pt x="161" y="-41" on="0"/>
        <pt x="118" y="-116" on="0"/>
        <pt x="86" y="-160" on="1"/>
      </contour>
      <contour>
        <pt x="-20" y="709" on="1"/>
        <pt x="137" y="768" on="1"/>
        <pt x="295" y="709" on="1"/>
        <pt x="295" y="624" on="1"/>
        <pt x="138" y="683" on="1"/>
        <pt x="-20" y="624" on="1"/>
      </contour>
    </TTGlyph>
    <TTGlyph name="K" xMin="74" yMin="0" xMax="671" yMax="740">
      <contour>
        <pt x="74" y="740" on="1"/>
        <pt x="208" y="740" on="1"/>
        <pt x="208" y="430" on="1"/>
        <pt x="314" y="430" on="1"/>
        <pt x="501" y="740" on="1"/>
        <pt x="652" y="740" on="1"/>
        <pt x="446" y="411" on="1"/>
        <pt x="403" y="385" on="1"/>
        <pt x="403" y="378" on="1"/>
        <pt x="449" y="352" on="1"/>
        <pt x="671" y="0" on="1"/>
        <pt x="520" y="0" on="1"/>
        <pt x="320" y="321" on="1"/>
        <pt x="208" y="321" on="1"/>
        <pt x="208" y="0" on="1"/>
        <pt x="74" y="0" on="1"/>
      </contour>
    </TTGlyph>
    <TTGlyph name="K.sc" xMin="70" yMin="0" xMax="610" yMax="577">
      <contour>
        <pt x="70" y="577" on="1"/>
        <pt x="198" y="577" on="1"/>
        <pt x="198" y="343" on="1"/>
        <pt x="290" y="343" on="1"/>
        <pt x="450" y="577" on="1"/>
        <pt x="594" y="577" on="1"/>
        <pt x="415" y="322" on="1"/>
        <pt x="372" y="301" on="1"/>
        <pt x="372" y="295" on="1"/>
        <pt x="417" y="275" on="1"/>
        <pt x="610" y="0" on="1"/>
        <pt x="466" y="0" on="1"/>
        <pt x="296" y="241" on="1"/>
        <pt x="198" y="241" on="1"/>
        <pt x="198" y="0" on="1"/>
        <pt x="70" y="0" on="1"/>
      </contour>
    </TTGlyph>
    <TTGlyph name="Kcommaaccent" xMin="74" yMin="-220" xMax="671" yMax="740">
      <contour>
        <pt x="270" y="-69" on="1"/>
        <pt x="406" y="-69" on="1"/>
        <pt x="327" y="-220" on="1"/>
        <pt x="225" y="-220" on="1"/>
      </contour>
      <contour>
        <pt x="74" y="740" on="1"/>
        <pt x="208" y="740" on="1"/>
        <pt x="208" y="430" on="1"/>
        <pt x="314" y="430" on="1"/>
        <pt x="501" y="740" on="1"/>
        <pt x="652" y="740" on="1"/>
        <pt x="446" y="411" on="1"/>
        <pt x="403" y="385" on="1"/>
        <pt x="403" y="378" on="1"/>
        <pt x="449" y="352" on="1"/>
        <pt x="671" y="0" on="1"/>
        <pt x="520" y="0" on="1"/>
        <pt x="320" y="321" on="1"/>
        <pt x="208" y="321" on="1"/>
        <pt x="208" y="0" on="1"/>
        <pt x="74" y="0" on="1"/>
      </contour>
    </TTGlyph>
    <TTGlyph name="Kcommaaccent.sc" xMin="70" yMin="-172" xMax="610" yMax="577">
      <contour>
        <pt x="70" y="577" on="1"/>
        <pt x="198" y="577" on="1"/>
        <pt x="198" y="343" on="1"/>
        <pt x="290" y="343" on="1"/>
        <pt x="450" y="577" on="1"/>
        <pt x="594" y="577" on="1"/>
        <pt x="415" y="322" on="1"/>
        <pt x="372" y="301" on="1"/>
        <pt x="372" y="295" on="1"/>
        <pt x="417" y="275" on="1"/>
        <pt x="610" y="0" on="1"/>
        <pt x="466" y="0" on="1"/>
        <pt x="296" y="241" on="1"/>
        <pt x="198" y="241" on="1"/>
        <pt x="198" y="0" on="1"/>
        <pt x="70" y="0" on="1"/>
      </contour>
      <contour>
        <pt x="256" y="-54" on="1"/>
        <pt x="385" y="-54" on="1"/>
        <pt x="314" y="-172" on="1"/>
        <pt x="217" y="-172" on="1"/>
      </contour>
    </TTGlyph>
    <TTGlyph name="L" xMin="74" yMin="0" xMax="504" yMax="740">
      <contour>
        <pt x="74" y="740" on="1"/>
        <pt x="208" y="740" on="1"/>
        <pt x="208" y="109" on="1"/>
        <pt x="504" y="109" on="1"/>
        <pt x="504" y="0" on="1"/>
        <pt x="74" y="0" on="1"/>
      </contour>
    </TTGlyph>
    <TTGlyph name="L.sc" xMin="70" yMin="0" xMax="462" yMax="577">
      <contour>
        <pt x="70" y="577" on="1"/>
        <pt x="198" y="577" on="1"/>
        <pt x="198" y="102" on="1"/>
        <pt x="462" y="102" on="1"/>
        <pt x="462" y="0" on="1"/>
        <pt x="70" y="0" on="1"/>
      </contour>
    </TTGlyph>
    <TTGlyph name="Lacute" xMin="74" yMin="0" xMax="504" yMax="963">
      <contour>
        <pt x="95" y="804" on="1"/>
        <pt x="165" y="963" on="1"/>
        <pt x="301" y="963" on="1"/>
        <pt x="192" y="797" on="1"/>
      </contour>
      <contour>
        <pt x="74" y="740" on="1"/>
        <pt x="208" y="740" on="1"/>
        <pt x="208" y="109" on="1"/>
        <pt x="504" y="109" on="1"/>
        <pt x="504" y="0" on="1"/>
        <pt x="74" y="0" on="1"/>
      </contour>
    </TTGlyph>
    <TTGlyph name="Lacute.sc" xMin="70" yMin="0" xMax="462" yMax="762">
      <contour>
        <pt x="70" y="577" on="1"/>
        <pt x="198" y="577" on="1"/>
        <pt x="198" y="102" on="1"/>
        <pt x="462" y="102" on="1"/>
        <pt x="462" y="0" on="1"/>
        <pt x="70" y="0" on="1"/>
      </contour>
      <contour>
        <pt x="90" y="629" on="1"/>
        <pt x="151" y="762" on="1"/>
        <pt x="280" y="762" on="1"/>
        <pt x="182" y="623" on="1"/>
      </contour>
    </TTGlyph>
    <TTGlyph name="Lcaron" xMin="74" yMin="0" xMax="504" yMax="778">
      <contour>
        <pt x="388" y="778" on="1"/>
        <pt x="493" y="778" on="1"/>
        <pt x="457" y="550" on="1"/>
        <pt x="388" y="550" on="1"/>
      </contour>
      <contour>
        <pt x="74" y="740" on="1"/>
        <pt x="208" y="740" on="1"/>
        <pt x="208" y="109" on="1"/>
        <pt x="504" y="109" on="1"/>
        <pt x="504" y="0" on="1"/>
        <pt x="74" y="0" on="1"/>
      </contour>
    </TTGlyph>
    <TTGlyph name="Lcaron.sc" xMin="71" yMin="0" xMax="462" yMax="615">
      <contour>
        <pt x="71" y="577" on="1"/>
        <pt x="198" y="577" on="1"/>
        <pt x="198" y="102" on="1"/>
        <pt x="462" y="102" on="1"/>
        <pt x="462" y="0" on="1"/>
        <pt x="71" y="0" on="1"/>
      </contour>
      <contour>
        <pt x="352" y="615" on="1"/>
        <pt x="452" y="615" on="1"/>
        <pt x="418" y="437" on="1"/>
        <pt x="352" y="437" on="1"/>
      </contour>
    </TTGlyph>
    <TTGlyph name="Lcommaaccent" xMin="74" yMin="-220" xMax="504" yMax="740">
      <contour>
        <pt x="220" y="-69" on="1"/>
        <pt x="356" y="-69" on="1"/>
        <pt x="277" y="-220" on="1"/>
        <pt x="175" y="-220" on="1"/>
      </contour>
      <contour>
        <pt x="74" y="740" on="1"/>
        <pt x="208" y="740" on="1"/>
        <pt x="208" y="109" on="1"/>
        <pt x="504" y="109" on="1"/>
        <pt x="504" y="0" on="1"/>
        <pt x="74" y="0" on="1"/>
      </contour>
    </TTGlyph>
    <TTGlyph name="Lcommaaccent.sc" xMin="70" yMin="-172" xMax="462" yMax="577">
      <contour>
        <pt x="70" y="577" on="1"/>
        <pt x="198" y="577" on="1"/>
        <pt x="198" y="102" on="1"/>
        <pt x="462" y="102" on="1"/>
        <pt x="462" y="0" on="1"/>
        <pt x="70" y="0" on="1"/>
      </contour>
      <contour>
        <pt x="197" y="-54" on="1"/>
        <pt x="326" y="-54" on="1"/>
        <pt x="255" y="-172" on="1"/>
        <pt x="159" y="-172" on="1"/>
      </contour>
    </TTGlyph>
    <TTGlyph name="Ldot" xMin="74" yMin="0" xMax="504" yMax="740">
      <contour>
        <pt x="74" y="740" on="1"/>
        <pt x="208" y="740" on="1"/>
        <pt x="208" y="109" on="1"/>
        <pt x="504" y="109" on="1"/>
        <pt x="504" y="0" on="1"/>
        <pt x="74" y="0" on="1"/>
      </contour>
      <contour>
        <pt x="421" y="305" on="1"/>
        <pt x="381" y="305" on="0"/>
        <pt x="345" y="340" on="0"/>
        <pt x="345" y="379" on="1"/>
        <pt x="345" y="418" on="0"/>
        <pt x="381" y="454" on="0"/>
        <pt x="421" y="454" on="1"/>
        <pt x="460" y="454" on="0"/>
        <pt x="497" y="418" on="0"/>
        <pt x="497" y="379" on="1"/>
        <pt x="497" y="305" on="0"/>
      </contour>
    </TTGlyph>
    <TTGlyph name="Ldot.sc" xMin="70" yMin="0" xMax="462" yMax="577">
      <contour>
        <pt x="70" y="577" on="1"/>
        <pt x="198" y="577" on="1"/>
        <pt x="198" y="102" on="1"/>
        <pt x="462" y="102" on="1"/>
        <pt x="462" y="0" on="1"/>
        <pt x="70" y="0" on="1"/>
      </contour>
      <contour>
        <pt x="388" y="231" on="1"/>
        <pt x="350" y="231" on="0"/>
        <pt x="317" y="264" on="0"/>
        <pt x="317" y="300" on="1"/>
        <pt x="317" y="335" on="0"/>
        <pt x="350" y="367" on="0"/>
        <pt x="388" y="367" on="1"/>
        <pt x="426" y="367" on="0"/>
        <pt x="460" y="335" on="0"/>
        <pt x="460" y="300" on="1"/>
        <pt x="460" y="264" on="0"/>
        <pt x="426" y="231" on="0"/>
      </contour>
    </TTGlyph>
    <TTGlyph name="Lslash" xMin="12" yMin="0" xMax="524" yMax="740">
      <contour>
        <pt x="12" y="327" on="1"/>
        <pt x="94" y="375" on="1"/>
        <pt x="94" y="740" on="1"/>
        <pt x="228" y="740" on="1"/>
        <pt x="228" y="454" on="1"/>
        <pt x="358" y="531" on="1"/>
        <pt x="358" y="428" on="1"/>
        <pt x="228" y="351" on="1"/>
        <pt x="228" y="109" on="1"/>
        <pt x="524" y="109" on="1"/>
        <pt x="524" y="0" on="1"/>
        <pt x="94" y="0" on="1"/>
        <pt x="94" y="272" on="1"/>
        <pt x="12" y="224" on="1"/>
      </contour>
    </TTGlyph>
    <TTGlyph name="Lslash.sc" xMin="17" yMin="0" xMax="479" yMax="577">
      <contour>
        <pt x="17" y="270" on="1"/>
        <pt x="87" y="309" on="1"/>
        <pt x="87" y="577" on="1"/>
        <pt x="215" y="577" on="1"/>
        <pt x="215" y="363" on="1"/>
        <pt x="331" y="424" on="1"/>
        <pt x="331" y="330" on="1"/>
        <pt x="215" y="269" on="1"/>
        <pt x="215" y="102" on="1"/>
        <pt x="479" y="102" on="1"/>
        <pt x="479" y="0" on="1"/>
        <pt x="87" y="0" on="1"/>
        <pt x="87" y="215" on="1"/>
        <pt x="17" y="176" on="1"/>
      </contour>
    </TTGlyph>
    <TTGlyph name="M" xMin="74" yMin="0" xMax="853" yMax="740">
      <contour>
        <pt x="74" y="740" on="1"/>
        <pt x="259" y="740" on="1"/>
        <pt x="416" y="331" on="1"/>
        <pt x="460" y="189" on="1"/>
        <pt x="466" y="189" on="1"/>
        <pt x="510" y="331" on="1"/>
        <pt x="667" y="740" on="1"/>
        <pt x="853" y="740" on="1"/>
        <pt x="853" y="0" on="1"/>
        <pt x="730" y="0" on="1"/>
        <pt x="730" y="576" on="1"/>
        <pt x="723" y="576" on="1"/>
        <pt x="663" y="401" on="1"/>
        <pt x="520" y="32" on="1"/>
        <pt x="405" y="32" on="1"/>
        <pt x="263" y="401" on="1"/>
        <pt x="202" y="576" on="1"/>
        <pt x="195" y="576" on="1"/>
        <pt x="195" y="0" on="1"/>
        <pt x="74" y="0" on="1"/>
      </contour>
    </TTGlyph>
    <TTGlyph name="M.sc" xMin="70" yMin="0" xMax="772" yMax="577">
      <contour>
        <pt x="70" y="577" on="1"/>
        <pt x="242" y="577" on="1"/>
        <pt x="377" y="277" on="1"/>
        <pt x="417" y="173" on="1"/>
        <pt x="425" y="173" on="1"/>
        <pt x="465" y="277" on="1"/>
        <pt x="600" y="577" on="1"/>
        <pt x="772" y="577" on="1"/>
        <pt x="772" y="0" on="1"/>
        <pt x="656" y="0" on="1"/>
        <pt x="656" y="432" on="1"/>
        <pt x="649" y="432" on="1"/>
        <pt x="589" y="286" on="1"/>
        <pt x="474" y="25" on="1"/>
        <pt x="368" y="25" on="1"/>
        <pt x="253" y="286" on="1"/>
        <pt x="193" y="432" on="1"/>
        <pt x="186" y="432" on="1"/>
        <pt x="186" y="0" on="1"/>
        <pt x="70" y="0" on="1"/>
      </contour>
    </TTGlyph>
    <TTGlyph name="N" xMin="74" yMin="0" xMax="683" yMax="740">
      <contour>
        <pt x="74" y="740" on="1"/>
        <pt x="185" y="740" on="1"/>
        <pt x="503" y="296" on="1"/>
        <pt x="555" y="212" on="1"/>
        <pt x="563" y="212" on="1"/>
        <pt x="563" y="740" on="1"/>
        <pt x="683" y="740" on="1"/>
        <pt x="683" y="0" on="1"/>
        <pt x="570" y="0" on="1"/>
        <pt x="256" y="441" on="1"/>
        <pt x="201" y="528" on="1"/>
        <pt x="193" y="528" on="1"/>
        <pt x="193" y="0" on="1"/>
        <pt x="74" y="0" on="1"/>
      </contour>
    </TTGlyph>
    <TTGlyph name="N.sc" xMin="70" yMin="0" xMax="610" yMax="577">
      <contour>
        <pt x="70" y="577" on="1"/>
        <pt x="173" y="577" on="1"/>
        <pt x="438" y="255" on="1"/>
        <pt x="489" y="188" on="1"/>
        <pt x="496" y="189" on="1"/>
        <pt x="496" y="577" on="1"/>
        <pt x="610" y="577" on="1"/>
        <pt x="610" y="0" on="1"/>
        <pt x="508" y="0" on="1"/>
        <pt x="245" y="320" on="1"/>
        <pt x="192" y="389" on="1"/>
        <pt x="184" y="389" on="1"/>
        <pt x="184" y="0" on="1"/>
        <pt x="70" y="0" on="1"/>
      </contour>
    </TTGlyph>
    <TTGlyph name="Nacute" xMin="74" yMin="0" xMax="683" yMax="963">
      <contour>
        <pt x="313" y="804" on="1"/>
        <pt x="383" y="963" on="1"/>
        <pt x="519" y="963" on="1"/>
        <pt x="410" y="797" on="1"/>
      </contour>
      <contour>
        <pt x="74" y="740" on="1"/>
        <pt x="185" y="740" on="1"/>
        <pt x="503" y="296" on="1"/>
        <pt x="555" y="212" on="1"/>
        <pt x="563" y="212" on="1"/>
        <pt x="563" y="740" on="1"/>
        <pt x="683" y="740" on="1"/>
        <pt x="683" y="0" on="1"/>
        <pt x="570" y="0" on="1"/>
        <pt x="256" y="441" on="1"/>
        <pt x="201" y="528" on="1"/>
        <pt x="193" y="528" on="1"/>
        <pt x="193" y="0" on="1"/>
        <pt x="74" y="0" on="1"/>
      </contour>
    </TTGlyph>
    <TTGlyph name="Nacute.sc" xMin="70" yMin="0" xMax="610" yMax="762">
      <contour>
        <pt x="70" y="577" on="1"/>
        <pt x="173" y="577" on="1"/>
        <pt x="438" y="255" on="1"/>
        <pt x="489" y="188" on="1"/>
        <pt x="496" y="189" on="1"/>
        <pt x="496" y="577" on="1"/>
        <pt x="610" y="577" on="1"/>
        <pt x="610" y="0" on="1"/>
        <pt x="508" y="0" on="1"/>
        <pt x="245" y="320" on="1"/>
        <pt x="192" y="389" on="1"/>
        <pt x="184" y="389" on="1"/>
        <pt x="184" y="0" on="1"/>
        <pt x="70" y="0" on="1"/>
      </contour>
      <contour>
        <pt x="279" y="629" on="1"/>
        <pt x="340" y="762" on="1"/>
        <pt x="469" y="762" on="1"/>
        <pt x="371" y="623" on="1"/>
      </contour>
    </TTGlyph>
    <TTGlyph name="Ncaron" xMin="74" yMin="0" xMax="683" yMax="968">
      <contour>
        <pt x="207" y="968" on="1"/>
        <pt x="381" y="893" on="1"/>
        <pt x="554" y="968" on="1"/>
        <pt x="554" y="874" on="1"/>
        <pt x="380" y="799" on="1"/>
        <pt x="207" y="874" on="1"/>
      </contour>
      <contour>
        <pt x="74" y="740" on="1"/>
        <pt x="185" y="740" on="1"/>
        <pt x="503" y="296" on="1"/>
        <pt x="555" y="212" on="1"/>
        <pt x="563" y="212" on="1"/>
        <pt x="563" y="740" on="1"/>
        <pt x="683" y="740" on="1"/>
        <pt x="683" y="0" on="1"/>
        <pt x="570" y="0" on="1"/>
        <pt x="256" y="441" on="1"/>
        <pt x="201" y="528" on="1"/>
        <pt x="193" y="528" on="1"/>
        <pt x="193" y="0" on="1"/>
        <pt x="74" y="0" on="1"/>
      </contour>
    </TTGlyph>
    <TTGlyph name="Ncaron.sc" xMin="70" yMin="0" xMax="610" yMax="766">
      <contour>
        <pt x="70" y="577" on="1"/>
        <pt x="173" y="577" on="1"/>
        <pt x="438" y="255" on="1"/>
        <pt x="489" y="188" on="1"/>
        <pt x="496" y="189" on="1"/>
        <pt x="496" y="577" on="1"/>
        <pt x="610" y="577" on="1"/>
        <pt x="610" y="0" on="1"/>
        <pt x="508" y="0" on="1"/>
        <pt x="245" y="320" on="1"/>
        <pt x="192" y="389" on="1"/>
        <pt x="184" y="389" on="1"/>
        <pt x="184" y="0" on="1"/>
        <pt x="70" y="0" on="1"/>
      </contour>
      <contour>
        <pt x="184" y="681" on="1"/>
        <pt x="184" y="766" on="1"/>
        <pt x="342" y="707" on="1"/>
        <pt x="500" y="766" on="1"/>
        <pt x="500" y="681" on="1"/>
        <pt x="342" y="622" on="1"/>
      </contour>
    </TTGlyph>
    <TTGlyph name="Ncommaaccent" xMin="74" yMin="-220" xMax="683" yMax="740">
      <contour>
        <pt x="326" y="-69" on="1"/>
        <pt x="462" y="-69" on="1"/>
        <pt x="383" y="-220" on="1"/>
        <pt x="281" y="-220" on="1"/>
      </contour>
      <contour>
        <pt x="74" y="740" on="1"/>
        <pt x="185" y="740" on="1"/>
        <pt x="503" y="296" on="1"/>
        <pt x="555" y="212" on="1"/>
        <pt x="563" y="212" on="1"/>
        <pt x="563" y="740" on="1"/>
        <pt x="683" y="740" on="1"/>
        <pt x="683" y="0" on="1"/>
        <pt x="570" y="0" on="1"/>
        <pt x="256" y="441" on="1"/>
        <pt x="201" y="528" on="1"/>
        <pt x="193" y="528" on="1"/>
        <pt x="193" y="0" on="1"/>
        <pt x="74" y="0" on="1"/>
      </contour>
    </TTGlyph>
    <TTGlyph name="Ncommaaccent.sc" xMin="70" yMin="-172" xMax="610" yMax="577">
      <contour>
        <pt x="70" y="577" on="1"/>
        <pt x="173" y="577" on="1"/>
        <pt x="438" y="255" on="1"/>
        <pt x="489" y="188" on="1"/>
        <pt x="496" y="189" on="1"/>
        <pt x="496" y="577" on="1"/>
        <pt x="610" y="577" on="1"/>
        <pt x="610" y="0" on="1"/>
        <pt x="508" y="0" on="1"/>
        <pt x="245" y="320" on="1"/>
        <pt x="192" y="389" on="1"/>
        <pt x="184" y="389" on="1"/>
        <pt x="184" y="0" on="1"/>
        <pt x="70" y="0" on="1"/>
      </contour>
      <contour>
        <pt x="288" y="-54" on="1"/>
        <pt x="417" y="-54" on="1"/>
        <pt x="345" y="-172" on="1"/>
        <pt x="249" y="-172" on="1"/>
      </contour>
    </TTGlyph>
    <TTGlyph name="Ndotaccent" xMin="74" yMin="0" xMax="683" yMax="953">
      <contour>
        <pt x="377" y="804" on="1"/>
        <pt x="337" y="804" on="0"/>
        <pt x="301" y="839" on="0"/>
        <pt x="301" y="878" on="1"/>
        <pt x="301" y="917" on="0"/>
        <pt x="337" y="953" on="0"/>
        <pt x="377" y="953" on="1"/>
        <pt x="454" y="953" on="0"/>
        <pt x="454" y="878" on="1"/>
        <pt x="454" y="804" on="0"/>
      </contour>
      <contour>
        <pt x="74" y="740" on="1"/>
        <pt x="185" y="740" on="1"/>
        <pt x="503" y="296" on="1"/>
        <pt x="555" y="212" on="1"/>
        <pt x="563" y="212" on="1"/>
        <pt x="563" y="740" on="1"/>
        <pt x="683" y="740" on="1"/>
        <pt x="683" y="0" on="1"/>
        <pt x="570" y="0" on="1"/>
        <pt x="256" y="441" on="1"/>
        <pt x="201" y="528" on="1"/>
        <pt x="193" y="528" on="1"/>
        <pt x="193" y="0" on="1"/>
        <pt x="74" y="0" on="1"/>
      </contour>
    </TTGlyph>
    <TTGlyph name="Ndotaccent.sc" xMin="70" yMin="0" xMax="610" yMax="761">
      <contour>
        <pt x="70" y="577" on="1"/>
        <pt x="173" y="577" on="1"/>
        <pt x="438" y="255" on="1"/>
        <pt x="489" y="188" on="1"/>
        <pt x="496" y="189" on="1"/>
        <pt x="496" y="577" on="1"/>
        <pt x="610" y="577" on="1"/>
        <pt x="610" y="0" on="1"/>
        <pt x="508" y="0" on="1"/>
        <pt x="245" y="320" on="1"/>
        <pt x="192" y="389" on="1"/>
        <pt x="184" y="389" on="1"/>
        <pt x="184" y="0" on="1"/>
        <pt x="70" y="0" on="1"/>
      </contour>
      <contour>
        <pt x="340" y="625" on="1"/>
        <pt x="302" y="625" on="0"/>
        <pt x="268" y="657" on="0"/>
        <pt x="268" y="694" on="1"/>
        <pt x="268" y="729" on="0"/>
        <pt x="302" y="761" on="0"/>
        <pt x="340" y="761" on="1"/>
        <pt x="411" y="761" on="0"/>
        <pt x="411" y="694" on="1"/>
        <pt x="411" y="658" on="0"/>
        <pt x="377" y="625" on="0"/>
      </contour>
    </TTGlyph>
    <TTGlyph name="Ntilde" xMin="74" yMin="0" xMax="683" yMax="952">
      <contour>
        <pt x="176" y="852" on="1"/>
        <pt x="205" y="901" on="0"/>
        <pt x="278" y="952" on="0"/>
        <pt x="313" y="952" on="1"/>
        <pt x="336" y="952" on="0"/>
        <pt x="378" y="939" on="0"/>
        <pt x="419" y="924" on="0"/>
        <pt x="461" y="912" on="0"/>
        <pt x="483" y="912" on="1"/>
        <pt x="504" y="912" on="0"/>
        <pt x="544" y="930" on="0"/>
        <pt x="567" y="950" on="1"/>
        <pt x="591" y="924" on="1"/>
        <pt x="564" y="874" on="0"/>
        <pt x="489" y="823" on="0"/>
        <pt x="454" y="823" on="1"/>
        <pt x="432" y="823" on="0"/>
        <pt x="390" y="835" on="0"/>
        <pt x="348" y="850" on="0"/>
        <pt x="306" y="862" on="0"/>
        <pt x="285" y="862" on="1"/>
        <pt x="263" y="862" on="0"/>
        <pt x="223" y="845" on="0"/>
        <pt x="200" y="825" on="1"/>
      </contour>
      <contour>
        <pt x="74" y="740" on="1"/>
        <pt x="185" y="740" on="1"/>
        <pt x="503" y="296" on="1"/>
        <pt x="555" y="212" on="1"/>
        <pt x="563" y="212" on="1"/>
        <pt x="563" y="740" on="1"/>
        <pt x="683" y="740" on="1"/>
        <pt x="683" y="0" on="1"/>
        <pt x="570" y="0" on="1"/>
        <pt x="256" y="441" on="1"/>
        <pt x="201" y="528" on="1"/>
        <pt x="193" y="528" on="1"/>
        <pt x="193" y="0" on="1"/>
        <pt x="74" y="0" on="1"/>
      </contour>
    </TTGlyph>
    <TTGlyph name="Ntilde.sc" xMin="70" yMin="0" xMax="610" yMax="754">
      <contour>
        <pt x="157" y="665" on="1"/>
        <pt x="183" y="709" on="0"/>
        <pt x="251" y="754" on="0"/>
        <pt x="283" y="754" on="1"/>
        <pt x="304" y="754" on="0"/>
        <pt x="342" y="745" on="0"/>
        <pt x="380" y="733" on="0"/>
        <pt x="418" y="724" on="0"/>
        <pt x="438" y="724" on="1"/>
        <pt x="456" y="724" on="0"/>
        <pt x="492" y="736" on="0"/>
        <pt x="513" y="753" on="1"/>
        <pt x="534" y="731" on="1"/>
        <pt x="508" y="686" on="0"/>
        <pt x="441" y="641" on="0"/>
        <pt x="409" y="641" on="1"/>
        <pt x="389" y="641" on="0"/>
        <pt x="350" y="650" on="0"/>
        <pt x="312" y="662" on="0"/>
        <pt x="273" y="671" on="0"/>
        <pt x="254" y="671" on="1"/>
        <pt x="234" y="671" on="0"/>
        <pt x="198" y="659" on="0"/>
        <pt x="178" y="642" on="1"/>
      </contour>
      <contour>
        <pt x="70" y="577" on="1"/>
        <pt x="173" y="577" on="1"/>
        <pt x="438" y="255" on="1"/>
        <pt x="489" y="188" on="1"/>
        <pt x="496" y="189" on="1"/>
        <pt x="496" y="577" on="1"/>
        <pt x="610" y="577" on="1"/>
        <pt x="610" y="0" on="1"/>
        <pt x="508" y="0" on="1"/>
        <pt x="245" y="320" on="1"/>
        <pt x="192" y="389" on="1"/>
        <pt x="184" y="389" on="1"/>
        <pt x="184" y="0" on="1"/>
        <pt x="70" y="0" on="1"/>
      </contour>
    </TTGlyph>
    <TTGlyph name="O" xMin="41" yMin="-10" xMax="690" yMax="750">
      <contour>
        <pt x="365" y="-10" on="1"/>
        <pt x="205" y="-10" on="0"/>
        <pt x="41" y="180" on="0"/>
        <pt x="41" y="369" on="1"/>
        <pt x="41" y="559" on="0"/>
        <pt x="205" y="750" on="0"/>
        <pt x="365" y="750" on="1"/>
        <pt x="525" y="750" on="0"/>
        <pt x="690" y="559" on="0"/>
        <pt x="690" y="369" on="1"/>
        <pt x="690" y="180" on="0"/>
        <pt x="525" y="-10" on="0"/>
      </contour>
      <contour>
        <pt x="365" y="101" on="1"/>
        <pt x="415" y="101" on="0"/>
        <pt x="486" y="131" on="0"/>
        <pt x="531" y="195" on="0"/>
        <pt x="552" y="297" on="0"/>
        <pt x="552" y="369" on="1"/>
        <pt x="552" y="513" on="0"/>
        <pt x="463" y="640" on="0"/>
        <pt x="365" y="640" on="1"/>
        <pt x="316" y="640" on="0"/>
        <pt x="245" y="610" on="0"/>
        <pt x="200" y="544" on="0"/>
        <pt x="179" y="441" on="0"/>
        <pt x="179" y="369" on="1"/>
        <pt x="179" y="297" on="0"/>
        <pt x="200" y="195" on="0"/>
        <pt x="245" y="131" on="0"/>
        <pt x="315" y="101" on="0"/>
      </contour>
    </TTGlyph>
</ttFont>
